<?xml version="1.0" encoding="UTF-8" standalone="no"?>
<svg
   xmlns:dc="http://purl.org/dc/elements/1.1/"
   xmlns:cc="http://creativecommons.org/ns#"
   xmlns:rdf="http://www.w3.org/1999/02/22-rdf-syntax-ns#"
   xmlns:svg="http://www.w3.org/2000/svg"
   xmlns="http://www.w3.org/2000/svg"
   xmlns:sodipodi="http://sodipodi.sourceforge.net/DTD/sodipodi-0.dtd"
   xmlns:inkscape="http://www.inkscape.org/namespaces/inkscape"
   inkscape:version="1.0beta1 (32d4812, 2019-09-19)"
   sodipodi:docname="FullColor2_1024x1024.svg"
   id="svg212"
   xml:space="preserve"
   viewBox="0 0 1024 1024"
   height="1024"
   width="1024"
   version="1.1"><metadata
   id="metadata216">
  <rdf:RDF>
    <cc:Work
       rdf:about="">
      <dc:format>image/svg+xml</dc:format>
      <dc:type
         rdf:resource="http://purl.org/dc/dcmitype/StillImage" />
      <dc:title></dc:title>
    </cc:Work>
  </rdf:RDF>
</metadata>
<sodipodi:namedview
   inkscape:current-layer="svg212"
   inkscape:window-maximized="0"
   inkscape:window-y="359"
   inkscape:window-x="1113"
   inkscape:cy="1529.5535"
   inkscape:cx="-284.28571"
   inkscape:zoom="0.35"
   showgrid="false"
   id="namedview214"
   inkscape:window-height="1209"
   inkscape:window-width="1600"
   inkscape:pageshadow="2"
   inkscape:pageopacity="0"
   guidetolerance="10"
   gridtolerance="10"
   objecttolerance="10"
   borderopacity="1"
   inkscape:document-rotation="0"
   bordercolor="#666666"
   pagecolor="#ffffff" />

<desc
   id="desc140">Created with Fabric.js 3.1.0</desc>

<defs
   id="defs142">


</defs>

<rect
   style="opacity:1;fill:#4d2d89;fill-rule:nonzero;stroke:none;stroke-width:1;stroke-linecap:butt;stroke-linejoin:miter;stroke-miterlimit:4;stroke-dasharray:none;stroke-dashoffset:0;stop-opacity:1;fill-opacity:1"
   paint-order="stroke"
   x="0"
   y="0"
   rx="0"
   ry="0"
   width="1024"
   height="1024"
   id="rect144" />

<g
   id="logo-logo"
   style=""
   transform="matrix(1.5745007680491552 0 0 1.5745007680491552 530.5231319801514 408.79977031111207)">
	<g
   id="path28"
   transform="matrix(0.25 0 0 -0.25 43.52721061672014 42.52134119120686)">
<linearGradient
   y2="0"
   x2="1"
   y1="0"
   x1="0"
   gradientTransform="matrix(-660.057 -928.207 -473.096 336.423 2319.74 1532.52)"
   gradientUnits="userSpaceOnUse"
   id="SVGID_100601">
<stop
   id="stop147"
   style="stop-color:rgb(255,255,255);stop-opacity: 1"
   offset="0%" />

<stop
   id="stop149"
   style="stop-color:rgb(35,31,32);stop-opacity: 1"
   offset="100%" />

</linearGradient>

<path
   id="path152"
   stroke-linecap="round"
   d="m 2253.36 1473.7 c -269.49 -131.22 -569.77 -297.49 -654.14 -478.641 c -63.27 -135.817 39.7 -186.121 198.53 -156.348 c -183.65 -84.375 -449.18 -71.969 -449.18 111.68 c 0 183.639 546.42 470.889 904.79 523.309"
   transform=" translate(-1800.9650000000001, -1131.1174397058512)"
   paint-order="stroke"
   style="stroke: none; stroke-width: 1; stroke-dasharray: none; stroke-linecap: butt; stroke-dashoffset: 0; stroke-linejoin: miter; stroke-miterlimit: 4; fill: url(#SVGID_100601); fill-rule: nonzero; opacity: 1;" />

</g>

	<g
   id="path44"
   transform="matrix(0.25 0 0 -0.25 -25.36076143958013 -82.86088302319385)">
<linearGradient
   y2="0"
   x2="1"
   y1="0"
   x1="0"
   gradientTransform="matrix(-494.43 313.041 315.875 498.904 1640.43 1210.81)"
   gradientUnits="userSpaceOnUse"
   id="SVGID_100602">
<stop
   id="stop155"
   style="stop-color:rgb(255,255,255);stop-opacity: 1"
   offset="0%" />

<stop
   id="stop157"
   style="stop-color:rgb(35,31,32);stop-opacity: 1"
   offset="100%" />

</linearGradient>

<path
   id="path160"
   stroke-linecap="round"
   d="m 1820.07 1588.18 c -146.41 42.19 -506.24 46.99 -498.8 -54.68 c 7.45 -101.67 -176.2 42.26 -79.41 129.12 c 96.77 86.86 396.94 88.44 517.36 80.21 c 120.41 -8.24 60.85 -154.65 60.85 -154.65"
   transform=" translate(-1524.208732626313, -1622.2912267850497)"
   paint-order="stroke"
   style="stroke: none; stroke-width: 1; stroke-dasharray: none; stroke-linecap: butt; stroke-dashoffset: 0; stroke-linejoin: miter; stroke-miterlimit: 4; fill: url(#SVGID_100602); fill-rule: nonzero; opacity: 1;" />

</g>

	<g
   id="path60"
   transform="matrix(0.25 0 0 -0.25 -38.47542866891291 -15.990311266011332)">
<linearGradient
   y2="0"
   x2="1"
   y1="0"
   x1="0"
   gradientTransform="matrix(-1085.32 29.7789 11.2408 409.68 1714.7 1149.93)"
   gradientUnits="userSpaceOnUse"
   id="SVGID_100603">
<stop
   id="stop163"
   style="stop-color:rgb(255,255,255);stop-opacity: 1"
   offset="0%" />

<stop
   id="stop165"
   style="stop-color:rgb(35,31,32);stop-opacity: 1"
   offset="100%" />

</linearGradient>

<path
   id="path168"
   stroke-linecap="round"
   d="m 986.719 1229.13 l 126.081 -42.68 c 0 0 329.39 267.53 836.4 347.03 c 0 0 -658.42 -23.11 -962.481 -304.35"
   transform=" translate(-1467.9595, -1359.9650000000001)"
   paint-order="stroke"
   style="stroke: none; stroke-width: 1; stroke-dasharray: none; stroke-linecap: butt; stroke-dashoffset: 0; stroke-linejoin: miter; stroke-miterlimit: 4; fill: url(#SVGID_100603); fill-rule: nonzero; opacity: 1;" />

</g>

	<g
   id="path80"
   transform="matrix(0.25 0 0 -0.25 -38.852006708531235 -72.63335513883422)">
<linearGradient
   y2="0"
   x2="1"
   y1="0"
   x1="0"
   gradientTransform="matrix(1450.85 564.219 243.136 -625.208 599.766 1707)"
   gradientUnits="userSpaceOnUse"
   id="SVGID_100604">
<stop
   id="stop171"
   style="stop-color:rgb(225,29,37);stop-opacity: 1"
   offset="0%" />

<stop
   id="stop173"
   style="stop-color:rgb(177,29,35);stop-opacity: 1"
   offset="45.2866%" />

<stop
   id="stop175"
   style="stop-color:rgb(177,29,35);stop-opacity: 1"
   offset="64.0282%" />

<stop
   id="stop177"
   style="stop-color:rgb(71,37,23);stop-opacity: 1"
   offset="100%" />

</linearGradient>

<path
   id="path180"
   stroke-linecap="round"
   d="m 1949.2 1533.48 c -203.88 -20.84 -463.37 -79 -711.13 -181.45 c -86.18 -35.57 -170.94 -76.44 -251.351 -122.9 c -2.567 23.23 -3.965 46.85 -3.965 70.86 c 0 357.37 289.856 647.22 647.196 647.22 c 116.16 0 225.14 -30.57 319.25 -84.16 l -189.98 -189.22 c -35.54 12.52 -73.46 19.85 -112.97 21.44 c -105.01 9.78 -224.08 -4.52 -326.88 -45.22 c -68.26 -27.01 -54.49 -91.96 16.77 -85.42 c 216 19.85 481.05 4.96 613.06 -31.15"
   transform=" translate(-1465.9770000000003, -1588.1699999999998)"
   paint-order="stroke"
   style="stroke: none; stroke-width: 1; stroke-dasharray: none; stroke-linecap: butt; stroke-dashoffset: 0; stroke-linejoin: miter; stroke-miterlimit: 4; fill: url(#SVGID_100604); fill-rule: nonzero; opacity: 1;" />

</g>

	<g
   id="path100"
   transform="matrix(0.25 0 0 -0.25 7.93025670853126 59.7794801388342)">
<linearGradient
   y2="0"
   x2="1"
   y1="0"
   x1="0"
   gradientTransform="matrix(1450.86 564.223 291.582 -749.781 848.76 1066.7)"
   gradientUnits="userSpaceOnUse"
   id="SVGID_100605">
<stop
   id="stop183"
   style="stop-color:rgb(97,204,245);stop-opacity: 1"
   offset="0%" />

<stop
   id="stop185"
   style="stop-color:rgb(53,128,203);stop-opacity: 1"
   offset="35.7442%" />

<stop
   id="stop187"
   style="stop-color:rgb(53,128,203);stop-opacity: 1"
   offset="57.7545%" />

<stop
   id="stop189"
   style="stop-color:rgb(36,38,93);stop-opacity: 1"
   offset="100%" />

</linearGradient>

<path
   id="path192"
   stroke-linecap="round"
   d="m 2267.25 1186.45 c -53.6 -303.384 -318.43 -533.661 -637.3 -533.661 c -251.72 0 -469.72 143.539 -576.52 353.401 c 55.39 49.02 126.86 99.65 208.86 148.68 c 207.85 124.69 483.03 239.04 735.56 290.25 c 89.34 18.27 175.9 28.58 255.51 28.58 c -84.97 -26.38 -164.2 -56.38 -237.25 -88.33 c -239.13 -104.52 -407.91 -207.19 -504.98 -314.2 c -125.34 -138.147 -30.86 -245.178 63.38 -250.932 c 184.71 -11.3 356.89 174.211 419.16 324.102 c 5.57 12.72 10.31 25.83 14.31 38.93 c 0.39 1.19 0.79 2.37 1.19 3.58 l 258.08 -0.4"
   transform=" translate(-1660.3400000000001, -1063.2445)"
   paint-order="stroke"
   style="stroke: none; stroke-width: 1; stroke-dasharray: none; stroke-linecap: butt; stroke-dashoffset: 0; stroke-linejoin: miter; stroke-miterlimit: 4; fill: url(#SVGID_100605); fill-rule: nonzero; opacity: 1;" />

</g>

	<g
   id="path116"
   transform="matrix(0.25 0 0 -0.25 61.44824675659362 -106.81829590151332)">
<linearGradient
   y2="0"
   x2="1"
   y1="0"
   x1="0"
   gradientTransform="matrix(-47.1511 -516.177 -249.051 22.75 2018.96 1987.87)"
   gradientUnits="userSpaceOnUse"
   id="SVGID_100606">
<stop
   id="stop195"
   style="stop-color:rgb(255,255,255);stop-opacity: 1"
   offset="0%" />

<stop
   id="stop197"
   style="stop-color:rgb(35,31,32);stop-opacity: 1"
   offset="100%" />

</linearGradient>

<path
   id="path200"
   stroke-linecap="round"
   d="m 1949.2 1863.05 l 29.71 -93.71 l -158.84 -181.16 l -60.85 85.65 l 189.98 189.22"
   transform=" translate(-1869.065, -1725.6149999999998)"
   paint-order="stroke"
   style="stroke: none; stroke-width: 1; stroke-dasharray: none; stroke-linecap: butt; stroke-dashoffset: 0; stroke-linejoin: miter; stroke-miterlimit: 4; fill: url(#SVGID_100606); fill-rule: nonzero; opacity: 1;" />

</g>

</g>



<text
   id="text1850"
   y="842.85718"
   x="200"
   style="font-style:normal;font-variant:normal;font-weight:bold;font-stretch:normal;font-size:192px;line-height:1.25;font-family:'.Al Nile PUA';-inkscape-font-specification:'.Al Nile PUA Bold';font-variant-ligatures:normal;font-variant-caps:normal;font-variant-numeric:normal;font-variant-east-asian:normal;fill:#d6c481;fill-opacity:1;stroke:none;"
   xml:space="preserve"><tspan
     y="842.85718"
     x="200"
     id="tspan1848"
     sodipodi:role="line">Estrela</tspan></text>
<text
   id="text1887"
   y="942.85718"
   x="340"
   style="font-style:normal;font-variant:normal;font-weight:normal;font-stretch:normal;font-size:85.33329999999999416px;line-height:1.25;font-family:sans-serif;-inkscape-font-specification:'sans-serif Normal';font-variant-ligatures:normal;font-variant-caps:normal;font-variant-numeric:normal;font-variant-east-asian:normal;fill:#d6c481;fill-opacity:1;stroke:none;"
   xml:space="preserve"><tspan
     y="942.85718"
     x="340"
     id="tspan1885"
     sodipodi:role="line">Lua is fun !</tspan></text>
</svg>
