<?xml version="1.0" encoding="UTF-8" standalone="no"?>
<svg
   xmlns:dc="http://purl.org/dc/elements/1.1/"
   xmlns:cc="http://creativecommons.org/ns#"
   xmlns:rdf="http://www.w3.org/1999/02/22-rdf-syntax-ns#"
   xmlns:svg="http://www.w3.org/2000/svg"
   xmlns="http://www.w3.org/2000/svg"
   xmlns:xlink="http://www.w3.org/1999/xlink"
   xmlns:sodipodi="http://sodipodi.sourceforge.net/DTD/sodipodi-0.dtd"
   xmlns:inkscape="http://www.inkscape.org/namespaces/inkscape"
   version="1.1"
   height="100%"
   width="100%"
   x="0px"
   y="0px"
   viewBox="0 0 640 480"
   xml:space="preserve"
   preserveAspectRatio="xMidYMid meet"
   class=""
   id="svg39"
   sodipodi:docname="dark_logo_transparent2.svg"
   inkscape:version="0.92.2 5c3e80d, 2017-08-06"><metadata
     id="metadata43"><rdf:RDF><cc:Work
         rdf:about=""><dc:format>image/svg+xml</dc:format><dc:type
           rdf:resource="http://purl.org/dc/dcmitype/StillImage" /><dc:title></dc:title></cc:Work></rdf:RDF></metadata><sodipodi:namedview
     pagecolor="#ffffff"
     bordercolor="#666666"
     borderopacity="1"
     objecttolerance="10"
     gridtolerance="10"
     guidetolerance="10"
     inkscape:pageopacity="0"
     inkscape:pageshadow="2"
     inkscape:window-width="1940"
     inkscape:window-height="1165"
     id="namedview41"
     showgrid="false"
     inkscape:zoom="4.418317"
     inkscape:cx="323.06738"
     inkscape:cy="221.50105"
     inkscape:window-x="612"
     inkscape:window-y="179"
     inkscape:window-maximized="0"
     inkscape:current-layer="svg39" /><defs
     id="defs7"><linearGradient
       id="linearGradient3787"><stop
         id="stop3783"
         stop-color="#B68648"
         offset="0.05" /><stop
         id="stop3785"
         stop-color="#FBF3A3"
         offset="0.95" /></linearGradient><linearGradient
       id="textGradient2265764284"><stop
         offset="0.05"
         stop-color="#B68648"
         id="stop2" /><stop
         offset="0.95"
         stop-color="#FBF3A3"
         id="stop4" /></linearGradient><linearGradient
       inkscape:collect="always"
       xlink:href="#linearGradient3787"
       id="linearGradient3734"
       gradientTransform="scale(1.0771995,0.92833312)"
       x1="32.218231"
       y1="9.9673042"
       x2="89.050579"
       y2="9.6947958"
       gradientUnits="userSpaceOnUse" /><linearGradient
       inkscape:collect="always"
       xlink:href="#iconGradient2265764284"
       id="linearGradient3736"
       gradientTransform="scale(1.0771995,0.92833312)"
       x1="4.2712607"
       y1="9.6947958"
       x2="89.050579"
       y2="9.6947958"
       gradientUnits="userSpaceOnUse" /><linearGradient
       inkscape:collect="always"
       xlink:href="#iconGradient2265764284"
       id="linearGradient3738"
       gradientTransform="scale(1.0771995,0.92833312)"
       x1="4.2712607"
       y1="9.6947958"
       x2="89.050579"
       y2="9.6947958"
       gradientUnits="userSpaceOnUse" /><linearGradient
       inkscape:collect="always"
       xlink:href="#textGradient2265764284"
       id="linearGradient3740"
       gradientTransform="scale(2.0766825,0.48153726)"
       x1="2.0128257"
       y1="-110.93638"
       x2="143.3103"
       y2="-110.93638"
       gradientUnits="userSpaceOnUse" /><linearGradient
       inkscape:collect="always"
       xlink:href="#textGradient2265764284"
       id="linearGradient3742"
       gradientTransform="scale(2.0766825,0.48153726)"
       x1="2.0128257"
       y1="-110.93638"
       x2="143.3103"
       y2="-110.93638"
       gradientUnits="userSpaceOnUse" /><filter
       style="color-interpolation-filters:sRGB;"
       inkscape:label="Colorize"
       id="filter3781"><feComposite
         in2="SourceGraphic"
         operator="arithmetic"
         k1="0"
         k2="1"
         result="composite1"
         id="feComposite3767" /><feColorMatrix
         in="composite1"
         values="1"
         type="saturate"
         result="colormatrix1"
         id="feColorMatrix3769" /><feFlood
         flood-opacity="1"
         flood-color="rgb(0,0,0)"
         result="flood1"
         id="feFlood3771" /><feBlend
         in="flood1"
         in2="colormatrix1"
         mode="multiply"
         result="blend1"
         id="feBlend3773" /><feBlend
         in2="blend1"
         mode="screen"
         result="blend2"
         id="feBlend3775" /><feColorMatrix
         in="blend2"
         values="1"
         type="saturate"
         result="colormatrix2"
         id="feColorMatrix3777" /><feComposite
         in="colormatrix2"
         in2="SourceGraphic"
         operator="in"
         k2="1"
         result="composite2"
         id="feComposite3779" /></filter></defs><defs
     id="defs14"><linearGradient
       id="iconGradient2265764284"><stop
         offset="0.05"
         stop-color="#B68648"
         id="stop9" /><stop
         offset="0.95"
         stop-color="#FBF3A3"
         id="stop11" /></linearGradient></defs><rect
     x="0px"
     y="0px"
     width="100%"
     height="100%"
     fill="none"
     id="rect16" /><g
     class="sampleIconBox"
     id="g24"
     transform="matrix(0.81704363,0,0,0.81704363,86.721789,43.909521)"
     style="filter:url(#filter3781)"><g
       class="sampleIcons_1"
       transform="matrix(1.0949996,0,0,1.0949996,74.161902,187.05488)"
       id="g22"
       style="fill:url(#linearGradient3738)"><g
         id="g20"
         style="fill:url(#linearGradient3736)"><path
           d="m 56.809,28.396 c 5.314,0 9.66,-4.343 9.66,-9.661 0,-5.392 -4.346,-9.735 -9.66,-9.735 -3.896,0 -7.34,2.321 -8.838,5.691 -0.599,1.198 -0.898,2.621 -0.898,4.044 0,1.422 0.299,2.77 0.898,4.043 1.497,3.296 4.941,5.618 8.838,5.618 z m 11.63,38.341 c 1.287,-3.343 2.109,-6.596 3.402,-10.109 -4.418,0 -6.973,-0.146 -11.33,-0.031 -3.445,0 -4.902,1.977 -6.025,4.374 -2.17,5.69 -4.343,11.456 -6.516,17.147 -1.085,2.968 -2.278,5.981 -3.371,8.952 h 11.947 c 2.398,-7.02 4.762,-13.554 7.562,-20.333 z M 94.893,53.172 c -0.311,-0.77 -0.664,-1.52 -1.037,-2.26 -0.223,-0.444 -1.34,-1.927 -1.254,-2.373 0.9,-4.643 1.93,-9.307 2.828,-13.95 0.756,-3.659 -0.803,-5.954 -2.973,-6.853 -2.846,-1.198 -4.572,-1.886 -7.342,-3.084 -1.199,-0.524 -2.398,-1.049 -3.67,-1.572 -3.67,-1.798 -6.143,-2.282 -9.811,0.224 -6.891,4.343 -14.584,9.294 -21.474,13.713 0.9,-2.396 2.298,-5.325 3.199,-7.723 -1.873,-0.672 -3.516,-1.421 -5.389,-2.17 -0.299,-0.15 -0.599,-0.225 -0.898,-0.375 l -0.149,0.375 c -2.138,4.518 -4.911,9.987 -6.56,14.479 -1.092,3.415 2.628,6.088 5.994,4.999 0.075,0 10.525,-4.801 14.792,-6.673 4.793,5.466 9.51,11.008 14.301,16.475 -2.395,1.497 -2.926,1.913 -4.041,5.316 -2.965,8.451 -5.93,16.902 -8.895,25.352 H 74.98 l 7.131,-20.083 c 0.748,0.075 2.18,0.199 3.004,0.199 2.367,0 4.678,0.065 6.824,-1.118 4.618,-2.547 4.659,-8.625 2.954,-12.898 z m -4.612,1.134 h -7.49 l 2.324,-12.356 0.373,-1.871 -0.373,-0.524 -5.244,-7.49 5.244,1.274 2.77,0.599 -3.508,19.329 5.914,0.008 z"
           id="path18"
           style="clip-rule:evenodd;fill:url(#linearGradient3734);fill-rule:evenodd"
           inkscape:connector-curvature="0"
           sodipodi:nodetypes="ssscscsccccccccccccccccccccccccccccccsccccccccccccc" /></g></g></g><g
     class="sampleTexts_1"
     transform="matrix(0.81704363,0,0,0.81704363,86.721794,58.02804)"
     id="g33"><g
       class="logo--name svgLogoName_1 logoNameBox"
       transform="translate(194.22,225.38)"
       id="g28"
       style="fill:url(#linearGradient3742)"><path
         d="m 37.44,-0.14 v 0 0 Q 32.62,0.29 23.62,0.29 v 0 0 q -9,0 -12.28,-0.25 v 0 0 Q 8.06,-0.22 6.41,-1.15 v 0 0 Q 4.75,-2.09 4.61,-4.1 v 0 0 Q 4.18,-11.88 4.18,-21.85 v 0 0 q 0,-9.97 0.28,-21.13 v 0 0 q 0.15,-6.92 6.41,-7.35 v 0 0 q 4.39,-0.29 13.47,-0.29 v 0 0 q 9.07,0 14.22,0.26 v 0 0 q 5.14,0.25 9.93,2.37 v 0 0 q 4.79,2.13 7.67,5.51 v 0 0 q 5.98,6.98 5.98,16.2 v 0 0 q 0,9.72 -6.27,17.35 v 0 0 q -3.02,3.67 -7.81,6.05 v 0 0 Q 43.27,-0.5 37.44,-0.14 Z M 34.2,-34.85 v 0 17.43 0 q 0,0.57 0.43,1.08 v 0 0 q 0.43,0.5 1.15,0.5 v 0 0 q 4.61,0 7.1,-3.17 v 0 0 q 2.48,-3.17 2.48,-7.49 v 0 0 q 0,-4.32 -2.27,-7.52 v 0 0 q -2.27,-3.2 -6.08,-3.2 v 0 0 q -0.94,0 -1.44,0.07 v 0 0 q -1.37,0.36 -1.37,2.3 z m 40.46,-1.58 v 0 H 88.7 v 0 q 2.44,0 3.27,1.08 v 0 0 q 0.83,1.08 1.08,4.79 v 0 0 q 0.25,3.7 0.25,13.53 v 0 0 q 0,9.83 -0.43,13.86 v 0 0 q -0.21,1.23 -1.22,2.16 v 0 0 q -1.01,0.94 -3.57,1.12 v 0 0 Q 85.53,0.29 82,0.29 v 0 0 q -3.53,0 -6.41,-0.18 v 0 0 Q 72.71,-0.07 71.7,-1.01 v 0 0 q -1,-0.93 -1.15,-2.16 v 0 0 q -0.5,-4.68 -0.5,-14.36 v 0 0 q 0,-9.69 0.29,-13.21 v 0 0 q 0.28,-3.53 1.08,-4.61 v 0 0 q 0.79,-1.08 3.24,-1.08 z m 7.77,-16.99 v 0 0 q 4.75,0 7.17,1.9 v 0 0 q 2.41,1.91 2.41,5.22 v 0 0 q 0,7.78 -10.37,7.78 v 0 0 q -4.18,0 -7.13,-1.8 v 0 0 q -2.95,-1.8 -2.95,-5.4 v 0 0 q 0,-7.7 10.87,-7.7 z m 44.13,27.79 v 0 0 q -4.25,0 -4.25,6.23 v 0 0 q 0,6.22 4.11,6.22 v 0 0 q 1.8,0 3.13,-0.97 v 0 0 q 1.33,-0.97 1.33,-2.77 v 0 -4.97 0 q 0,-1.73 -1.33,-2.73 v 0 0 q -1.33,-1.01 -2.99,-1.01 z m 27.07,-7.56 v 0 l 0.15,22.1 v 0 q 0,7.2 -0.08,10.95 v 0 0 q -0.07,3.74 -2.16,6.76 v 0 0 q -2.08,3.03 -5.68,4.76 v 0 0 q -7.06,3.24 -18.8,3.24 v 0 0 q -11.73,0 -19.22,-3.17 v 0 0 q -1.8,-0.79 -2.63,-1.69 v 0 0 q -0.83,-0.9 -0.83,-3.17 v 0 0 q 0,-2.27 0.9,-3.35 v 0 0 q 0.9,-1.08 2.13,-1.08 v 0 0 q 1.22,0 3.02,0.86 v 0 0 q 5.55,2.74 11.09,2.74 v 0 0 q 2.52,0 4.54,-0.54 v 0 0 q 2.01,-0.54 3.56,-2.2 v 0 0 q 1.55,-1.65 1.55,-4.24 v 0 l -0.07,-3.82 v 0 q 0,-0.72 -0.44,-0.72 v 0 0 q -0.21,0 -0.43,0.22 v 0 0 Q 124.47,0 117.56,0 V 0 0 Q 110.65,0 106,-4.39 v 0 0 q -4.64,-4.39 -4.64,-13.9 v 0 0 q 0,-9.5 5.47,-14.36 v 0 0 q 5.47,-4.86 13.39,-4.86 v 0 0 q 7.92,0 11.74,4.97 v 0 0 q 0.07,-1.88 1.37,-2.88 v 0 0 q 1.29,-1.01 2.88,-1.16 v 0 0 q 1.58,-0.14 5.76,-0.14 v 0 l 7.63,0.14 v 0 q 1.37,0 2.7,0.98 v 0 0 q 1.33,0.97 1.33,2.41 z m 14.47,-19.44 v 0 h 13.82 v 0 q 2.38,0 3.17,1.11 v 0 0 q 0.79,1.12 1.01,3.57 v 0 0 q 0.43,8.64 0.43,23.87 v 0 0 q 0,15.22 -0.58,20.98 v 0 0 q -0.14,1.16 -1.15,2.09 v 0 0 q -1.01,0.94 -3.56,1.12 v 0 0 q -2.56,0.18 -6.02,0.18 v 0 0 q -3.45,0 -6.19,-0.15 v 0 0 q -4.68,-0.36 -4.89,-3.24 v 0 0 q -0.72,-6.26 -0.72,-22.21 v 0 0 q 0,-15.95 0.57,-22.64 v 0 0 q 0.22,-2.45 0.97,-3.57 v 0 0 q 0.76,-1.11 3.14,-1.11 z M 217.34,-18 v 0 q 0,8.06 4.24,8.06 v 0 0 q 4.25,0 4.25,-8.06 v 0 0 q 0,-3.67 -0.86,-5.65 v 0 0 q -0.87,-1.98 -3.39,-1.98 v 0 0 q -2.52,0 -3.38,1.98 v 0 0 q -0.86,1.98 -0.86,5.65 z m 31.1,0 v 0 q 0,19.58 -26.86,19.58 v 0 0 q -26.85,0 -26.85,-19.58 v 0 0 q 0,-9.29 6.84,-14.4 v 0 0 q 6.84,-5.11 20.01,-5.11 v 0 0 q 13.18,0 20.02,5.11 v 0 0 q 6.84,5.11 6.84,14.4 z m 11.22,1.37 v -9.58 0 q 0,-1.15 -1.58,-1.15 v 0 0 q -2.81,0 -3.31,-1.87 v 0 0 q -0.29,-0.94 -0.29,-2.88 v 0 0 q 0,-1.95 0.54,-2.77 v 0 0 q 0.54,-0.83 2.09,-1.23 v 0 0 q 1.55,-0.39 2.81,-1.37 v 0 0 q 1.26,-0.97 5.18,-4.28 v 0 0 q 3.92,-3.31 5.47,-4.32 v 0 0 q 1.55,-1.01 3.85,-1.01 v 0 h 3.6 v 0 q 2.52,0 3.39,0.61 v 0 0 q 0.86,0.62 0.86,1.91 v 0 6.84 0 q 0,1.51 1.3,1.51 v 0 h 7.7 v 0 q 1.87,0 2.7,0.8 v 0 0 q 0.83,0.79 0.83,3.63 v 0 0 q 0,2.85 -0.86,3.64 v 0 0 q -0.87,0.79 -2.6,0.79 v 0 h -7.48 v 0 q -1.01,0 -1.3,0.5 v 0 0 q -0.29,0.51 -0.29,1.44 v 0 8.64 0 q 0.15,2.45 1.84,4.11 v 0 0 q 1.69,1.65 4.79,1.65 v 0 0 q 1.51,0 3.74,-0.82 v 0 0 q 2.23,-0.83 3.02,-0.83 v 0 0 q 1.95,0 1.95,5.76 v 0 0 q 0,4.17 -2.23,5.04 v 0 0 q -2.31,0.79 -6.48,1.29 v 0 0 q -4.18,0.51 -8.36,0.51 v 0 0 q -4.17,0 -7.95,-0.69 v 0 0 q -3.78,-0.68 -6.88,-2.41 v 0 0 q -6.05,-3.53 -6.05,-13.46 z"
         id="path26"
         style="fill:url(#linearGradient3740)"
         inkscape:connector-curvature="0" /></g><g
       id=""
       class="logo--name svgSloganText_1 sloganBox"
       transform="translate(196.72,268.03)"
       style="fill:#000000"><path
         d="M 1.68,0 H 8.54 V -2.23 H 4.1 v -11.4 H 1.68 Z m 8.42,-2.02 c 0,1.25 1.01,2.26 2.28,2.26 h 2.21 c 1.27,0 2.28,-1.01 2.28,-2.26 v -1.36 h -2.09 v 0.86 c 0,0.36 -0.28,0.72 -0.67,0.72 h -1.15 c -0.38,0 -0.67,-0.36 -0.67,-0.72 v -2.04 h 4.58 v -3.5 c 0,-1.25 -1.01,-2.28 -2.28,-2.28 h -2.21 c -1.27,0 -2.28,1.03 -2.28,2.28 z m 2.19,-4 v -1.56 c 0,-0.36 0.29,-0.7 0.67,-0.7 h 1.15 c 0.39,0 0.67,0.34 0.67,0.7 v 1.56 z m 13.7,-2 c 0,-1.27 -1.03,-2.32 -2.33,-2.32 h -1.87 c -1.29,0 -2.33,1.05 -2.33,2.32 v 1.47 h 2.09 v -1.06 c 0,-0.33 0.34,-0.67 0.7,-0.67 h 0.86 c 0.39,0 0.65,0.34 0.65,0.67 v 0.67 c 0,0.32 -0.1,0.58 -0.41,0.72 l -3,1.18 c -0.67,0.26 -1.08,0.84 -1.08,1.66 v 1.32 c 0,1.24 1.06,2.3 2.33,2.3 h 0.67 c 0.75,0 1.25,-0.43 1.56,-0.74 L 23.95,0 h 2.04 z m -2.23,5.4 c 0,0.41 -0.36,0.82 -0.77,0.82 h -0.91 c -0.41,0 -0.65,-0.36 -0.65,-0.67 v -0.67 c 0,-0.29 0.07,-0.48 0.36,-0.63 l 1.68,-0.69 c 0.17,-0.08 0.27,-0.2 0.29,-0.2 z M 30.91,0 v -7.27 c 0,-0.46 0.36,-0.84 0.79,-0.84 h 1.35 v -2.14 H 32.4 c -0.72,0 -1.3,0.48 -1.54,0.82 L 30.72,-10.1 H 28.63 V 0 Z m 6,0 v -7.37 c 0,-0.43 0.34,-0.84 0.77,-0.84 h 0.94 c 0.38,0 0.67,0.34 0.67,0.72 V 0 h 2.28 v -8.04 c 0,-1.27 -1.01,-2.3 -2.28,-2.3 H 38.4 c -0.74,0 -1.3,0.5 -1.56,0.84 l -0.12,-0.6 H 34.61 V 0 Z m 9.82,0 V -10.1 H 44.45 V 0 Z M 46.7,-11.76 v -1.87 h -2.25 v 1.87 z M 51.91,0 v -7.37 c 0,-0.43 0.34,-0.84 0.77,-0.84 h 0.94 c 0.38,0 0.67,0.34 0.67,0.72 V 0 h 2.28 v -8.04 c 0,-1.27 -1.01,-2.3 -2.28,-2.3 H 53.4 c -0.74,0 -1.3,0.5 -1.56,0.84 l -0.12,-0.6 H 49.61 V 0 Z m 6.94,3.12 c 0,1.3 1.03,2.33 2.3,2.33 h 2.19 c 1.29,0 2.3,-1.03 2.3,-2.33 V 0.89 c 0,-0.99 -0.55,-1.59 -1.58,-1.97 l -2.55,-0.94 c -0.31,-0.12 -0.57,-0.24 -0.57,-0.6 0,-0.16 0.07,-0.31 0.16,-0.43 0.08,0 0.15,0.03 0.22,0.03 h 1.42 c 1.29,0 2.3,-1.06 2.3,-2.33 v -2.4 c 0,-0.36 -0.17,-0.67 -0.34,-0.79 l 0.77,-0.15 v -1.41 h -4.32 c -1.29,0 -2.3,1.05 -2.3,2.32 v 2.43 c 0,0.79 0.38,1.46 0.98,1.89 -0.26,0.29 -0.45,0.68 -0.45,1.13 0,0.82 0.52,1.18 1.1,1.47 l -0.6,0.55 c -0.6,0.57 -1.03,1.01 -1.03,1.92 z m 2.16,-10.49 c 0,-0.33 0.26,-0.67 0.67,-0.67 h 0.53 c 0.41,0 0.67,0.34 0.67,0.67 v 1.83 c 0,0.33 -0.26,0.64 -0.67,0.64 h -0.53 c -0.41,0 -0.67,-0.31 -0.67,-0.64 z m 0.48,10.75 c -0.39,0 -0.7,-0.33 -0.7,-0.72 V 1.37 c 0,-0.39 0.17,-0.55 0.48,-0.87 l 0.6,-0.6 1.2,0.65 c 0.24,0.07 0.41,0.34 0.41,0.58 v 1.53 c 0,0.39 -0.31,0.72 -0.7,0.72 z M 72.36,0 h 2.4 V -5.93 L 78.24,0 h 2.66 l -4.03,-6.94 3.94,-6.69 h -2.5 l -3.55,6.05 v -6.05 h -2.4 z m 9.62,-2.02 c 0,1.25 1.01,2.26 2.26,2.26 h 2.35 c 1.27,0 2.28,-1.01 2.28,-2.26 v -6.04 c 0,-1.25 -1.01,-2.28 -2.28,-2.28 h -2.35 c -1.25,0 -2.26,1.03 -2.26,2.28 z m 2.19,-0.5 v -5.06 c 0,-0.36 0.29,-0.7 0.65,-0.7 h 1.2 c 0.38,0 0.67,0.34 0.67,0.7 v 5.06 c 0,0.36 -0.29,0.72 -0.67,0.72 h -1.2 c -0.36,0 -0.65,-0.36 -0.65,-0.72 z M 93.79,0 v -7.27 c 0,-0.46 0.36,-0.84 0.79,-0.84 h 1.35 v -2.14 h -0.65 c -0.72,0 -1.3,0.48 -1.54,0.82 L 93.6,-10.1 H 91.51 V 0 Z m 3.7,-2.02 c 0,1.25 1.01,2.26 2.28,2.26 h 2.21 c 1.27,0 2.28,-1.01 2.28,-2.26 v -1.36 h -2.09 v 0.86 c 0,0.36 -0.29,0.72 -0.67,0.72 h -1.16 c -0.38,0 -0.67,-0.36 -0.67,-0.72 v -2.04 h 4.59 v -3.5 c 0,-1.25 -1.01,-2.28 -2.28,-2.28 h -2.21 c -1.27,0 -2.28,1.03 -2.28,2.28 z m 2.18,-4 v -1.56 c 0,-0.36 0.29,-0.7 0.67,-0.7 h 1.16 c 0.38,0 0.67,0.34 0.67,0.7 v 1.56 z m 13.71,-2 c 0,-1.27 -1.04,-2.32 -2.33,-2.32 h -1.87 c -1.3,0 -2.33,1.05 -2.33,2.32 v 1.47 h 2.09 v -1.06 c 0,-0.33 0.33,-0.67 0.69,-0.67 h 0.87 c 0.38,0 0.64,0.34 0.64,0.67 v 0.67 c 0,0.32 -0.09,0.58 -0.4,0.72 l -3,1.18 c -0.68,0.26 -1.08,0.84 -1.08,1.66 v 1.32 c 0,1.24 1.05,2.3 2.32,2.3 h 0.68 c 0.74,0 1.24,-0.43 1.56,-0.74 l 0.12,0.5 h 2.04 z m -2.24,5.4 c 0,0.41 -0.36,0.82 -0.76,0.82 h -0.92 c -0.4,0 -0.64,-0.36 -0.64,-0.67 v -0.67 c 0,-0.29 0.07,-0.48 0.36,-0.63 l 1.68,-0.69 c 0.16,-0.08 0.26,-0.2 0.28,-0.2 z M 118.32,0 v -7.37 c 0,-0.43 0.34,-0.84 0.77,-0.84 h 0.93 c 0.39,0 0.68,0.34 0.68,0.72 V 0 h 2.28 v -8.04 c 0,-1.27 -1.01,-2.3 -2.28,-2.3 h -0.89 c -0.75,0 -1.3,0.5 -1.56,0.84 l -0.12,-0.6 h -2.11 V 0 Z"
         id="path30"
         inkscape:connector-curvature="0" /></g></g><text
     xml:space="preserve"
     style="font-style:normal;font-weight:normal;font-size:60.58615112px;line-height:1.25;font-family:sans-serif;letter-spacing:0px;word-spacing:0px;fill:#000000;fill-opacity:1;stroke:none;stroke-width:1.5146538"
     x="128.02841"
     y="280.19873"
     id="text3765"
     transform="scale(1.0333135,0.96776048)"><tspan
       sodipodi:role="line"
       id="tspan3763"
       x="128.02841"
       y="280.19873"
       style="stroke-width:1.5146538">한</tspan></text>
</svg>