<?xml version="1.0" encoding="UTF-8" standalone="no"?>
<svg
   xmlns:dc="http://purl.org/dc/elements/1.1/"
   xmlns:cc="http://creativecommons.org/ns#"
   xmlns:rdf="http://www.w3.org/1999/02/22-rdf-syntax-ns#"
   xmlns:svg="http://www.w3.org/2000/svg"
   xmlns="http://www.w3.org/2000/svg"
   xmlns:xlink="http://www.w3.org/1999/xlink"
   xmlns:sodipodi="http://sodipodi.sourceforge.net/DTD/sodipodi-0.dtd"
   xmlns:inkscape="http://www.inkscape.org/namespaces/inkscape"
   version="1.1"
   height="100%"
   width="100%"
   x="0px"
   y="0px"
   viewBox="0 0 640 480"
   xml:space="preserve"
   preserveAspectRatio="xMidYMid meet"
   class=""
   id="svg39"
   sodipodi:docname="color_logo4.svg"
   inkscape:version="0.92.2 5c3e80d, 2017-08-06"><metadata
     id="metadata43"><rdf:RDF><cc:Work
         rdf:about=""><dc:format>image/svg+xml</dc:format><dc:type
           rdf:resource="http://purl.org/dc/dcmitype/StillImage" /><dc:title></dc:title></cc:Work></rdf:RDF></metadata><sodipodi:namedview
     pagecolor="#ffffff"
     bordercolor="#666666"
     borderopacity="1"
     objecttolerance="10"
     gridtolerance="10"
     guidetolerance="10"
     inkscape:pageopacity="0"
     inkscape:pageshadow="2"
     inkscape:window-width="3132"
     inkscape:window-height="1640"
     id="namedview41"
     showgrid="false"
     inkscape:zoom="3.0479167"
     inkscape:cx="418.53521"
     inkscape:cy="148.74207"
     inkscape:window-x="22"
     inkscape:window-y="40"
     inkscape:window-maximized="0"
     inkscape:current-layer="svg39"
     inkscape:snap-nodes="true" /><defs
     id="defs7"><linearGradient
       id="textGradient3904579687"><stop
         offset="0.05"
         stop-color="#B68648"
         id="stop2" /><stop
         offset="0.95"
         stop-color="#FBF3A3"
         id="stop4" /></linearGradient><linearGradient
       inkscape:collect="always"
       xlink:href="#iconGradient3904579687"
       id="linearGradient3894"
       gradientTransform="matrix(0.90169031,0,0,0.93827273,197.51011,195.32346)"
       x1="-50.534138"
       y1="8.8228048"
       x2="97.851783"
       y2="8.8228048"
       gradientUnits="userSpaceOnUse" /><linearGradient
       inkscape:collect="always"
       xlink:href="#textGradient3904579687"
       id="linearGradient3900"
       gradientTransform="scale(1.7032889,0.58709947)"
       x1="3.8865985"
       y1="-88.298496"
       x2="115.24763"
       y2="-88.298496"
       gradientUnits="userSpaceOnUse" /><linearGradient
       inkscape:collect="always"
       xlink:href="#textGradient3904579687"
       id="linearGradient3902"
       gradientTransform="scale(1.7032889,0.58709947)"
       x1="3.8865985"
       y1="-88.298496"
       x2="115.24763"
       y2="-88.298496"
       gradientUnits="userSpaceOnUse" /></defs><defs
     id="defs14"><linearGradient
       id="iconGradient3904579687"><stop
         offset="0.05"
         stop-color="#B68648"
         id="stop9" /><stop
         offset="0.95"
         stop-color="#FBF3A3"
         id="stop11" /></linearGradient></defs><rect
     x="186.13603"
     y="192.96675"
     width="42.071091%"
     height="18.865349%"
     id="rect16"
     style="fill:#4d2d89;stroke-width:0.28172427" /><path
     sodipodi:nodetypes="ssscscsccccccccccccccccccccccccccccccsccccccccccccc"
     style="clip-rule:evenodd;fill:url(#linearGradient3894);fill-rule:evenodd;stroke-width:0.91979969"
     inkscape:connector-curvature="0"
     id="path18"
     d="m 249.76301,221.44209 c 4.88781,0 8.88526,-3.99469 8.88526,-8.88618 0,-4.95956 -3.99745,-8.95425 -8.88526,-8.95425 -3.58354,0 -6.75133,2.13485 -8.12919,5.23458 -0.55096,1.10192 -0.82598,2.41079 -0.82598,3.71967 0,1.30795 0.27502,2.54784 0.82598,3.71875 1.37694,3.03166 4.54473,5.16743 8.12919,5.16743 z m 10.69727,35.26604 c 1.18378,-3.07489 1.93986,-6.067 3.12916,-9.29825 -4.06368,0 -6.41377,-0.1343 -10.42133,-0.0285 -3.16871,0 -4.50886,1.81845 -5.5418,4.02321 -1.99596,5.23366 -3.99469,10.53722 -5.99341,15.7718 -0.99798,2.72997 -2.0953,5.50132 -3.10064,8.23405 h 10.98884 c 2.20568,-6.457 4.38009,-12.46697 6.95553,-18.70229 z m 24.33238,-12.47708 c -0.28606,-0.70825 -0.61075,-1.3981 -0.95383,-2.07875 -0.20512,-0.40839 -1.23253,-1.77245 -1.15343,-2.18268 0.82782,-4.27063 1.77521,-8.56058 2.60119,-12.83121 0.69537,-3.36555 -0.7386,-5.47649 -2.73456,-6.30339 -2.61775,-1.10192 -4.20533,-1.73474 -6.75317,-2.83666 -1.10284,-0.48197 -2.20568,-0.96487 -3.37567,-1.44592 -3.37566,-1.6538 -5.65033,-2.09899 -9.02415,0.20603 -6.33834,3.99469 -13.41436,8.54862 -19.75178,12.61321 0.82782,-2.20384 2.1137,-4.89793 2.94244,-7.10361 -1.72278,-0.6181 -3.23402,-1.30703 -4.9568,-1.99596 -0.27502,-0.13797 -0.55096,-0.20696 -0.82598,-0.34493 l -0.13705,0.34493 c -1.96653,4.15565 -4.51714,9.18604 -6.03389,13.31778 -1.00442,3.14111 2.41724,5.59974 5.51328,4.59807 0.069,0 9.68089,-4.41595 13.60568,-6.13782 4.4086,5.02763 8.74729,10.12516 13.15405,15.1537 -2.20292,1.37694 -2.69133,1.75958 -3.71691,4.88966 -2.7272,7.77322 -5.45441,15.54645 -8.18161,23.31876 h 11.46622 l 6.55909,-18.47234 c 0.68801,0.069 2.00516,0.18304 2.76308,0.18304 2.17716,0 4.30282,0.0598 6.27671,-1.02834 4.24764,-2.34273 4.28535,-7.93327 2.71709,-11.86357 z m -4.24212,1.04305 h -6.8893 l 2.13762,-11.36504 0.34308,-1.72095 -0.34308,-0.48197 -4.82343,-6.8893 4.82343,1.17182 2.54784,0.55096 -3.22665,17.77881 5.43969,0.007 z" /><g
     style="fill:url(#linearGradient3902)"
     id="g28"
     transform="matrix(0.84,0,0,0.84,284.8376,242.0244)"
     class="logo--name svgLogoName_1 logoNameBox"><path
       inkscape:connector-curvature="0"
       style="fill:url(#linearGradient3900)"
       id="path26"
       d="m 23.76,-49.39 v 0 q 6.19,0 10.8,2.7 v 0 0 q 4.61,2.7 7.13,7.7 v 0 0 q 2.52,5.01 2.52,11.77 v 0 5.04 0 q 0,6.77 -2.52,11.78 v 0 0 q -2.52,5 -7.13,7.7 v 0 0 Q 29.95,0 23.76,0 V 0 H 6.62 v -49.39 z m 0,6.41 H 13.68 v 36.57 h 10.08 v 0 q 6.41,0 9.9,-3.99 v 0 0 q 3.49,-4 3.49,-11.78 v 0 -5.04 0 q 0,-7.63 -3.42,-11.7 v 0 0 q -3.42,-4.06 -9.97,-4.06 z m 31.67,-8.86 h 7.06 v 6.26 h -7.06 z m 0.15,15.05 h 6.76 V 0 h -6.76 z m 53.41,-6.63 v 0 q 0,3.68 -1.94,6.16 v 0 0 q -1.95,2.48 -5.4,3.2 v 0 l -0.15,0.22 v 0 q 3.6,3.17 3.6,7.92 v 0 0 q 0,5.18 -3.88,8.35 v 0 0 q -3.89,3.17 -10.59,3.17 v 0 h -4.89 v 0 q -2.16,0 -3.6,1.12 v 0 0 q -1.44,1.11 -1.44,2.84 v 0 0 q 0,1.73 1.36,2.74 v 0 0 q 1.37,1 3.68,1 v 0 h 13.89 v 0 q 4.25,0 6.81,2.67 v 0 0 q 2.55,2.66 2.55,6.77 v 0 0 q 0,4.89 -3.71,7.84 v 0 0 q -3.7,2.96 -9.97,2.96 v 0 H 80.84 v 0 q -2.45,0 -4.5,-1.3 v 0 0 Q 74.29,10.94 73.1,8.96 v 0 0 Q 71.91,6.98 71.91,4.9 v 0 0 q 0,-3.03 1.48,-5.26 v 0 0 q 1.47,-2.23 3.92,-3.31 v 0 0 Q 74,-5.69 74,-9.65 v 0 0 q 0,-2.59 1.51,-4.46 v 0 0 q 1.51,-1.87 4.25,-2.81 v 0 0 q -4.82,-2.66 -4.82,-9 v 0 0 q 0,-5.33 3.92,-8.46 v 0 0 q 3.92,-3.13 10.91,-3.13 v 0 h 0.29 v 0 q 4.03,0 7.34,1.22 v 0 0 q 5.11,-2.52 5.83,-7.13 v 0 z m -19.01,11.31 v 0 q -3.81,0 -6.08,1.47 v 0 0 q -2.27,1.48 -2.27,4.72 v 0 0 q 0,3.24 2.27,4.68 v 0 0 q 2.27,1.44 6.08,1.44 v 0 0 q 3.82,0 6.12,-1.44 v 0 0 q 2.31,-1.44 2.31,-4.68 v 0 0 q 0,-3.24 -2.31,-4.72 v 0 0 q -2.3,-1.47 -6.12,-1.47 z m 7.64,31.89 H 82.78 v 0 q -1.72,0 -2.95,1.23 v 0 0 q -1.22,1.22 -1.22,2.95 v 0 0 q 0,1.73 1.22,2.95 v 0 0 q 1.23,1.23 2.95,1.23 v 0 h 13.9 v 0 q 2.3,0 3.96,-1.34 v 0 0 q 1.66,-1.33 1.66,-3.06 v 0 0 q 0,-1.8 -1.23,-2.88 v 0 0 q -1.22,-1.08 -3.45,-1.08 z m 19.86,-51.62 h 6.77 V 0 h -6.77 z m 34.7,14.33 v 0 q 7.7,0 12.31,4.75 v 0 0 q 4.61,4.75 4.61,13.03 v 0 2.67 0 q 0,8.28 -4.54,13.03 v 0 0 q -4.54,4.75 -12.38,4.75 v 0 0 q -7.85,0 -12.39,-4.75 v 0 0 q -4.53,-4.75 -4.53,-13.03 v 0 -2.67 0 q 0,-8.28 4.6,-13.03 v 0 0 q 4.61,-4.75 12.32,-4.75 z m 0,5.4 v 0 q -4.83,0 -7.49,3.31 v 0 0 q -2.67,3.31 -2.67,9.72 v 0 1.37 0 q 0,6.26 2.63,9.65 v 0 0 q 2.63,3.38 7.53,3.38 v 0 0 q 4.75,0 7.45,-3.35 v 0 0 q 2.7,-3.35 2.7,-9.68 v 0 -1.37 0 q 0,-6.26 -2.63,-9.65 v 0 0 q -2.63,-3.38 -7.52,-3.38 z m 35.56,-16.42 v 11.74 h 8.56 v 5.4 h -8.56 v 21.96 0 q 0,2.59 1,3.74 v 0 0 q 1.01,1.15 3.1,1.15 v 0 0 q 1.87,0 4.46,-1.08 v 0 5.04 0 q -2.59,1.3 -6.69,1.3 v 0 0 q -4.25,0 -6.45,-2.52 v 0 0 q -2.19,-2.52 -2.19,-7.99 v 0 -21.6 h -4.03 v -5.4 h 4.24 l 2.31,-11.74 z" /></g><g
     style="fill:#ffffff"
     transform="matrix(1.3183231,0,0,1.0463692,288.0678,275.00783)"
     class="logo--name svgSloganText_1 sloganBox"
     id=""><path
       inkscape:connector-curvature="0"
       id="path30"
       d="M 1.68,0 H 8.54 V -2.23 H 4.1 v -11.4 H 1.68 Z m 8.42,-2.02 c 0,1.25 1.01,2.26 2.28,2.26 h 2.21 c 1.27,0 2.28,-1.01 2.28,-2.26 v -1.36 h -2.09 v 0.86 c 0,0.36 -0.28,0.72 -0.67,0.72 h -1.15 c -0.38,0 -0.67,-0.36 -0.67,-0.72 v -2.04 h 4.58 v -3.5 c 0,-1.25 -1.01,-2.28 -2.28,-2.28 h -2.21 c -1.27,0 -2.28,1.03 -2.28,2.28 z m 2.19,-4 v -1.56 c 0,-0.36 0.29,-0.7 0.67,-0.7 h 1.15 c 0.39,0 0.67,0.34 0.67,0.7 v 1.56 z m 13.7,-2 c 0,-1.27 -1.03,-2.32 -2.33,-2.32 h -1.87 c -1.29,0 -2.33,1.05 -2.33,2.32 v 1.47 h 2.09 v -1.06 c 0,-0.33 0.34,-0.67 0.7,-0.67 h 0.86 c 0.39,0 0.65,0.34 0.65,0.67 v 0.67 c 0,0.32 -0.1,0.58 -0.41,0.72 l -3,1.18 c -0.67,0.26 -1.08,0.84 -1.08,1.66 v 1.32 c 0,1.24 1.06,2.3 2.33,2.3 h 0.67 c 0.75,0 1.25,-0.43 1.56,-0.74 L 23.95,0 h 2.04 z m -2.23,5.4 c 0,0.41 -0.36,0.82 -0.77,0.82 h -0.91 c -0.41,0 -0.65,-0.36 -0.65,-0.67 v -0.67 c 0,-0.29 0.07,-0.48 0.36,-0.63 l 1.68,-0.69 c 0.17,-0.08 0.27,-0.2 0.29,-0.2 z M 30.91,0 v -7.27 c 0,-0.46 0.36,-0.84 0.79,-0.84 h 1.35 v -2.14 H 32.4 c -0.72,0 -1.3,0.48 -1.54,0.82 L 30.72,-10.1 H 28.63 V 0 Z m 6,0 v -7.37 c 0,-0.43 0.34,-0.84 0.77,-0.84 h 0.94 c 0.38,0 0.67,0.34 0.67,0.72 V 0 h 2.28 v -8.04 c 0,-1.27 -1.01,-2.3 -2.28,-2.3 H 38.4 c -0.74,0 -1.3,0.5 -1.56,0.84 l -0.12,-0.6 H 34.61 V 0 Z m 9.82,0 V -10.1 H 44.45 V 0 Z M 46.7,-11.76 v -1.87 h -2.25 v 1.87 z M 51.91,0 v -7.37 c 0,-0.43 0.34,-0.84 0.77,-0.84 h 0.94 c 0.38,0 0.67,0.34 0.67,0.72 V 0 h 2.28 v -8.04 c 0,-1.27 -1.01,-2.3 -2.28,-2.3 H 53.4 c -0.74,0 -1.3,0.5 -1.56,0.84 l -0.12,-0.6 H 49.61 V 0 Z m 6.94,3.12 c 0,1.3 1.03,2.33 2.3,2.33 h 2.19 c 1.29,0 2.3,-1.03 2.3,-2.33 V 0.89 c 0,-0.99 -0.55,-1.59 -1.58,-1.97 l -2.55,-0.94 c -0.31,-0.12 -0.57,-0.24 -0.57,-0.6 0,-0.16 0.07,-0.31 0.16,-0.43 0.08,0 0.15,0.03 0.22,0.03 h 1.42 c 1.29,0 2.3,-1.06 2.3,-2.33 v -2.4 c 0,-0.36 -0.17,-0.67 -0.34,-0.79 l 0.77,-0.15 v -1.41 h -4.32 c -1.29,0 -2.3,1.05 -2.3,2.32 v 2.43 c 0,0.79 0.38,1.46 0.98,1.89 -0.26,0.29 -0.45,0.68 -0.45,1.13 0,0.82 0.52,1.18 1.1,1.47 l -0.6,0.55 c -0.6,0.57 -1.03,1.01 -1.03,1.92 z m 2.16,-10.49 c 0,-0.33 0.26,-0.67 0.67,-0.67 h 0.53 c 0.41,0 0.67,0.34 0.67,0.67 v 1.83 c 0,0.33 -0.26,0.64 -0.67,0.64 h -0.53 c -0.41,0 -0.67,-0.31 -0.67,-0.64 z m 0.48,10.75 c -0.39,0 -0.7,-0.33 -0.7,-0.72 V 1.37 c 0,-0.39 0.17,-0.55 0.48,-0.87 l 0.6,-0.6 1.2,0.65 c 0.24,0.07 0.41,0.34 0.41,0.58 v 1.53 c 0,0.39 -0.31,0.72 -0.7,0.72 z M 72.36,0 h 2.4 V -5.93 L 78.24,0 h 2.66 l -4.03,-6.94 3.94,-6.69 h -2.5 l -3.55,6.05 v -6.05 h -2.4 z m 9.62,-2.02 c 0,1.25 1.01,2.26 2.26,2.26 h 2.35 c 1.27,0 2.28,-1.01 2.28,-2.26 v -6.04 c 0,-1.25 -1.01,-2.28 -2.28,-2.28 h -2.35 c -1.25,0 -2.26,1.03 -2.26,2.28 z m 2.19,-0.5 v -5.06 c 0,-0.36 0.29,-0.7 0.65,-0.7 h 1.2 c 0.38,0 0.67,0.34 0.67,0.7 v 5.06 c 0,0.36 -0.29,0.72 -0.67,0.72 h -1.2 c -0.36,0 -0.65,-0.36 -0.65,-0.72 z M 93.79,0 v -7.27 c 0,-0.46 0.36,-0.84 0.79,-0.84 h 1.35 v -2.14 h -0.65 c -0.72,0 -1.3,0.48 -1.54,0.82 L 93.6,-10.1 H 91.51 V 0 Z m 3.7,-2.02 c 0,1.25 1.01,2.26 2.28,2.26 h 2.21 c 1.27,0 2.28,-1.01 2.28,-2.26 v -1.36 h -2.09 v 0.86 c 0,0.36 -0.29,0.72 -0.67,0.72 h -1.16 c -0.38,0 -0.67,-0.36 -0.67,-0.72 v -2.04 h 4.59 v -3.5 c 0,-1.25 -1.01,-2.28 -2.28,-2.28 h -2.21 c -1.27,0 -2.28,1.03 -2.28,2.28 z m 2.18,-4 v -1.56 c 0,-0.36 0.29,-0.7 0.67,-0.7 h 1.16 c 0.38,0 0.67,0.34 0.67,0.7 v 1.56 z m 13.71,-2 c 0,-1.27 -1.04,-2.32 -2.33,-2.32 h -1.87 c -1.3,0 -2.33,1.05 -2.33,2.32 v 1.47 h 2.09 v -1.06 c 0,-0.33 0.33,-0.67 0.69,-0.67 h 0.87 c 0.38,0 0.64,0.34 0.64,0.67 v 0.67 c 0,0.32 -0.09,0.58 -0.4,0.72 l -3,1.18 c -0.68,0.26 -1.08,0.84 -1.08,1.66 v 1.32 c 0,1.24 1.05,2.3 2.32,2.3 h 0.68 c 0.74,0 1.24,-0.43 1.56,-0.74 l 0.12,0.5 h 2.04 z m -2.24,5.4 c 0,0.41 -0.36,0.82 -0.76,0.82 h -0.92 c -0.4,0 -0.64,-0.36 -0.64,-0.67 v -0.67 c 0,-0.29 0.07,-0.48 0.36,-0.63 l 1.68,-0.69 c 0.16,-0.08 0.26,-0.2 0.28,-0.2 z M 118.32,0 v -7.37 c 0,-0.43 0.34,-0.84 0.77,-0.84 h 0.93 c 0.39,0 0.68,0.34 0.68,0.72 V 0 h 2.28 v -8.04 c 0,-1.27 -1.01,-2.3 -2.28,-2.3 h -0.89 c -0.75,0 -1.3,0.5 -1.56,0.84 l -0.12,-0.6 h -2.11 V 0 Z" /></g><text
     xml:space="preserve"
     style="font-style:normal;font-weight:normal;font-size:61.09242249px;line-height:1.25;font-family:sans-serif;letter-spacing:0px;word-spacing:0px;fill:#e8d68b;fill-opacity:1;stroke:none;stroke-width:1.52731049"
     x="183.05292"
     y="274.68381"
     id="text47"
     transform="scale(1.0071072,0.99294297)"><tspan
       sodipodi:role="line"
       id="tspan45"
       x="183.05292"
       y="274.68381"
       style="stroke-width:1.52731049">한</tspan></text>
</svg>