<?xml version="1.0" encoding="UTF-8" standalone="no"?>
<svg
   xmlns:dc="http://purl.org/dc/elements/1.1/"
   xmlns:cc="http://creativecommons.org/ns#"
   xmlns:rdf="http://www.w3.org/1999/02/22-rdf-syntax-ns#"
   xmlns:svg="http://www.w3.org/2000/svg"
   xmlns="http://www.w3.org/2000/svg"
   xmlns:xlink="http://www.w3.org/1999/xlink"
   xmlns:sodipodi="http://sodipodi.sourceforge.net/DTD/sodipodi-0.dtd"
   xmlns:inkscape="http://www.inkscape.org/namespaces/inkscape"
   version="1.1"
   height="100%"
   width="100%"
   x="0px"
   y="0px"
   viewBox="0 0 640 480"
   xml:space="preserve"
   preserveAspectRatio="xMidYMid meet"
   class=""
   id="svg39"
   sodipodi:docname="color_logo2.svg"
   inkscape:version="0.92.2 5c3e80d, 2017-08-06"
   inkscape:export-filename="/MacosExt/Users/larpoux/Downloads/download (11)/png/spot-29.png"
   inkscape:export-xdpi="19.674566"
   inkscape:export-ydpi="19.674566"><metadata
     id="metadata43"><rdf:RDF><cc:Work
         rdf:about=""><dc:format>image/svg+xml</dc:format><dc:type
           rdf:resource="http://purl.org/dc/dcmitype/StillImage" /><dc:title /></cc:Work></rdf:RDF></metadata><sodipodi:namedview
     pagecolor="#ffffff"
     bordercolor="#666666"
     borderopacity="1"
     objecttolerance="10"
     gridtolerance="10"
     guidetolerance="10"
     inkscape:pageopacity="0"
     inkscape:pageshadow="2"
     inkscape:window-width="1842"
     inkscape:window-height="1392"
     id="namedview41"
     showgrid="false"
     inkscape:zoom="2.2924825"
     inkscape:cx="232.52481"
     inkscape:cy="217.81481"
     inkscape:window-x="1084"
     inkscape:window-y="243"
     inkscape:window-maximized="0"
     inkscape:current-layer="svg39" /><defs
     id="defs7"><linearGradient
       id="textGradient3904579687"><stop
         offset="0.05"
         stop-color="#B68648"
         id="stop2" /><stop
         offset="0.95"
         stop-color="#FBF3A3"
         id="stop4" /></linearGradient><linearGradient
       inkscape:collect="always"
       xlink:href="#iconGradient3904579687"
       id="linearGradient832"
       gradientTransform="scale(0.98031164,1.0200838)"
       x1="-50.534138"
       y1="8.8228048"
       x2="97.851783"
       y2="8.8228048"
       gradientUnits="userSpaceOnUse" /><linearGradient
       inkscape:collect="always"
       xlink:href="#iconGradient3904579687"
       id="linearGradient834"
       gradientTransform="scale(0.98031164,1.0200838)"
       x1="-50.534138"
       y1="8.8228048"
       x2="97.851783"
       y2="8.8228048"
       gradientUnits="userSpaceOnUse" /><linearGradient
       inkscape:collect="always"
       xlink:href="#iconGradient3904579687"
       id="linearGradient836"
       gradientTransform="scale(0.98031164,1.0200838)"
       x1="-50.534138"
       y1="8.8228048"
       x2="97.851783"
       y2="8.8228048"
       gradientUnits="userSpaceOnUse" /></defs><defs
     id="defs14"><linearGradient
       id="iconGradient3904579687"><stop
         offset="0.05"
         stop-color="#B68648"
         id="stop9" /><stop
         offset="0.95"
         stop-color="#FBF3A3"
         id="stop11" /></linearGradient></defs><rect
     x="177.10059"
     y="191.18719"
     width="15.379532%"
     height="20.547083%"
     id="rect16"
     style="fill:#4d2d89;stroke-width:0.1777651"
     inkscape:export-filename="/MacosExt/Users/larpoux/Downloads/download (11)/png/zozo44.png"
     inkscape:export-xdpi="42.914173"
     inkscape:export-ydpi="42.914173" /><g
     class="sampleIconBox"
     id="g24"
     transform="matrix(0.84,0,0,0.84,123.74239,38.399994)"><g
       class="sampleIcons_1"
       transform="matrix(1.0949996,0,0,1.0949996,74.161902,187.05488)"
       id="g22"
       style="fill:url(#linearGradient836)"><g
         id="g20"
         style="fill:url(#linearGradient834)"><path
           d="m 56.809,28.396 c 5.314,0 9.66,-4.343 9.66,-9.661 0,-5.392 -4.346,-9.735 -9.66,-9.735 -3.896,0 -7.34,2.321 -8.838,5.691 -0.599,1.198 -0.898,2.621 -0.898,4.044 0,1.422 0.299,2.77 0.898,4.043 1.497,3.296 4.941,5.618 8.838,5.618 z m 11.63,38.341 c 1.287,-3.343 2.109,-6.596 3.402,-10.109 -4.418,0 -6.973,-0.146 -11.33,-0.031 -3.445,0 -4.902,1.977 -6.025,4.374 -2.17,5.69 -4.343,11.456 -6.516,17.147 -1.085,2.968 -2.278,5.981 -3.371,8.952 h 11.947 c 2.398,-7.02 4.762,-13.554 7.562,-20.333 z M 94.893,53.172 c -0.311,-0.77 -0.664,-1.52 -1.037,-2.26 -0.223,-0.444 -1.34,-1.927 -1.254,-2.373 0.9,-4.643 1.93,-9.307 2.828,-13.95 0.756,-3.659 -0.803,-5.954 -2.973,-6.853 -2.846,-1.198 -4.572,-1.886 -7.342,-3.084 -1.199,-0.524 -2.398,-1.049 -3.67,-1.572 -3.67,-1.798 -6.143,-2.282 -9.811,0.224 -6.891,4.343 -14.584,9.294 -21.474,13.713 0.9,-2.396 2.298,-5.325 3.199,-7.723 -1.873,-0.672 -3.516,-1.421 -5.389,-2.17 -0.299,-0.15 -0.599,-0.225 -0.898,-0.375 l -0.149,0.375 c -2.138,4.518 -4.911,9.987 -6.56,14.479 -1.092,3.415 2.628,6.088 5.994,4.999 0.075,0 10.525,-4.801 14.792,-6.673 4.793,5.466 9.51,11.008 14.301,16.475 -2.395,1.497 -2.926,1.913 -4.041,5.316 -2.965,8.451 -5.93,16.902 -8.895,25.352 H 74.98 l 7.131,-20.083 c 0.748,0.075 2.18,0.199 3.004,0.199 2.367,0 4.678,0.065 6.824,-1.118 4.618,-2.547 4.659,-8.625 2.954,-12.898 z m -4.612,1.134 h -7.49 l 2.324,-12.356 0.373,-1.871 -0.373,-0.524 -5.244,-7.49 5.244,1.274 2.77,0.599 -3.508,19.329 5.914,0.008 z M 46.026,67.184 c -165.52379,161.39608 -82.761894,80.69804 0,0 z"
           id="path18"
           inkscape:connector-curvature="0"
           style="clip-rule:evenodd;fill:url(#linearGradient832);fill-rule:evenodd"
           sodipodi:nodetypes="ssscscsccccccccccccccccccccccccccccccsccccccccccccccc" /></g></g></g><text
     xml:space="preserve"
     style="font-style:normal;font-weight:normal;font-size:61.09242249px;line-height:1.25;font-family:sans-serif;letter-spacing:0px;word-spacing:0px;fill:#e8d68b;fill-opacity:1;stroke:none;stroke-width:1.52731049"
     x="172.30226"
     y="274.68381"
     id="text47"
     transform="scale(1.0071072,0.99294299)"><tspan
       sodipodi:role="line"
       id="tspan45"
       x="172.30226"
       y="274.68381"
       style="stroke-width:1.52731049">한</tspan></text>
<text
     xml:space="preserve"
     style="font-style:normal;font-weight:normal;font-size:40px;line-height:1.25;font-family:sans-serif;letter-spacing:0px;word-spacing:0px;fill:#000000;fill-opacity:1;stroke:none"
     x="91.167542"
     y="325.14603"
     id="text863"><tspan
       sodipodi:role="line"
       id="tspan861"
       x="91.167542"
       y="360.53665"></tspan></text>
</svg>