<svg version="1.1" xmlns="http://www.w3.org/2000/svg" xmlns:xlink="http://www.w3.org/1999/xlink" xmlns:i="http://ns.adobe.com/AdobeIllustrator/10.0/" xmlns:sketch="http://www.bohemiancoding.com/sketch/ns" height="100%" width="100%" x="0px" y="0px" viewBox="0 0 640 480" xml:space="preserve" preserveAspectRatio="xMidYMid meet" class=""><defs><linearGradient id="textGradient1849890715"><stop offset="0.05" stop-color="#B68648" /><stop offset="0.95" stop-color="#FBF3A3" /></linearGradient></defs><defs><linearGradient id="iconGradient1849890715"><stop offset="0.05" stop-color="#B68648" /><stop offset="0.95" stop-color="#FBF3A3" /></linearGradient></defs><rect x="0px" y="0px" width="100%" height="100%" fill="#000000"/><g class="logo-container-box logoContainerBox" transform="scale(0.75) translate(106.66665140787762,79.99999237060547)"><g class="containerBody" transform="scale(1.12) translate(43.94458661760598,-25.714285714285722)" ><g class="sampleIconBox" transform="scale(1) translate(0,0)"><g class="sampleIcons_1" transform="scale(1.0949996031762608) translate(67.72778921127318,170.826434135437)" fill="url(#iconGradient1849890715)"><g><path fill-rule="evenodd" clip-rule="evenodd" d="M56.809,28.396c5.314,0,9.66-4.343,9.66-9.661c0-5.392-4.346-9.735-9.66-9.735   c-3.896,0-7.34,2.321-8.838,5.691c-0.599,1.198-0.898,2.621-0.898,4.044c0,1.422,0.299,2.77,0.898,4.043   C49.468,26.074,52.912,28.396,56.809,28.396z M68.439,66.737c1.287-3.343,2.109-6.596,3.402-10.109   c-4.418,0-6.973-0.146-11.33-0.031c-3.445,0-4.902,1.977-6.025,4.374c-2.17,5.69-4.343,11.456-6.516,17.147   c-1.085,2.968-2.278,5.981-3.371,8.952h11.947c2.398-7.02,4.762-13.554,7.562-20.333H68.439z M94.893,53.172   c-0.311-0.77-0.664-1.52-1.037-2.26c-0.223-0.444-1.34-1.927-1.254-2.373c0.9-4.643,1.93-9.307,2.828-13.95   c0.756-3.659-0.803-5.954-2.973-6.853c-2.846-1.198-4.572-1.886-7.342-3.084c-1.199-0.524-2.398-1.049-3.67-1.572   c-3.67-1.798-6.143-2.282-9.811,0.224c-6.891,4.343-14.584,9.294-21.474,13.713c0.9-2.396,2.298-5.325,3.199-7.723   c-1.873-0.672-3.516-1.421-5.389-2.17c-0.299-0.15-0.599-0.225-0.898-0.375l-0.149,0.375c-2.138,4.518-4.911,9.987-6.56,14.479   c-1.092,3.415,2.628,6.088,5.994,4.999c0.075,0,10.525-4.801,14.792-6.673c4.793,5.466,9.51,11.008,14.301,16.475   c-2.395,1.497-2.926,1.913-4.041,5.316c-2.965,8.451-5.93,16.902-8.895,25.352H74.98l7.131-20.083   c0.748,0.075,2.18,0.199,3.004,0.199c2.367,0,4.678,0.065,6.824-1.118C96.557,63.523,96.598,57.445,94.893,53.172z M90.281,54.306   h-7.49l2.324-12.356l0.373-1.871l-0.373-0.524l-5.244-7.49l5.244,1.274l2.77,0.599l-3.508,19.329l5.914,0.008L90.281,54.306z    M43.104,55.879c1.573,0.225,3.22,0.523,4.867,0.824c0.697,0.115,1.35,0.23,2.026,0.348l2.269-7.548   c-1.597-0.353-31.729-6.375-45.482-9.127l-2.183,7.221c2.719,0.642,4.846,1.173,7.575,1.841c-0.824,0.524-1.571,1.124-2.394,1.647   c1.796,2.021,3.518,4.043,5.316,6.066c3.07-3.146,6.665-4.568,10.784-4.195c7.338,1.199,12.729,5.317,12.58,13.854   c0.133,7.967-7.587,13.511-13.479,13.703c-3.71-0.043-7.113-2.171-10.109-4.194c-1.871,1.424-3.744,2.848-5.616,4.194   c3.295,4.345,8.088,7.265,16.249,7.189c13.287-1.344,19.276-9.361,20.519-20.518C46.53,62.438,45.051,59.398,43.104,55.879z"></path></g></g></g><g class="sampleTexts_1" transform="scale(1) translate(0.000006103515630684342,24.39215087890625)"><g class="logo--name svgLogoName_1 logoNameBox" transform="scale(1) translate(198.4,217.1065216064453)" fill="url(#textGradient1849890715)"><path d="M44.78-29.23L44.78-29.23L44.78-29.23Q44.50-26.14 43.67-22.90L43.67-22.90L43.67-22.90Q42.84-19.66 41.29-16.56L41.29-16.56L41.29-16.56Q39.74-13.46 37.62-10.58L37.62-10.58L37.62-10.58Q35.50-7.70 32.90-5.26L32.90-5.26L32.90-5.26Q30.31-2.81 27.36-1.15L27.36-1.15L27.36-1.15Q21.02 2.59 15.12 1.51L15.12 1.51L15.12 1.51Q13.82 4.32 11.27 5.08L11.27 5.08L11.27 5.08Q8.71 5.83 6.23 5.08L6.23 5.08L6.23 5.08Q3.74 4.32 1.87 2.23L1.87 2.23L1.87 2.23Q0 0.14 0-3.49L0-3.49L0-3.49Q0-7.13 0.50-10.94L0.50-10.94L0.50-10.94Q1.01-14.76 1.87-18.29L1.87-18.29L1.87-18.29Q3.24-24.12 5.26-29.23L5.26-29.23L5.26-29.23Q10.01-40.82 10.66-45.50L10.66-45.50L10.66-45.50Q11.59-51.77 14.11-53.28L14.11-53.28L14.11-53.28Q18.29-55.73 22.03-55.37L22.03-55.37L22.03-55.37Q25.78-55.01 28.80-53.57L28.80-53.57L28.80-53.57Q33.77-51.19 39.53-45.58L39.53-45.58L39.53-45.58Q45.86-39.46 44.78-29.23ZM16.78-10.37L16.49-7.63L16.49-7.63Q20.16-9.50 22.43-11.48L22.43-11.48L22.43-11.48Q24.70-13.46 26.71-15.12L26.71-15.12L26.71-15.12Q29.81-18.22 31.25-22.46L31.25-22.46L31.25-22.46Q34.42-31.82 27.22-36.65L27.22-36.65L27.22-36.65Q26.14-37.44 23.98-38.81L23.98-38.81L23.98-38.81Q22.97-36.50 22.50-33.98L22.50-33.98L22.50-33.98Q22.03-31.46 21.24-29.09L21.24-29.09L19.30-22.75L17.71-15.91L17.71-15.91Q17.57-14.47 17.28-13.14L17.28-13.14L17.28-13.14Q16.99-11.81 16.78-10.37L16.78-10.37ZM53.27-31.18L53.27-31.18L53.27-31.18Q54.21-33.55 57.74-34.42L57.74-34.42L57.74-34.42Q61.05-35.28 63.93-34.20L63.93-34.20L63.93-34.20Q66.88-33.05 66.59-30.46L66.59-30.46L66.59-30.46Q65.80-27.94 64.61-24.30L64.61-24.30L64.61-24.30Q63.42-20.66 62.34-16.85L62.34-16.85L62.34-16.85Q59.46-7.06 59.03-3.02L59.03-3.02L59.03-3.02Q57.95 3.46 55.43 3.96L55.43 3.96L55.43 3.96Q54.71 4.10 54.06 4.18L54.06 4.18L54.06 4.18Q52.48 4.25 52.05 5.04L52.05 5.04L52.05 5.04Q51.62 5.83 50.61 6.23L50.61 6.23L50.61 6.23Q49.60 6.62 48.41 6.59L48.41 6.59L48.41 6.59Q47.22 6.55 46.00 6.01L46.00 6.01L46.00 6.01Q44.78 5.47 43.91 4.46L43.91 4.46L43.91 4.46Q41.90 2.02 43.12-2.09L43.12-2.09L43.12-2.09Q44.27-9.94 48.95-22.03L48.95-22.03L48.95-22.03Q51.18-28.01 53.27-31.18ZM66.88-41.98L66.88-41.98L66.88-41.98Q63.35-41.26 61.16-42.41L61.16-42.41L61.16-42.41Q58.96-43.56 58.60-45.18L58.60-45.18L58.60-45.18Q58.24-46.80 59.61-48.53L59.61-48.53L59.61-48.53Q61.19-50.69 64.36-51.34L64.36-51.34L64.36-51.34Q65.80-51.48 66.45-51.48L66.45-51.48L66.45-51.48Q67.10-51.48 68.03-51.19L68.03-51.19L68.03-51.19Q70.41-50.98 71.13-49.10L71.13-49.10L71.13-49.10Q72.14-47.52 71.31-45.50L71.31-45.50L71.31-45.50Q70.48-43.49 66.88-41.98ZM98.05-28.73L98.05-28.73L98.05-28.73Q99.27-30.96 101.29-30.96L101.29-30.96L101.29-30.96Q104.38-29.23 105.18-25.34L105.18-25.34L105.18-25.34Q105.97-21.46 103.45-18.36L103.45-18.36L103.45-18.36Q103.38-18.29 103.52-17.14L103.52-17.14L103.52-17.14Q104.82-9.94 102.58-2.16L102.58-2.16L102.58-2.16Q101.79 0.43 100.75 2.66L100.75 2.66L100.75 2.66Q99.70 4.90 98.16 8.28L98.16 8.28L98.16 8.28Q96.61 11.66 93.80 14.98L93.80 14.98L93.80 14.98Q90.99 18.29 87.46 20.23L87.46 20.23L87.46 20.23Q80.05 24.41 70.90 22.03L70.90 22.03L70.90 22.03Q67.59 20.74 66.30 19.01L66.30 19.01L66.30 19.01Q64.64 16.92 65.14 14.54L65.14 14.54L65.14 14.54Q65.65 11.59 68.60 11.30L68.60 11.30L68.60 11.30Q70.04 11.16 72.20 12.38L72.20 12.38L72.20 12.38Q74.65 12.89 76.16 12.31L76.16 12.31L76.16 12.31Q77.67 11.74 78.57 11.27L78.57 11.27L78.57 11.27Q79.47 10.80 80.84 10.08L80.84 10.08L80.84 10.08Q83.22 8.86 86.24 4.46L86.24 4.46L86.24 4.46Q87.90 2.16 89.55-1.73L89.55-1.73L89.55-1.73Q86.89 1.66 81.06 1.58L81.06 1.58L81.06 1.58Q79.40 1.51 77.35 1.44L77.35 1.44L77.35 1.44Q75.30 1.37 73.64 0.07L73.64 0.07L73.64 0.07Q71.98-1.22 70.98-3.31L70.98-3.31L70.98-3.31Q69.97-5.40 69.64-8.10L69.64-8.10L69.64-8.10Q69.32-10.80 69.61-13.61L69.61-13.61L69.61-13.61Q70.76-23.40 77.82-29.09L77.82-29.09L77.82-29.09Q82.64-33.05 88.18-33.34L88.18-33.34L88.18-33.34Q90.85-33.48 93.22-32.76L93.22-32.76L93.22-32.76Q96.10-31.68 98.05-28.73ZM89.26-12.38L89.26-12.38L89.26-12.38Q89.26-12.60 89.34-12.74L89.34-12.74L89.34-12.74Q88.98-12.89 88.62-13.00L88.62-13.00L88.62-13.00Q88.26-13.10 87.32-13.39L87.32-13.39L87.32-13.39Q86.38-13.68 84.80-13.07L84.80-13.07L84.80-13.07Q83.22-12.46 82.03-11.41L82.03-11.41L82.03-11.41Q80.84-10.37 80.16-9.22L80.16-9.22L80.16-9.22Q79.47-8.06 79.94-7.27L79.94-7.27L79.94-7.27Q80.41-6.48 81.63-6.66L81.63-6.66L81.63-6.66Q82.86-6.84 84.30-7.70L84.30-7.70L84.30-7.70Q87.46-9.65 89.26-12.38ZM122.05-2.81L122.05-2.81L122.05-2.81Q121.58-1.30 121.01-0.14L121.01-0.14L121.01-0.14Q120.43 1.01 119.28 2.02L119.28 2.02L119.28 2.02Q118.13 3.02 116.54 3.92L116.54 3.92L116.54 3.92Q114.96 4.82 113.52 5.18L113.52 5.18L113.52 5.18Q110.21 5.90 110.06 3.24L110.06 3.24L110.06 3.24Q109.85 2.52 109.16 2.41L109.16 2.41L109.16 2.41Q108.48 2.30 107.90 2.02L107.90 2.02L107.90 2.02Q106.39 1.37 107.04-1.51L107.04-1.51L107.04-1.51Q108.19-5.47 109.56-11.12L109.56-11.12L109.56-11.12Q110.93-16.78 113.09-23.54L113.09-23.54L113.09-23.54Q118.20-39.96 125.76-53.14L125.76-53.14L125.76-53.14Q126.26-53.78 126.91-54.83L126.91-54.83L126.91-54.83Q127.56-55.87 128.57-56.74L128.57-56.74L128.57-56.74Q131.09-59.04 134.76-57.82L134.76-57.82L134.76-57.82Q134.69-56.88 135.19-56.12L135.19-56.12L135.19-56.12Q135.70-55.37 136.34-54.58L136.34-54.58L136.34-54.58Q138.00-52.70 137.86-51.19L137.86-51.19L137.86-51.19Q130.22-33.12 124.10-10.80L124.10-10.80L124.10-10.80Q123.38-8.21 122.95-6.26L122.95-6.26L122.95-6.26Q122.52-4.32 122.05-2.81ZM140.15-30.74L140.15-30.74L140.15-30.74Q141.66-31.82 143.90-31.25L143.90-31.25L143.90-31.25Q144.33-31.18 144.76-31.18L144.76-31.18L144.76-31.18Q146.34-34.42 150.23-34.56L150.23-34.56L150.23-34.56Q151.24-34.63 153.04-34.92L153.04-34.92L153.04-34.92Q154.84-35.21 157.40-34.78L157.40-34.78L157.40-34.78Q159.95-34.34 161.90-33.26L161.90-33.26L161.90-33.26Q166.14-30.96 167.01-26.64L167.01-26.64L167.01-26.64Q168.74-20.30 166.50-12.82L166.50-12.82L166.50-12.82Q164.13-4.54 158.44 0.43L158.44 0.43L158.44 0.43Q155.85 2.74 152.97 3.35L152.97 3.35L152.97 3.35Q150.09 3.96 147.78 4.03L147.78 4.03L147.78 4.03Q145.48 4.10 143.57 4.07L143.57 4.07L143.57 4.07Q141.66 4.03 139.86 3.67L139.86 3.67L139.86 3.67Q135.98 2.88 133.46 0L133.46 0L133.46 0Q130.50-3.24 130.94-10.08L130.94-10.08L130.94-10.08Q131.22-16.13 134.00-22.28L134.00-22.28L134.00-22.28Q136.77-28.44 140.15-30.74ZM152.82-16.27L152.82-16.27L152.82-16.27Q151.02-15.70 149.44-15.77L149.44-15.77L149.44-15.77Q148.65-14.98 148.04-14.08L148.04-14.08L148.04-14.08Q147.42-13.18 146.42-12.42L146.42-12.42L146.42-12.42Q145.41-11.66 145.41-11.81L145.41-11.81L145.41-11.81Q144.18-10.08 143.39-8.24L143.39-8.24L143.39-8.24Q142.60-6.41 143.39-4.54L143.39-4.54L143.39-4.54Q146.27-4.25 147.64-4.68L147.64-4.68L147.64-4.68Q149.01-5.11 150.20-6.34L150.20-6.34L150.20-6.34Q151.38-7.56 152.03-9.22L152.03-9.22L152.03-9.22Q153.33-12.31 152.82-16.27ZM188.31-53.86L188.31-53.86L188.38-54.14L189.03-54.79L189.03-54.79Q189.82-56.66 190.76-57.02L190.76-57.02L190.76-57.02Q191.26-57.17 192.06-57.38L192.06-57.38L192.06-57.38Q192.85-57.60 194.14-58.46L194.14-58.46L194.14-58.46Q194.65-59.47 196.23-59.36L196.23-59.36L196.23-59.36Q197.82-59.26 199.36-58.36L199.36-58.36L199.36-58.36Q200.91-57.46 201.88-55.87L201.88-55.87L201.88-55.87Q202.86-54.29 202.35-52.60L202.35-52.60L202.35-52.60Q201.85-50.90 201.52-50.08L201.52-50.08L201.52-50.08Q201.20-49.25 200.88-48.53L200.88-48.53L200.88-48.53Q200.55-47.81 200.08-46.91L200.08-46.91L200.08-46.91Q199.62-46.01 198.90-44.50L198.90-44.50L196.52-39.53L196.52-39.53Q196.16-38.59 195.91-38.45L195.91-38.45L195.91-38.45Q195.66-38.30 195.44-37.94L195.44-37.94L195.44-37.94Q196.09-38.09 196.52-38.16L196.52-38.16L196.52-38.16Q196.95-38.23 197.38-38.30L197.38-38.30L197.38-38.30Q198.39-38.45 199.69-38.59L199.69-38.59L199.69-38.59Q200.48-38.45 201.06-38.45L201.06-38.45L202.06-38.45L202.06-38.45Q202.93-38.45 204.15-37.98L204.15-37.98L204.15-37.98Q205.38-37.51 205.74-36.36L205.74-36.36L205.74-36.36Q206.10-35.21 205.81-34.02L205.81-34.02L205.81-34.02Q205.52-32.83 204.66-31.82L204.66-31.82L204.66-31.82Q203.79-30.82 202.42-30.74L202.42-30.74L202.42-30.74Q196.16-29.02 193.50-28.87L193.50-28.87L193.06-28.37L193.06-28.30L193.06-28.30Q192.34-26.57 191.52-23.94L191.52-23.94L191.52-23.94Q190.69-21.31 189.72-18.25L189.72-18.25L189.72-18.25Q188.74-15.19 187.74-11.92L187.74-11.92L187.74-11.92Q186.73-8.64 185.65-5.62L185.65-5.62L185.65-5.62Q182.19 4.54 180.61 5.40L180.61 5.40L180.61 5.40Q180.03 5.69 179.42 5.80L179.42 5.80L179.42 5.80Q178.81 5.90 178.74 5.98L178.74 5.98L178.74 5.98Q176.22 5.83 174.56 4.97L174.56 4.97L174.56 4.97Q172.90 4.10 172.33 3.31L172.33 3.31L172.33 3.31Q171.75 2.52 172.04 1.51L172.04 1.51L172.04 1.51Q173.41-11.02 177.51-25.92L177.51-25.92L177.51-25.92Q176.07-25.92 175.50-25.63L175.50-25.63L175.50-25.63Q174.42-25.06 172.90-24.98L172.90-24.98L172.83-24.98L172.83-24.98Q171.68-25.06 170.74-26.06L170.74-26.06L170.74-26.06Q169.81-27.07 169.59-28.37L169.59-28.37L169.59-28.37Q169.38-29.66 170.02-31.03L170.02-31.03L170.02-31.03Q170.67-32.40 172.62-33.19L172.62-33.19L172.62-33.19Q174.92-33.84 176.00-34.27L176.00-34.27L176.00-34.27Q178.09-35.14 179.49-35.50L179.49-35.50L179.49-35.50Q180.90-35.86 181.08-35.96L181.08-35.96L181.08-35.96Q181.26-36.07 181.33-36.14L181.33-36.14L181.33-36.14Q181.54-36.29 182.41-36.29L182.41-36.29L182.41-36.29Q182.84-38.38 183.27-40.54L183.27-40.54L183.27-40.54Q183.70-42.70 184.35-44.93L184.35-44.93L184.35-44.93Q185.79-50.11 188.31-53.86Z"/></g><g id="" class="logo--name svgSloganText_1 sloganBox" transform="scale(1) translate(196.7199999332428,268.0300001144409)" fill="#ffffff"><path d="M1.68 0L8.54 0L8.54-2.23L4.10-2.23L4.10-13.63L1.68-13.63ZM10.10-2.02C10.10-0.77 11.11 0.24 12.38 0.24L14.59 0.24C15.86 0.24 16.87-0.77 16.87-2.02L16.87-3.38L14.78-3.38L14.78-2.52C14.78-2.16 14.50-1.80 14.11-1.80L12.96-1.80C12.58-1.80 12.29-2.16 12.29-2.52L12.29-4.56L16.87-4.56L16.87-8.06C16.87-9.31 15.86-10.34 14.59-10.34L12.38-10.34C11.11-10.34 10.10-9.31 10.10-8.06L10.10-2.02ZM12.29-6.02L12.29-7.58C12.29-7.94 12.58-8.28 12.96-8.28L14.11-8.28C14.50-8.28 14.78-7.94 14.78-7.58L14.78-6.02ZM25.99-8.02C25.99-9.29 24.96-10.34 23.66-10.34L21.79-10.34C20.50-10.34 19.46-9.29 19.46-8.02L19.46-6.55L21.55-6.55L21.55-7.61C21.55-7.94 21.89-8.28 22.25-8.28L23.11-8.28C23.50-8.28 23.76-7.94 23.76-7.61L23.76-6.94C23.76-6.62 23.66-6.36 23.35-6.22L20.35-5.04C19.68-4.78 19.27-4.20 19.27-3.38L19.27-2.06C19.27-0.82 20.33 0.24 21.60 0.24L22.27 0.24C23.02 0.24 23.52-0.19 23.83-0.50L23.95 0L25.99 0ZM23.76-2.62C23.76-2.21 23.40-1.80 22.99-1.80L22.08-1.80C21.67-1.80 21.43-2.16 21.43-2.47L21.43-3.14C21.43-3.43 21.50-3.62 21.79-3.77L23.47-4.46C23.64-4.54 23.74-4.66 23.76-4.66ZM30.91 0L30.91-7.27C30.91-7.73 31.27-8.11 31.70-8.11L33.05-8.11L33.05-10.25L32.40-10.25C31.68-10.25 31.10-9.77 30.86-9.43L30.72-10.10L28.63-10.10L28.63 0ZM36.91 0L36.91-7.37C36.91-7.80 37.25-8.21 37.68-8.21L38.62-8.21C39-8.21 39.29-7.87 39.29-7.49L39.29 0L41.57 0L41.57-8.04C41.57-9.31 40.56-10.34 39.29-10.34L38.40-10.34C37.66-10.34 37.10-9.84 36.84-9.50L36.72-10.10L34.61-10.10L34.61 0ZM46.73 0L46.73-10.10L44.45-10.10L44.45 0ZM46.70-11.76L46.70-13.63L44.45-13.63L44.45-11.76ZM51.91 0L51.91-7.37C51.91-7.80 52.25-8.21 52.68-8.21L53.62-8.21C54-8.21 54.29-7.87 54.29-7.49L54.29 0L56.57 0L56.57-8.04C56.57-9.31 55.56-10.34 54.29-10.34L53.40-10.34C52.66-10.34 52.10-9.84 51.84-9.50L51.72-10.10L49.61-10.10L49.61 0ZM58.85 3.12C58.85 4.42 59.88 5.45 61.15 5.45L63.34 5.45C64.63 5.45 65.64 4.42 65.64 3.12L65.64 0.89C65.64-0.10 65.09-0.70 64.06-1.08L61.51-2.02C61.20-2.14 60.94-2.26 60.94-2.62C60.94-2.78 61.01-2.93 61.10-3.05C61.18-3.05 61.25-3.02 61.32-3.02L62.74-3.02C64.03-3.02 65.04-4.08 65.04-5.35L65.04-7.75C65.04-8.11 64.87-8.42 64.70-8.54L65.47-8.69L65.47-10.10L61.15-10.10C59.86-10.10 58.85-9.05 58.85-7.78L58.85-5.35C58.85-4.56 59.23-3.89 59.83-3.46C59.57-3.17 59.38-2.78 59.38-2.33C59.38-1.51 59.90-1.15 60.48-0.86L59.88-0.31C59.28 0.26 58.85 0.70 58.85 1.61ZM61.01-7.37C61.01-7.70 61.27-8.04 61.68-8.04L62.21-8.04C62.62-8.04 62.88-7.70 62.88-7.37L62.88-5.54C62.88-5.21 62.62-4.90 62.21-4.90L61.68-4.90C61.27-4.90 61.01-5.21 61.01-5.54ZM61.49 3.38C61.10 3.38 60.79 3.05 60.79 2.66L60.79 1.37C60.79 0.98 60.96 0.82 61.27 0.50L61.87-0.10L63.07 0.55C63.31 0.62 63.48 0.89 63.48 1.13L63.48 2.66C63.48 3.05 63.17 3.38 62.78 3.38ZM72.36 0L74.76 0L74.76-5.93L78.24 0L80.90 0L76.87-6.94L80.81-13.63L78.31-13.63L74.76-7.58L74.76-13.63L72.36-13.63ZM81.98-2.02C81.98-0.77 82.99 0.24 84.24 0.24L86.59 0.24C87.86 0.24 88.87-0.77 88.87-2.02L88.87-8.06C88.87-9.31 87.86-10.34 86.59-10.34L84.24-10.34C82.99-10.34 81.98-9.31 81.98-8.06L81.98-2.02ZM84.17-2.52L84.17-7.58C84.17-7.94 84.46-8.28 84.82-8.28L86.02-8.28C86.40-8.28 86.69-7.94 86.69-7.58L86.69-2.52C86.69-2.16 86.40-1.80 86.02-1.80L84.82-1.80C84.46-1.80 84.17-2.16 84.17-2.52ZM93.79 0L93.79-7.27C93.79-7.73 94.15-8.11 94.58-8.11L95.93-8.11L95.93-10.25L95.28-10.25C94.56-10.25 93.98-9.77 93.74-9.43L93.60-10.10L91.51-10.10L91.51 0ZM97.49-2.02C97.49-0.77 98.50 0.24 99.77 0.24L101.98 0.24C103.25 0.24 104.26-0.77 104.26-2.02L104.26-3.38L102.17-3.38L102.17-2.52C102.17-2.16 101.88-1.80 101.50-1.80L100.34-1.80C99.96-1.80 99.67-2.16 99.67-2.52L99.67-4.56L104.26-4.56L104.26-8.06C104.26-9.31 103.25-10.34 101.98-10.34L99.77-10.34C98.50-10.34 97.49-9.31 97.49-8.06L97.49-2.02ZM99.67-6.02L99.67-7.58C99.67-7.94 99.96-8.28 100.34-8.28L101.50-8.28C101.88-8.28 102.17-7.94 102.17-7.58L102.17-6.02ZM113.38-8.02C113.38-9.29 112.34-10.34 111.05-10.34L109.18-10.34C107.88-10.34 106.85-9.29 106.85-8.02L106.85-6.55L108.94-6.55L108.94-7.61C108.94-7.94 109.27-8.28 109.63-8.28L110.50-8.28C110.88-8.28 111.14-7.94 111.14-7.61L111.14-6.94C111.14-6.62 111.05-6.36 110.74-6.22L107.74-5.04C107.06-4.78 106.66-4.20 106.66-3.38L106.66-2.06C106.66-0.82 107.71 0.24 108.98 0.24L109.66 0.24C110.40 0.24 110.90-0.19 111.22-0.50L111.34 0L113.38 0ZM111.14-2.62C111.14-2.21 110.78-1.80 110.38-1.80L109.46-1.80C109.06-1.80 108.82-2.16 108.82-2.47L108.82-3.14C108.82-3.43 108.89-3.62 109.18-3.77L110.86-4.46C111.02-4.54 111.12-4.66 111.14-4.66ZM118.32 0L118.32-7.37C118.32-7.80 118.66-8.21 119.09-8.21L120.02-8.21C120.41-8.21 120.70-7.87 120.70-7.49L120.70 0L122.98 0L122.98-8.04C122.98-9.31 121.97-10.34 120.70-10.34L119.81-10.34C119.06-10.34 118.51-9.84 118.25-9.50L118.13-10.10L116.02-10.10L116.02 0Z"/></g></g></g></g></svg>