<svg version="1.1" xmlns="http://www.w3.org/2000/svg" xmlns:xlink="http://www.w3.org/1999/xlink" xmlns:i="http://ns.adobe.com/AdobeIllustrator/10.0/" xmlns:sketch="http://www.bohemiancoding.com/sketch/ns" height="100%" width="100%" x="0px" y="0px" viewBox="0 0 640 480" xml:space="preserve" preserveAspectRatio="xMidYMid meet" class=""><defs><linearGradient id="textGradient2472936380"><stop offset="0.05" stop-color="#B68648" /><stop offset="0.95" stop-color="#FBF3A3" /></linearGradient></defs><defs><linearGradient id="iconGradient2472936380"><stop offset="0.05" stop-color="#B68648" /><stop offset="0.95" stop-color="#FBF3A3" /></linearGradient></defs><rect x="0px" y="0px" width="100%" height="100%" fill="none"/><g class="logo-container-box logoContainerBox" transform="scale(0.75) translate(106.66665140787762,79.99999237060547)"><g class="containerBody" transform="scale(1.12) translate(52.07428632463723,-25.714285714285722)" ><g class="sampleIconBox" transform="scale(1) translate(0,0)"><g class="sampleIcons_1" transform="scale(1.0949996031762608) translate(67.72778921127318,170.826434135437)" fill="url(#iconGradient2472936380)"><g><path fill-rule="evenodd" clip-rule="evenodd" d="M56.809,28.396c5.314,0,9.66-4.343,9.66-9.661c0-5.392-4.346-9.735-9.66-9.735   c-3.896,0-7.34,2.321-8.838,5.691c-0.599,1.198-0.898,2.621-0.898,4.044c0,1.422,0.299,2.77,0.898,4.043   C49.468,26.074,52.912,28.396,56.809,28.396z M68.439,66.737c1.287-3.343,2.109-6.596,3.402-10.109   c-4.418,0-6.973-0.146-11.33-0.031c-3.445,0-4.902,1.977-6.025,4.374c-2.17,5.69-4.343,11.456-6.516,17.147   c-1.085,2.968-2.278,5.981-3.371,8.952h11.947c2.398-7.02,4.762-13.554,7.562-20.333H68.439z M94.893,53.172   c-0.311-0.77-0.664-1.52-1.037-2.26c-0.223-0.444-1.34-1.927-1.254-2.373c0.9-4.643,1.93-9.307,2.828-13.95   c0.756-3.659-0.803-5.954-2.973-6.853c-2.846-1.198-4.572-1.886-7.342-3.084c-1.199-0.524-2.398-1.049-3.67-1.572   c-3.67-1.798-6.143-2.282-9.811,0.224c-6.891,4.343-14.584,9.294-21.474,13.713c0.9-2.396,2.298-5.325,3.199-7.723   c-1.873-0.672-3.516-1.421-5.389-2.17c-0.299-0.15-0.599-0.225-0.898-0.375l-0.149,0.375c-2.138,4.518-4.911,9.987-6.56,14.479   c-1.092,3.415,2.628,6.088,5.994,4.999c0.075,0,10.525-4.801,14.792-6.673c4.793,5.466,9.51,11.008,14.301,16.475   c-2.395,1.497-2.926,1.913-4.041,5.316c-2.965,8.451-5.93,16.902-8.895,25.352H74.98l7.131-20.083   c0.748,0.075,2.18,0.199,3.004,0.199c2.367,0,4.678,0.065,6.824-1.118C96.557,63.523,96.598,57.445,94.893,53.172z M90.281,54.306   h-7.49l2.324-12.356l0.373-1.871l-0.373-0.524l-5.244-7.49l5.244,1.274l2.77,0.599l-3.508,19.329l5.914,0.008L90.281,54.306z    M43.104,55.879c1.573,0.225,3.22,0.523,4.867,0.824c0.697,0.115,1.35,0.23,2.026,0.348l2.269-7.548   c-1.597-0.353-31.729-6.375-45.482-9.127l-2.183,7.221c2.719,0.642,4.846,1.173,7.575,1.841c-0.824,0.524-1.571,1.124-2.394,1.647   c1.796,2.021,3.518,4.043,5.316,6.066c3.07-3.146,6.665-4.568,10.784-4.195c7.338,1.199,12.729,5.317,12.58,13.854   c0.133,7.967-7.587,13.511-13.479,13.703c-3.71-0.043-7.113-2.171-10.109-4.194c-1.871,1.424-3.744,2.848-5.616,4.194   c3.295,4.345,8.088,7.265,16.249,7.189c13.287-1.344,19.276-9.361,20.519-20.518C46.53,62.438,45.051,59.398,43.104,55.879z"></path></g></g></g><g class="sampleTexts_1" transform="scale(1) translate(0.000006103515630684342,15.950004577636719)"><g class="logo--name svgLogoName_1 logoNameBox" transform="scale(1) translate(191.78000011444092,226.46000289916992)" fill="url(#textGradient2472936380)"><path d="M23.76-49.39L23.76-49.39Q29.95-49.39 34.56-46.69L34.56-46.69L34.56-46.69Q39.17-43.99 41.69-38.99L41.69-38.99L41.69-38.99Q44.21-33.98 44.21-27.22L44.21-27.22L44.21-22.18L44.21-22.18Q44.21-15.41 41.69-10.40L41.69-10.40L41.69-10.40Q39.17-5.40 34.56-2.70L34.56-2.70L34.56-2.70Q29.95 0 23.76 0L23.76 0L6.62 0L6.62-49.39L23.76-49.39ZM23.76-42.98L13.68-42.98L13.68-6.41L23.76-6.41L23.76-6.41Q30.17-6.41 33.66-10.40L33.66-10.40L33.66-10.40Q37.15-14.40 37.15-22.18L37.15-22.18L37.15-27.22L37.15-27.22Q37.15-34.85 33.73-38.92L33.73-38.92L33.73-38.92Q30.31-42.98 23.76-42.98L23.76-42.98ZM55.43-51.84L62.49-51.84L62.49-45.58L55.43-45.58L55.43-51.84ZM55.58-36.79L62.34-36.79L62.34 0L55.58 0L55.58-36.79ZM108.99-43.42L108.99-43.42Q108.99-39.74 107.05-37.26L107.05-37.26L107.05-37.26Q105.10-34.78 101.65-34.06L101.65-34.06L101.50-33.84L101.50-33.84Q105.10-30.67 105.10-25.92L105.10-25.92L105.10-25.92Q105.10-20.74 101.22-17.57L101.22-17.57L101.22-17.57Q97.33-14.40 90.63-14.40L90.63-14.40L85.74-14.40L85.74-14.40Q83.58-14.40 82.14-13.28L82.14-13.28L82.14-13.28Q80.70-12.17 80.70-10.44L80.70-10.44L80.70-10.44Q80.70-8.71 82.06-7.70L82.06-7.70L82.06-7.70Q83.43-6.70 85.74-6.70L85.74-6.70L99.63-6.70L99.63-6.70Q103.88-6.70 106.44-4.03L106.44-4.03L106.44-4.03Q108.99-1.37 108.99 2.74L108.99 2.74L108.99 2.74Q108.99 7.63 105.28 10.58L105.28 10.58L105.28 10.58Q101.58 13.54 95.31 13.54L95.31 13.54L80.84 13.54L80.84 13.54Q78.39 13.54 76.34 12.24L76.34 12.24L76.34 12.24Q74.29 10.94 73.10 8.96L73.10 8.96L73.10 8.96Q71.91 6.98 71.91 4.90L71.91 4.90L71.91 4.90Q71.91 1.87 73.39-0.36L73.39-0.36L73.39-0.36Q74.86-2.59 77.31-3.67L77.31-3.67L77.31-3.67Q74.00-5.69 74.00-9.65L74.00-9.65L74.00-9.65Q74.00-12.24 75.51-14.11L75.51-14.11L75.51-14.11Q77.02-15.98 79.76-16.92L79.76-16.92L79.76-16.92Q74.94-19.58 74.94-25.92L74.94-25.92L74.94-25.92Q74.94-31.25 78.86-34.38L78.86-34.38L78.86-34.38Q82.78-37.51 89.77-37.51L89.77-37.51L90.06-37.51L90.06-37.51Q94.09-37.51 97.40-36.29L97.40-36.29L97.40-36.29Q102.51-38.81 103.23-43.42L103.23-43.42L108.99-43.42ZM89.98-32.11L89.98-32.11Q86.17-32.11 83.90-30.64L83.90-30.64L83.90-30.64Q81.63-29.16 81.63-25.92L81.63-25.92L81.63-25.92Q81.63-22.68 83.90-21.24L83.90-21.24L83.90-21.24Q86.17-19.80 89.98-19.80L89.98-19.80L89.98-19.80Q93.80-19.80 96.10-21.24L96.10-21.24L96.10-21.24Q98.41-22.68 98.41-25.92L98.41-25.92L98.41-25.92Q98.41-29.16 96.10-30.64L96.10-30.64L96.10-30.64Q93.80-32.11 89.98-32.11L89.98-32.11ZM97.62-0.22L82.78-0.22L82.78-0.22Q81.06-0.22 79.83 1.01L79.83 1.01L79.83 1.01Q78.61 2.23 78.61 3.96L78.61 3.96L78.61 3.96Q78.61 5.69 79.83 6.91L79.83 6.91L79.83 6.91Q81.06 8.14 82.78 8.14L82.78 8.14L96.68 8.14L96.68 8.14Q98.98 8.14 100.64 6.80L100.64 6.80L100.64 6.80Q102.30 5.47 102.30 3.74L102.30 3.74L102.30 3.74Q102.30 1.94 101.07 0.86L101.07 0.86L101.07 0.86Q99.85-0.22 97.62-0.22L97.62-0.22ZM117.48-51.84L124.25-51.84L124.25 0L117.48 0L117.48-51.84ZM152.18-37.51L152.18-37.51Q159.88-37.51 164.49-32.76L164.49-32.76L164.49-32.76Q169.10-28.01 169.10-19.73L169.10-19.73L169.10-17.06L169.10-17.06Q169.10-8.78 164.56-4.03L164.56-4.03L164.56-4.03Q160.02 0.72 152.18 0.72L152.18 0.72L152.18 0.72Q144.33 0.72 139.79-4.03L139.79-4.03L139.79-4.03Q135.26-8.78 135.26-17.06L135.26-17.06L135.26-19.73L135.26-19.73Q135.26-28.01 139.86-32.76L139.86-32.76L139.86-32.76Q144.47-37.51 152.18-37.51L152.18-37.51ZM152.18-32.11L152.18-32.11Q147.35-32.11 144.69-28.80L144.69-28.80L144.69-28.80Q142.02-25.49 142.02-19.08L142.02-19.08L142.02-17.71L142.02-17.71Q142.02-11.45 144.65-8.06L144.65-8.06L144.65-8.06Q147.28-4.68 152.18-4.68L152.18-4.68L152.18-4.68Q156.93-4.68 159.63-8.03L159.63-8.03L159.63-8.03Q162.33-11.38 162.33-17.71L162.33-17.71L162.33-19.08L162.33-19.08Q162.33-25.34 159.70-28.73L159.70-28.73L159.70-28.73Q157.07-32.11 152.18-32.11L152.18-32.11ZM187.74-48.53L187.74-36.79L196.30-36.79L196.30-31.39L187.74-31.39L187.74-9.43L187.74-9.43Q187.74-6.84 188.74-5.69L188.74-5.69L188.74-5.69Q189.75-4.54 191.84-4.54L191.84-4.54L191.84-4.54Q193.71-4.54 196.30-5.62L196.30-5.62L196.30-0.58L196.30-0.58Q193.71 0.72 189.61 0.72L189.61 0.72L189.61 0.72Q185.36 0.72 183.16-1.80L183.16-1.80L183.16-1.80Q180.97-4.32 180.97-9.79L180.97-9.79L180.97-31.39L176.94-31.39L176.94-36.79L181.18-36.79L183.49-48.53L187.74-48.53Z"/></g><g id="" class="logo--name svgSloganText_1 sloganBox" transform="scale(1) translate(196.7199999332428,268.0300001144409)" fill="#000000"><path d="M1.68 0L8.54 0L8.54-2.23L4.10-2.23L4.10-13.63L1.68-13.63ZM10.10-2.02C10.10-0.77 11.11 0.24 12.38 0.24L14.59 0.24C15.86 0.24 16.87-0.77 16.87-2.02L16.87-3.38L14.78-3.38L14.78-2.52C14.78-2.16 14.50-1.80 14.11-1.80L12.96-1.80C12.58-1.80 12.29-2.16 12.29-2.52L12.29-4.56L16.87-4.56L16.87-8.06C16.87-9.31 15.86-10.34 14.59-10.34L12.38-10.34C11.11-10.34 10.10-9.31 10.10-8.06L10.10-2.02ZM12.29-6.02L12.29-7.58C12.29-7.94 12.58-8.28 12.96-8.28L14.11-8.28C14.50-8.28 14.78-7.94 14.78-7.58L14.78-6.02ZM25.99-8.02C25.99-9.29 24.96-10.34 23.66-10.34L21.79-10.34C20.50-10.34 19.46-9.29 19.46-8.02L19.46-6.55L21.55-6.55L21.55-7.61C21.55-7.94 21.89-8.28 22.25-8.28L23.11-8.28C23.50-8.28 23.76-7.94 23.76-7.61L23.76-6.94C23.76-6.62 23.66-6.36 23.35-6.22L20.35-5.04C19.68-4.78 19.27-4.20 19.27-3.38L19.27-2.06C19.27-0.82 20.33 0.24 21.60 0.24L22.27 0.24C23.02 0.24 23.52-0.19 23.83-0.50L23.95 0L25.99 0ZM23.76-2.62C23.76-2.21 23.40-1.80 22.99-1.80L22.08-1.80C21.67-1.80 21.43-2.16 21.43-2.47L21.43-3.14C21.43-3.43 21.50-3.62 21.79-3.77L23.47-4.46C23.64-4.54 23.74-4.66 23.76-4.66ZM30.91 0L30.91-7.27C30.91-7.73 31.27-8.11 31.70-8.11L33.05-8.11L33.05-10.25L32.40-10.25C31.68-10.25 31.10-9.77 30.86-9.43L30.72-10.10L28.63-10.10L28.63 0ZM36.91 0L36.91-7.37C36.91-7.80 37.25-8.21 37.68-8.21L38.62-8.21C39-8.21 39.29-7.87 39.29-7.49L39.29 0L41.57 0L41.57-8.04C41.57-9.31 40.56-10.34 39.29-10.34L38.40-10.34C37.66-10.34 37.10-9.84 36.84-9.50L36.72-10.10L34.61-10.10L34.61 0ZM46.73 0L46.73-10.10L44.45-10.10L44.45 0ZM46.70-11.76L46.70-13.63L44.45-13.63L44.45-11.76ZM51.91 0L51.91-7.37C51.91-7.80 52.25-8.21 52.68-8.21L53.62-8.21C54-8.21 54.29-7.87 54.29-7.49L54.29 0L56.57 0L56.57-8.04C56.57-9.31 55.56-10.34 54.29-10.34L53.40-10.34C52.66-10.34 52.10-9.84 51.84-9.50L51.72-10.10L49.61-10.10L49.61 0ZM58.85 3.12C58.85 4.42 59.88 5.45 61.15 5.45L63.34 5.45C64.63 5.45 65.64 4.42 65.64 3.12L65.64 0.89C65.64-0.10 65.09-0.70 64.06-1.08L61.51-2.02C61.20-2.14 60.94-2.26 60.94-2.62C60.94-2.78 61.01-2.93 61.10-3.05C61.18-3.05 61.25-3.02 61.32-3.02L62.74-3.02C64.03-3.02 65.04-4.08 65.04-5.35L65.04-7.75C65.04-8.11 64.87-8.42 64.70-8.54L65.47-8.69L65.47-10.10L61.15-10.10C59.86-10.10 58.85-9.05 58.85-7.78L58.85-5.35C58.85-4.56 59.23-3.89 59.83-3.46C59.57-3.17 59.38-2.78 59.38-2.33C59.38-1.51 59.90-1.15 60.48-0.86L59.88-0.31C59.28 0.26 58.85 0.70 58.85 1.61ZM61.01-7.37C61.01-7.70 61.27-8.04 61.68-8.04L62.21-8.04C62.62-8.04 62.88-7.70 62.88-7.37L62.88-5.54C62.88-5.21 62.62-4.90 62.21-4.90L61.68-4.90C61.27-4.90 61.01-5.21 61.01-5.54ZM61.49 3.38C61.10 3.38 60.79 3.05 60.79 2.66L60.79 1.37C60.79 0.98 60.96 0.82 61.27 0.50L61.87-0.10L63.07 0.55C63.31 0.62 63.48 0.89 63.48 1.13L63.48 2.66C63.48 3.05 63.17 3.38 62.78 3.38ZM72.36 0L74.76 0L74.76-5.93L78.24 0L80.90 0L76.87-6.94L80.81-13.63L78.31-13.63L74.76-7.58L74.76-13.63L72.36-13.63ZM81.98-2.02C81.98-0.77 82.99 0.24 84.24 0.24L86.59 0.24C87.86 0.24 88.87-0.77 88.87-2.02L88.87-8.06C88.87-9.31 87.86-10.34 86.59-10.34L84.24-10.34C82.99-10.34 81.98-9.31 81.98-8.06L81.98-2.02ZM84.17-2.52L84.17-7.58C84.17-7.94 84.46-8.28 84.82-8.28L86.02-8.28C86.40-8.28 86.69-7.94 86.69-7.58L86.69-2.52C86.69-2.16 86.40-1.80 86.02-1.80L84.82-1.80C84.46-1.80 84.17-2.16 84.17-2.52ZM93.79 0L93.79-7.27C93.79-7.73 94.15-8.11 94.58-8.11L95.93-8.11L95.93-10.25L95.28-10.25C94.56-10.25 93.98-9.77 93.74-9.43L93.60-10.10L91.51-10.10L91.51 0ZM97.49-2.02C97.49-0.77 98.50 0.24 99.77 0.24L101.98 0.24C103.25 0.24 104.26-0.77 104.26-2.02L104.26-3.38L102.17-3.38L102.17-2.52C102.17-2.16 101.88-1.80 101.50-1.80L100.34-1.80C99.96-1.80 99.67-2.16 99.67-2.52L99.67-4.56L104.26-4.56L104.26-8.06C104.26-9.31 103.25-10.34 101.98-10.34L99.77-10.34C98.50-10.34 97.49-9.31 97.49-8.06L97.49-2.02ZM99.67-6.02L99.67-7.58C99.67-7.94 99.96-8.28 100.34-8.28L101.50-8.28C101.88-8.28 102.17-7.94 102.17-7.58L102.17-6.02ZM113.38-8.02C113.38-9.29 112.34-10.34 111.05-10.34L109.18-10.34C107.88-10.34 106.85-9.29 106.85-8.02L106.85-6.55L108.94-6.55L108.94-7.61C108.94-7.94 109.27-8.28 109.63-8.28L110.50-8.28C110.88-8.28 111.14-7.94 111.14-7.61L111.14-6.94C111.14-6.62 111.05-6.36 110.74-6.22L107.74-5.04C107.06-4.78 106.66-4.20 106.66-3.38L106.66-2.06C106.66-0.82 107.71 0.24 108.98 0.24L109.66 0.24C110.40 0.24 110.90-0.19 111.22-0.50L111.34 0L113.38 0ZM111.14-2.62C111.14-2.21 110.78-1.80 110.38-1.80L109.46-1.80C109.06-1.80 108.82-2.16 108.82-2.47L108.82-3.14C108.82-3.43 108.89-3.62 109.18-3.77L110.86-4.46C111.02-4.54 111.12-4.66 111.14-4.66ZM118.32 0L118.32-7.37C118.32-7.80 118.66-8.21 119.09-8.21L120.02-8.21C120.41-8.21 120.70-7.87 120.70-7.49L120.70 0L122.98 0L122.98-8.04C122.98-9.31 121.97-10.34 120.70-10.34L119.81-10.34C119.06-10.34 118.51-9.84 118.25-9.50L118.13-10.10L116.02-10.10L116.02 0Z"/></g></g></g></g></svg>