<svg version="1.1" xmlns="http://www.w3.org/2000/svg" xmlns:xlink="http://www.w3.org/1999/xlink" xmlns:i="http://ns.adobe.com/AdobeIllustrator/10.0/" xmlns:sketch="http://www.bohemiancoding.com/sketch/ns" height="100%" width="100%" x="0px" y="0px" viewBox="0 0 640 480" xml:space="preserve" preserveAspectRatio="xMidYMid meet" class=""><g class="logo-container-box logoContainerBox" transform="scale(0.75) translate(106.66861979166669,80)"><g class="containerBody" transform="scale(0.9885326547921968) translate(14.235556112073994,2.7860420840555093)" ><g class="sampleIconBox" transform="scale(1) translate(0,0)"><g class="sampleIcons_1" transform="scale(1.1280514673481978) translate(64.53378124999998,162.754296875)" fill="#ffffff"><g><path d="M5.833,37.065c0,0-4.161,33.195,30.567,33.195C36.4,70.26,45.055,37.065,5.833,37.065z"></path><path d="M94.074,23.155c-47.241,0-51.611,29.712-50.744,44.967c7.981-23.02,29.738-28.101,29.738-28.101   c-20.77,12.557-25.03,35.225-25.307,36.825C100.514,74.81,94.074,23.155,94.074,23.155z"></path></g></g></g><g class="sampleTexts_1" transform="scale(1) translate(0.0015625000000056843,26.720703125)"><g class="logo--name svgLogoName_1 logoNameBox" transform="scale(1) translate(196.63828125,236.48046875)" fill="#ffffff"><path d="M12.45-0.04L16.00-0.04L16.00-0.04Q20.43-0.04 23.55-3.16L23.55-3.16L23.55-3.16Q26.68-6.33 26.68-10.72L26.68-10.72L26.68-17.86L26.68-17.86Q26.68-22.29 23.55-25.42L23.55-25.42L23.55-25.42Q20.43-28.55 16.00-28.55L16.00-28.55L12.45-28.55L12.45-28.55Q10.97-28.55 9.91-29.60L9.91-29.60L9.91-29.60Q8.89-30.62 8.89-32.10L8.89-32.10L8.89-39.23L8.89-39.23Q8.89-40.71 9.91-41.77L9.91-41.77L9.91-41.77Q10.97-42.79 12.45-42.79L12.45-42.79L16.00-42.79L16.00-42.79Q17.47-42.79 18.53-41.77L18.53-41.77L18.53-41.77Q19.58-40.71 19.58-39.23L19.58-39.23L19.58-35.68L26.68-35.68L26.68-39.23L26.68-39.23Q26.68-43.66 23.55-46.79L23.55-46.79L23.55-46.79Q20.43-49.92 16.00-49.92L16.00-49.92L12.45-49.92L12.45-49.92Q8.02-49.92 4.89-46.79L4.89-46.79L4.89-46.79Q1.76-43.66 1.76-39.23L1.76-39.23L1.76-32.10L1.76-32.10Q1.76-27.70 4.89-24.54L4.89-24.54L4.89-24.54Q8.02-21.41 12.45-21.41L12.45-21.41L16.00-21.41L16.00-21.41Q17.47-21.41 18.53-20.39L18.53-20.39L18.53-20.39Q19.58-19.34 19.58-17.86L19.58-17.86L19.58-10.72L19.58-10.72Q19.58-9.25 18.53-8.23L18.53-8.23L18.53-8.23Q17.47-7.17 16.00-7.17L16.00-7.17L12.45-7.17L12.45-7.17Q10.97-7.17 9.91-8.23L9.91-8.23L9.91-8.23Q8.89-9.25 8.89-10.72L8.89-10.72L8.89-14.31L1.76-14.31L1.76-10.72L1.76-10.72Q1.76-6.33 4.89-3.16L4.89-3.16L4.89-3.16Q8.02-0.04 12.45-0.04L12.45-0.04ZM27.67-34.88L27.67-34.77L27.60-34.77L25.45-32.10L26.12-32.10L29.14-35.86L29.14-35.86Q29.14-36.28 29.11-36.67L29.11-36.67L27.67-34.88ZM11.88-41.84L9.84-39.30L9.84-39.30Q9.84-39.16 9.84-39.23L9.84-39.23L9.84-38.46L12.62-41.91L12.52-41.91L12.52-41.91Q12.20-41.91 11.88-41.84L11.88-41.84ZM14.41-41.91L13.75-41.91L9.84-37.09L9.84-36.25L14.41-41.91ZM12.55-20.53L11.00-18.60L11.00-18.60Q11.29-18.49 11.53-18.39L11.53-18.39L13.25-20.53L12.55-20.53ZM13.92-39.09L16.21-41.91L16.21-41.91Q16.07-41.91 16.10-41.91L16.10-41.91L15.50-41.91L12.83-38.57L12.83-38.57Q13.32-38.92 13.92-39.09L13.92-39.09ZM11.32-31.43L11.32-32.27L10.16-30.83L10.16-30.83Q10.30-30.59 10.48-30.38L10.48-30.38L11.32-31.43ZM11.32-33.64L11.32-34.49L9.84-32.66L9.84-32.10L9.84-32.10Q9.84-31.96 9.88-31.82L9.88-31.82L11.32-33.64ZM11.32-29.71L11.32-30.06L11.14-29.81L11.14-29.81Q11.25-29.78 11.32-29.71L11.32-29.71ZM7.98-21.48L7.49-20.85L7.49-20.85Q7.66-20.67 7.88-20.50L7.88-20.50L8.47-21.27L8.47-21.27Q8.23-21.34 7.98-21.48L7.98-21.48ZM11.60-37.05L9.84-34.88L9.84-34.03L11.36-35.86L11.36-35.86Q11.39-36.49 11.60-37.05L11.60-37.05ZM6.71-22.11L6.54-21.90L6.54-21.90Q6.71-21.69 6.89-21.48L6.89-21.48L7.17-21.83L7.17-21.83Q6.93-21.97 6.71-22.11L6.71-22.11ZM16.14-20.53L13.99-17.89L13.99-17.89Q14.34-17.86 14.66-17.86L14.66-17.86L16.73-20.46L16.73-20.46Q16.42-20.53 16.14-20.53L16.14-20.53ZM17.61-39.23L18.53-40.36L18.53-40.36Q18.39-40.61 18.21-40.85L18.21-40.85L16.91-39.23L17.61-39.23ZM15.82-39.23L17.61-41.45L17.61-41.45Q17.37-41.59 17.12-41.70L17.12-41.70L15.15-39.23L15.82-39.23ZM18.77-39.20L18.77-39.30L18.70-39.23L18.70-39.23Q18.63-39.23 18.77-39.20L18.77-39.20ZM17.54-20.07L15.75-17.86L16.45-17.86L17.96-19.76L17.96-19.76Q17.79-19.93 17.54-20.07L17.54-20.07ZM9.35-20.99L8.54-19.97L8.54-19.97Q8.75-19.79 8.96-19.65L8.96-19.65L9.91-20.81L9.91-20.81Q9.63-20.88 9.35-20.99L9.35-20.99ZM18.21-17.86L18.70-18.46L18.70-18.46Q18.63-18.74 18.49-19.02L18.49-19.02L17.54-17.86L18.21-17.86ZM14.34-20.53L12.41-18.14L12.41-18.14Q12.73-18.07 13.01-18.04L13.01-18.04L15.01-20.53L14.34-20.53ZM28.44-18.11L27.67-17.16L27.67-16.31L28.65-17.54L28.65-17.54Q28.55-17.79 28.44-18.11L28.44-18.11ZM27.67-37.09L27.67-36.25L28.93-37.79L28.93-37.79Q28.86-38.11 28.76-38.46L28.76-38.46L27.67-37.09ZM27.60-40.57L27.81-40.85L27.81-40.85Q27.67-41.06 27.53-41.34L27.53-41.34L27.49-41.27L27.49-41.27Q27.56-40.92 27.60-40.57L27.60-40.57ZM27.67-39.30L27.67-38.46L28.44-39.45L28.44-39.45Q28.37-39.69 28.23-40.01L28.23-40.01L27.67-39.30ZM10.86-20.64L9.70-19.20L9.70-19.20Q9.95-19.05 10.20-18.95L10.20-18.95L11.50-20.57L11.50-20.57Q11.18-20.60 10.86-20.64L10.86-20.64ZM24.33-32.10L26.51-34.77L25.80-34.77L23.66-32.10L24.33-32.10ZM22.01-32.27L22.01-32.10L22.57-32.10L24.71-34.77L24.01-34.77L22.01-32.27ZM27.67-14.94L27.67-14.10L29.04-15.82L29.04-15.82Q28.97-16.17 28.90-16.49L28.90-16.49L27.67-14.94ZM22.25-34.77L22.01-34.49L22.01-33.64L22.92-34.77L22.25-34.77ZM27.77-19.51L27.56-19.27L27.56-19.27Q27.63-18.84 27.63-18.49L27.63-18.49L28.05-19.02L28.05-19.02Q27.91-19.27 27.77-19.51L27.77-19.51ZM15.64 0.84L14.94 0.84L12.94 3.34L12.94 3.34Q13.25 3.38 13.57 3.45L13.57 3.45L15.64 0.84ZM29.14-34.49L27.21-32.10L27.91-32.10L29.14-33.64L29.14-34.49ZM20.85 3.23L29.14-7.07L29.14-7.95L20.00 3.41L20.00 3.41Q20.39 3.34 20.85 3.23L20.85 3.23ZM21.30-0.39L18.14 3.52L18.46 3.52L18.46 3.52Q18.56 3.52 18.84 3.52L18.84 3.52L22.61-1.16L22.61-1.16Q21.97-0.74 21.30-0.39L21.30-0.39ZM27.42-1.37L26.02 0.35L26.02 0.35Q26.82-0.42 27.42-1.37L27.42-1.37ZM23.34 2.32L28.79-4.43L28.79-4.43Q28.93-4.99 29.04-5.59L29.04-5.59L22.29 2.81L22.29 2.81Q22.82 2.60 23.34 2.32L23.34 2.32ZM29.00-32.10L29.14-32.10L29.14-32.27L29.00-32.10ZM27.60-9.60L29.14-11.50L29.14-12.38L27.67-10.51L27.67-10.51Q27.67-10.02 27.60-9.60L27.60-9.60ZM29.14-14.55L27.67-12.73L27.67-11.88L29.14-13.71L29.14-14.31L29.14-14.31Q29.14-14.31 29.14-14.55L29.14-14.55ZM26.82-6.43L29.14-9.28L29.14-10.16L27.32-7.88L27.32-7.88Q27.11-7.14 26.82-6.43L26.82-6.43ZM18.77 0.53L16.38 3.52L17.05 3.52L19.65 0.28L19.65 0.28Q19.23 0.42 18.77 0.53L18.77 0.53ZM9.88 0.53L8.93 1.69L8.93 1.69Q9.14 1.83 9.39 1.97L9.39 1.97L10.44 0.67L10.44 0.67Q10.16 0.60 9.88 0.53L9.88 0.53ZM7.14-0.49L6.86-0.14L6.86-0.14Q7.03 0.07 7.21 0.25L7.21 0.25L7.63-0.25L7.63-0.25Q7.38-0.35 7.14-0.49L7.14-0.49ZM11.43 0.77L10.13 2.39L10.13 2.39Q10.41 2.53 10.65 2.64L10.65 2.64L12.09 0.84L12.09 0.84Q11.74 0.81 11.43 0.77L11.43 0.77ZM13.85 0.84L13.18 0.84L11.46 2.95L11.46 2.95Q11.74 3.06 12.02 3.13L12.02 3.13L13.85 0.84ZM16.73 0.81L14.59 3.52L14.59 3.52Q14.87 3.52 14.91 3.52L14.91 3.52L15.26 3.52L17.51 0.77L17.51 0.77Q17.09 0.81 16.73 0.81L16.73 0.81ZM8.44 0.11L7.84 0.84L7.84 0.84Q8.02 1.02 8.23 1.20L8.23 1.20L8.96 0.28L8.96 0.28Q8.68 0.21 8.44 0.11L8.44 0.11ZM6.29-0.84L6.36-0.91L6.36-0.91Q6.19-1.05 6.12-1.09L6.12-1.09L6.12-1.09Q6.26-0.88 6.29-0.84L6.29-0.84ZM52.29-49.92L40.80-49.92L33.66-0.04L40.87-0.04L42.38-10.72L50.71-10.72L52.22-0.04L59.43-0.04L52.29-49.92ZM43.40-17.86L46.56-39.87L49.69-17.86L43.40-17.86ZM37.49 0.84L36.79 0.84L36.44 1.30L36.26 2.36L37.49 0.84ZM39.25 0.84L38.58 0.84L36.44 3.52L37.11 3.52L39.25 0.84ZM53.84-46.05L54.09-46.37L53.80-46.37L53.84-46.05ZM54.02-44.89L54.12-44.16L54.93-45.18L54.82-45.91L54.02-44.89ZM41.04 0.84L40.38 0.84L38.20 3.52L38.90 3.52L41.04 0.84ZM44.03-1.51L39.99 3.52L40.69 3.52L43.89-0.46L44.03-1.51ZM54.26-43.00L54.37-42.29L55.18-43.31L55.11-44.02L54.26-43.00ZM43.64 1.20L41.78 3.52L42.45 3.52L43.50 2.21L43.64 1.20ZM54.54-41.13L54.65-40.39L55.46-41.41L55.35-42.15L54.54-41.13ZM55.63-33.61L55.74-32.91L56.55-33.89L56.44-34.63L55.63-33.61ZM41.99-1.20L41.85-0.18L44.24-3.16L44.42-4.18L41.99-1.20ZM56.16-29.85L56.27-29.14L57.07-30.13L56.97-30.87L56.16-29.85ZM55.88-31.75L55.98-31.01L56.79-32.03L56.69-32.73L55.88-31.75ZM54.82-39.27L54.93-38.53L55.74-39.55L55.63-40.25L54.82-39.27ZM55.35-35.51L55.46-34.77L56.27-35.79L56.16-36.49L55.35-35.51ZM55.07-37.37L55.18-36.63L55.98-37.65L55.88-38.39L55.07-37.37ZM49.66-9.84L48.95-9.84L46.81-7.17L47.51-7.17L49.66-9.84ZM61.82 2.95L61.36 3.52L61.89 3.52L61.82 2.95ZM61.54 1.09L59.57 3.52L60.27 3.52L61.64 1.83L61.54 1.09ZM61.26-0.77L60.45 0.21L60.55 0.84L59.96 0.84L57.81 3.52L58.48 3.52L61.36-0.07L61.26-0.77ZM55.28 0.84L54.61 0.84L54.33 1.16L54.44 1.90L55.28 0.84ZM56.41-27.98L56.51-27.25L57.36-28.27L57.25-28.97L56.41-27.98ZM58.87 0.84L58.16 0.84L56.02 3.52L56.72 3.52L58.87 0.84ZM50.11-9.07L48.60-7.17L49.27-7.17L50.22-8.37L50.11-9.07ZM47.86-9.84L47.16-9.84L45.02-7.17L45.72-7.17L47.86-9.84ZM57.07 0.84L56.41 0.84L54.61 3.06L54.68 3.52L54.93 3.52L57.07 0.84ZM42.38-3.90L42.24-2.85L44.63-5.84L44.80-6.89L42.38-3.90ZM50.39-7.21L50.36-7.17L50.39-7.17L50.39-7.21ZM45.09-22.75L44.95-21.69L47.34-24.68L47.48-25.70L45.09-22.75ZM59.92-3.55L60.03-2.81L60.84-3.83L60.73-4.54L59.92-3.55ZM59.64-5.41L59.75-4.68L60.55-5.70L60.45-6.43L59.64-5.41ZM60.17-1.65L60.27-0.95L61.12-1.93L61.01-2.67L60.17-1.65ZM59.11-9.18L59.22-8.44L60.03-9.46L59.92-10.20L59.11-9.18ZM59.39-7.31L59.46-6.57L60.31-7.59L60.20-8.30L59.39-7.31ZM58.83-11.04L58.94-10.34L59.75-11.36L59.64-12.06L58.83-11.04ZM56.69-26.09L56.79-25.38L57.60-26.37L57.50-27.11L56.69-26.09ZM58.59-12.94L58.69-12.20L59.50-13.22L59.39-13.96L58.59-12.94ZM46.25-30.80L46.07-29.78L47.02-30.90L46.91-31.64L46.25-30.80ZM43.61-9.84L43.15-9.28L43.01-8.23L44.31-9.84L43.61-9.84ZM46.46-32.45L46.74-32.80L46.63-33.50L46.63-33.50L46.46-32.45ZM45.44-18.74L46.14-18.74L46.56-19.30L46.70-20.32L45.44-18.74ZM56.97-24.22L57.07-23.48L57.88-24.50L57.78-25.24L56.97-24.22ZM42.77-6.57L42.63-5.55L46.07-9.84L45.40-9.84L42.77-6.57ZM57.21-22.32L57.32-21.62L58.16-22.64L58.06-23.34L57.21-22.32ZM45.47-25.42L45.33-24.40L47.55-27.14L47.44-27.88L45.47-25.42ZM57.50-20.46L57.60-19.72L58.41-20.74L58.30-21.48L57.50-20.46ZM57.78-18.56L57.88-17.86L58.69-18.88L58.59-19.58L57.78-18.56ZM58.02-16.70L58.13-15.96L58.94-16.98L58.83-17.72L58.02-16.70ZM45.86-28.13L45.68-27.07L47.27-29.04L47.16-29.74L45.86-28.13ZM44.70-20.04L44.56-18.98L46.95-21.97L47.09-23.03L44.70-20.04ZM58.30-14.80L58.41-14.10L59.22-15.12L59.11-15.82L58.30-14.80ZM98.47-49.92L92.84-49.92L82.44-32.06L72.03-49.92L66.41-49.92L66.41-0.04L73.54-0.04L73.54-33.19L82.44-17.93L91.33-33.19L91.33-0.04L98.47-0.04L98.47-49.92ZM85.64-21.48L83.81-18.39L90.52-26.72L90.52-27.56L85.64-21.48ZM74.49-27.56L74.49-26.72L75.58-28.05L75.30-28.55L74.49-27.56ZM90.31-29.53L88.52-26.40L90.52-28.93L90.52-29.78L90.31-29.53ZM74.53-29.81L74.49-29.78L74.49-28.93L74.81-29.32L74.53-29.81ZM70.13 0.84L69.46 0.84L68.87 1.58L68.87 2.43L70.13 0.84ZM71.93 0.84L71.22 0.84L69.08 3.52L69.78 3.52L71.93 0.84ZM74.49-18.70L74.49-17.86L75.97-19.69L75.97-20.57L74.49-18.70ZM73.68 0.84L73.02 0.84L70.87 3.52L71.54 3.52L73.68 0.84ZM74.49-16.49L74.49-15.64L75.97-17.47L75.97-18.35L74.49-16.49ZM74.49-14.27L74.49-13.43L75.97-15.26L75.97-16.14L74.49-14.27ZM74.49-12.09L74.49-11.21L75.97-13.04L75.97-13.92L74.49-12.09ZM74.49-20.92L74.49-20.07L75.97-21.90L75.97-22.78L74.49-20.92ZM74.49-25.35L74.49-24.50L75.97-26.33L75.97-27.18L74.49-25.35ZM83.53-16.66L83.81-16.17L90.52-24.50L90.52-25.35L83.53-16.66ZM75.97-0.63L72.63 3.52L73.33 3.52L75.97 0.21L75.97-0.63ZM74.49-1.02L74.49-0.14L75.97-2.00L75.97-2.85L74.49-1.02ZM75.97 1.58L74.42 3.52L75.13 3.52L75.97 2.43L75.97 1.58ZM74.49-9.88L74.49-9L75.97-10.86L75.97-11.71L74.49-9.88ZM74.49-3.23L74.49-2.36L75.97-4.22L75.97-5.06L74.49-3.23ZM74.49-7.66L74.49-6.79L75.97-8.65L75.97-9.49L74.49-7.66ZM74.49-5.45L74.49-4.57L75.97-6.43L75.97-7.28L74.49-5.45ZM74.49-23.13L74.49-22.29L75.97-24.12L75.97-25.00L74.49-23.13ZM100.93-9.49L99.45-7.66L99.45-6.79L100.93-8.65L100.93-9.49ZM100.93-11.71L99.45-9.88L99.45-9L100.93-10.86L100.93-11.71ZM100.93-13.92L99.45-12.09L99.45-11.21L100.93-13.04L100.93-13.92ZM100.93-16.14L99.45-14.27L99.45-13.43L100.93-15.26L100.93-16.14ZM100.93-25.00L99.45-23.13L99.45-22.29L100.93-24.12L100.93-25.00ZM100.93-18.35L99.45-16.49L99.45-15.64L100.93-17.47L100.93-18.35ZM100.93-7.28L99.45-5.45L99.45-4.57L100.93-6.43L100.93-7.28ZM100.93-22.78L99.45-20.92L99.45-20.07L100.93-21.90L100.93-22.78ZM100.93-20.57L99.45-18.70L99.45-17.86L100.93-19.69L100.93-20.57ZM84.30-15.36L84.58-14.87L86.83-17.72L88.66-20.81L84.30-15.36ZM98.64 0.84L97.94 0.84L95.80 3.52L96.50 3.52L98.64 0.84ZM100.93-5.06L99.45-3.23L99.45-2.36L100.93-4.22L100.93-5.06ZM95.06 0.84L94.39 0.84L93.79 1.58L93.79 2.43L95.06 0.84ZM96.85 0.84L96.18 0.84L94.00 3.52L94.71 3.52L96.85 0.84ZM100.93-2.85L99.45-1.02L99.45-0.14L100.93-2.00L100.93-2.85ZM100.93-0.63L97.59 3.52L98.26 3.52L100.93 0.21L100.93-0.63ZM100.93 1.58L99.35 3.52L100.05 3.52L100.93 2.43L100.93 1.58ZM100.93-44.89L99.45-43.07L99.45-42.22L100.93-44.05L100.93-44.89ZM100.93-46.37L100.30-46.37L99.45-45.28L99.45-44.44L100.93-46.27L100.93-46.37ZM100.93-31.61L99.45-29.78L99.45-28.93L100.93-30.76L100.93-31.61ZM100.93-29.39L99.45-27.56L99.45-26.72L100.93-28.55L100.93-29.39ZM100.93-36.04L99.45-34.21L99.45-33.36L100.93-35.19L100.93-36.04ZM100.93-40.46L99.45-38.64L99.45-37.79L100.93-39.62L100.93-40.46ZM100.93-38.25L99.45-36.42L99.45-35.58L100.93-37.41L100.93-38.25ZM100.93-42.68L99.45-40.85L99.45-40.01L100.93-41.84L100.93-42.68ZM100.93-33.82L99.45-31.99L99.45-31.15L100.93-32.98L100.93-33.82ZM100.93-27.18L99.45-25.35L99.45-24.50L100.93-26.33L100.93-27.18ZM112.58-28.55L112.58-42.79L119.68-42.79L119.68-42.79Q121.16-42.79 122.21-41.77L122.21-41.77L122.21-41.77Q123.27-40.71 123.27-39.23L123.27-39.23L123.27-32.10L123.27-32.10Q123.27-30.62 122.21-29.60L122.21-29.60L122.21-29.60Q121.16-28.55 119.68-28.55L119.68-28.55L112.58-28.55ZM112.58-0.04L112.58-21.41L119.68-21.41L119.68-21.41Q124.11-21.41 127.24-24.54L127.24-24.54L127.24-24.54Q130.37-27.70 130.37-32.10L130.37-32.10L130.37-39.23L130.37-39.23Q130.37-43.66 127.24-46.79L127.24-46.79L127.24-46.79Q124.11-49.92 119.68-49.92L119.68-49.92L105.45-49.92L105.45-0.04L112.58-0.04ZM115.54-41.91L114.87-41.91L113.53-40.25L113.53-39.41L115.54-41.91ZM113.71-20.53L113.53-20.36L113.53-19.48L114.38-20.53L113.71-20.53ZM113.53-33.61L113.53-32.77L115.01-34.59L115.01-35.47L113.53-33.61ZM113.53-35.82L113.53-34.98L115.01-36.81L115.01-37.69L113.53-35.82ZM113.53-31.39L113.53-30.55L115.01-32.38L115.01-33.26L113.53-31.39ZM120.18-41.87L118.07-39.23L118.73-39.23L120.74-41.73L120.74-41.73Q120.46-41.84 120.18-41.87L120.18-41.87ZM113.74-29.43L114.41-29.43L115.01-30.16L115.01-31.04L113.74-29.43ZM119.82-39.23L120.53-39.23L121.86-40.89L121.86-40.89Q121.69-41.10 121.48-41.27L121.48-41.27L119.82-39.23ZM113.78-41.91L113.53-41.91L113.53-41.63L113.78-41.91ZM131.36-35.82L131.36-34.98L132.76-36.74L132.76-36.74Q132.73-37.09 132.69-37.48L132.69-37.48L131.36-35.82ZM119.12-41.91L118.42-41.91L116.27-39.23L116.98-39.23L119.12-41.91ZM131.14-41.38L131.18-41.38L131.18-41.38Q131.14-41.38 131.14-41.41L131.14-41.41L131.14-41.41Q131.14-41.41 131.14-41.41L131.14-41.41L131.14-41.41Q131.14-41.48 131.14-41.38L131.14-41.38ZM121.62-39.23L122.14-39.23L122.14-39.23Q122.11-39.23 122.29-39.23L122.29-39.23L122.43-39.41L122.43-39.41Q122.43-39.76 122.32-40.08L122.32-40.08L121.62-39.23ZM113.53-18.14L113.53-17.26L116.17-20.53L115.46-20.53L113.53-18.14ZM131.36-38.04L131.36-37.20L132.45-38.53L132.45-38.53Q132.34-38.85 132.23-39.16L132.23-39.16L131.36-38.04ZM117.33-41.91L116.66-41.91L113.53-38.04L113.53-37.20L115.01-39.02L115.01-39.23L115.18-39.23L117.33-41.91ZM131.36-39.41L131.88-40.08L131.88-40.08Q131.74-40.36 131.64-40.61L131.64-40.61L131.32-40.22L131.32-40.22Q131.36-39.80 131.36-39.41L131.36-39.41ZM125.03-18.25L132.80-27.95L132.80-27.95Q132.83-28.27 132.83-28.55L132.83-28.55L132.83-28.83L124.18-18.07L124.18-18.07Q124.61-18.14 125.03-18.25L125.03-18.25ZM127.77-19.48L132.23-25.00L132.23-25.00Q132.45-25.63 132.59-26.30L132.59-26.30L126.57-18.81L126.57-18.81Q127.21-19.13 127.77-19.48L127.77-19.48ZM125.70-22.15L122.25-17.86L122.25-17.86Q122.57-17.86 122.95-17.89L122.95-17.89L127.35-23.34L127.35-23.34Q126.57-22.68 125.70-22.15L125.70-22.15ZM120.84-20.57L118.66-17.86L119.37-17.86L121.62-20.67L121.62-20.67Q121.23-20.60 120.84-20.57L120.84-20.57ZM122.95-20.99L120.46-17.86L121.13-17.86L123.90-21.30L123.90-21.30Q123.45-21.13 122.95-20.99L122.95-20.99ZM113.53-4.85L113.53-4.01L115.01-5.84L115.01-6.68L113.53-4.85ZM129.98-26.61L132.83-30.16L132.83-31.04L130.76-28.44L130.76-28.44Q130.44-27.49 129.98-26.61L129.98-26.61ZM131.21-30.41L132.83-32.38L132.83-33.26L131.32-31.36L131.32-31.36Q131.29-30.87 131.21-30.41L131.21-30.41ZM117.93-20.53L117.26-20.53L115.11-17.86L115.78-17.86L117.93-20.53ZM113.53-9.28L113.53-8.44L115.01-10.27L115.01-11.11L113.53-9.28ZM113.53-7.07L113.53-6.22L115.01-8.05L115.01-8.89L113.53-7.07ZM113.53-11.50L113.53-10.65L115.01-12.48L115.01-13.32L113.53-11.50ZM119.72-20.53L119.05-20.53L116.87-17.86L117.57-17.86L119.72-20.53ZM113.53-15.93L113.53-15.05L115.01-16.91L115.01-17.75L113.53-15.93ZM113.53-13.71L113.53-12.83L115.01-14.70L115.01-15.54L113.53-13.71ZM132.83-35.47L131.36-33.61L131.36-32.77L132.83-34.59L132.83-35.47ZM113.53-2.64L113.53-1.79L115.01-3.62L115.01-4.46L113.53-2.64ZM111.42 0.84L110.75 0.84L108.61 3.52L109.28 3.52L111.42 0.84ZM113.21 0.84L112.51 0.84L110.37 3.52L111.07 3.52L113.21 0.84ZM109.66 0.84L108.96 0.84L107.91 2.18L107.91 3.02L109.66 0.84ZM113.53-0.42L113.53 0.42L115.01-1.41L115.01-2.25L113.53-0.42ZM113.95 3.52L114.62 3.52L115.01 3.02L115.01 2.18L113.95 3.52ZM112.16 3.52L112.83 3.52L115.01 0.81L115.01-0.04L112.16 3.52ZM144.48-49.92L137.35-49.92L137.35-0.04L162.27-0.04L162.27-7.17L144.48-7.17L144.48-49.92ZM146.91-25.45L146.91-26.30L145.43-24.47L145.43-23.63L146.91-25.45ZM146.91-21.02L146.91-21.87L145.43-20.04L145.43-19.20L146.91-21.02ZM146.91-23.24L146.91-24.08L145.43-22.25L145.43-21.41L146.91-23.24ZM146.91-18.81L146.91-19.65L145.43-17.82L145.43-16.98L146.91-18.81ZM146.91-32.10L146.91-32.94L145.43-31.11L145.43-30.27L146.91-32.10ZM146.91-29.88L146.91-30.73L145.43-28.90L145.43-28.05L146.91-29.88ZM146.91-27.67L146.91-28.51L145.43-26.68L145.43-25.84L146.91-27.67ZM146.91-9.95L146.91-10.83L145.43-8.96L145.43-8.12L146.91-9.95ZM139.81 1.09L140.02 0.84L139.81 0.84L139.81 1.09ZM146.91-14.38L146.91-15.26L145.43-13.39L145.43-12.55L146.91-14.38ZM146.91-12.16L146.91-13.04L145.43-11.18L145.43-10.34L146.91-12.16ZM146.91-16.59L146.91-17.44L145.43-15.61L145.43-14.77L146.91-16.59ZM146.91-36.53L146.91-37.37L145.43-35.54L145.43-34.70L146.91-36.53ZM146.91-43.17L146.91-44.02L145.43-42.19L145.43-41.34L146.91-43.17ZM146.91-40.96L146.91-41.80L145.43-39.97L145.43-39.13L146.91-40.96ZM146.91-38.74L146.91-39.59L145.43-37.76L145.43-36.91L146.91-38.74ZM146.91-8.05L146.91-8.61L146.49-8.05L146.91-8.05ZM145.93-46.37L145.43-46.37L145.43-45.74L145.93-46.37ZM146.91-45.39L146.91-46.23L145.43-44.40L145.43-43.52L146.91-45.39ZM146.91-34.31L146.91-35.16L145.43-33.33L145.43-32.48L146.91-34.31ZM164.73 2.46L163.89 3.52L164.56 3.52L164.73 3.30L164.73 2.46ZM163.15 0.84L162.48 0.84L160.34 3.52L161.01 3.52L163.15 0.84ZM161.39 0.84L160.69 0.84L158.55 3.52L159.21 3.52L161.39 0.84ZM164.73 0.25L162.10 3.52L162.80 3.52L164.73 1.09L164.73 0.25ZM164.73-1.97L163.26-0.14L163.26 0.74L164.73-1.13L164.73-1.97ZM159.60 0.84L158.90 0.84L156.75 3.52L157.46 3.52L159.60 0.84ZM164.73-3.62L164.28-3.62L163.26-2.32L163.26-1.48L164.73-3.30L164.73-3.62ZM154.26 0.84L153.55 0.84L151.41 3.52L152.11 3.52L154.26 0.84ZM150.71 0.84L150.00 0.84L147.86 3.52L148.53 3.52L150.71 0.84ZM157.81 0.84L157.14 0.84L155.00 3.52L155.66 3.52L157.81 0.84ZM147.12 0.84L146.45 0.84L144.31 3.52L144.98 3.52L147.12 0.84ZM152.46 0.84L151.80 0.84L149.65 3.52L150.32 3.52L152.46 0.84ZM156.05 0.84L155.35 0.84L153.20 3.52L153.87 3.52L156.05 0.84ZM145.36 0.84L144.66 0.84L142.52 3.52L143.22 3.52L145.36 0.84ZM143.57 0.84L142.87 0.84L140.72 3.52L141.43 3.52L143.57 0.84ZM141.78 0.84L141.11 0.84L139.81 2.46L139.81 3.30L141.78 0.84ZM148.91 0.84L148.21 0.84L146.07 3.52L146.77 3.52L148.91 0.84ZM194.18-49.92L169.25-49.92L169.25-0.04L194.18-0.04L194.18-7.17L176.39-7.17L176.39-21.41L190.63-21.41L190.63-28.55L176.39-28.55L176.39-42.79L194.18-42.79L194.18-49.92ZM177.20 0.84L176.53 0.84L174.38 3.52L175.05 3.52L177.20 0.84ZM187.88 0.84L187.21 0.84L185.07 3.52L185.74 3.52L187.88 0.84ZM186.13 0.84L185.42 0.84L183.28 3.52L183.98 3.52L186.13 0.84ZM184.33 0.84L183.66 0.84L181.48 3.52L182.19 3.52L184.33 0.84ZM189.68 0.84L189.01 0.84L186.83 3.52L187.53 3.52L189.68 0.84ZM195.02 0.84L194.35 0.84L192.17 3.52L192.88 3.52L195.02 0.84ZM191.47 0.84L190.77 0.84L188.62 3.52L189.32 3.52L191.47 0.84ZM193.23 0.84L192.56 0.84L190.41 3.52L191.08 3.52L193.23 0.84ZM173.64 0.84L172.98 0.84L171.71 2.43L171.71 3.27L173.64 0.84ZM182.54 0.84L181.87 0.84L179.73 3.52L180.39 3.52L182.54 0.84ZM175.44 0.84L174.73 0.84L172.59 3.52L173.29 3.52L175.44 0.84ZM180.78 0.84L180.08 0.84L177.93 3.52L178.64 3.52L180.78 0.84ZM178.99 0.84L178.32 0.84L176.14 3.52L176.84 3.52L178.99 0.84ZM178.81-8.05L178.81-8.65L178.36-8.05L178.81-8.05ZM181.59-17.86L183.73-20.53L183.03-20.53L180.89-17.86L181.59-17.86ZM180.15-20.53L179.48-20.53L177.34-17.89L177.34-17.02L180.15-20.53ZM179.80-17.86L181.94-20.53L181.27-20.53L179.09-17.86L179.80-17.86ZM188.09-39.23L190.24-41.91L189.54-41.91L187.39-39.23L188.09-39.23ZM185.14-17.86L187.29-20.53L186.62-20.53L184.44-17.86L185.14-17.86ZM178.43-29.43L178.81-29.92L178.81-30.80L177.72-29.43L178.43-29.43ZM178.81-16.66L178.81-17.51L177.34-15.68L177.34-14.80L178.81-16.66ZM178.81-34.35L178.81-35.23L177.34-33.36L177.34-32.52L178.81-34.35ZM178.81-38.78L178.81-39.23L179.20-39.23L181.34-41.91L180.64-41.91L177.34-37.79L177.34-36.95L178.81-38.78ZM178.81-36.56L178.81-37.44L177.34-35.58L177.34-34.73L178.81-36.56ZM178.81-12.23L178.81-13.08L177.34-11.25L177.34-10.41L178.81-12.23ZM178.81-14.45L178.81-15.29L177.34-13.46L177.34-12.59L178.81-14.45ZM178.81-10.02L178.81-10.86L177.34-9.04L177.34-8.19L178.81-10.02ZM177.69-20.53L177.34-20.11L177.34-19.23L178.39-20.53L177.69-20.53ZM178.81-32.13L178.81-33.01L177.34-31.15L177.34-30.30L178.81-32.13ZM193.09-23.31L193.09-24.15L191.61-22.32L191.61-21.45L193.09-23.31ZM193.79-41.91L193.12-41.91L190.98-39.23L191.64-39.23L193.79-41.91ZM189.85-39.23L192.03-41.91L191.33-41.91L189.18-39.23L189.85-39.23ZM191.96-25.00L191.61-24.54L191.61-23.66L192.66-25.00L191.96-25.00ZM195.62-46.37L195.16-46.37L195.16-45.81L195.62-46.37ZM183.35-17.86L185.49-20.53L184.82-20.53L182.68-17.86L183.35-17.86ZM192.28-17.86L193.09-18.88L193.09-19.72L191.57-17.86L192.28-17.86ZM184.51-39.23L186.69-41.91L185.98-41.91L183.84-39.23L184.51-39.23ZM186.30-39.23L188.45-41.91L187.78-41.91L185.63-39.23L186.30-39.23ZM186.93-17.86L189.08-20.53L188.38-20.53L186.23-17.86L186.93-17.86ZM177.34-41.91L177.34-41.38L177.76-41.91L177.34-41.91ZM188.69-17.86L190.84-20.53L190.17-20.53L188.02-17.86L188.69-17.86ZM180.96-39.23L183.10-41.91L182.43-41.91L180.29-39.23L180.96-39.23ZM182.75-39.23L184.89-41.91L184.19-41.91L182.05-39.23L182.75-39.23ZM177.34-40.01L177.34-39.16L179.55-41.91L178.85-41.91L177.34-40.01ZM193.09-21.09L193.09-21.94L189.78-17.86L190.48-17.86L193.09-21.09ZM171.71 1.05L171.85 0.84L171.71 0.84L171.71 1.05ZM196.64 2.43L195.76 3.52L196.43 3.52L196.64 3.27L196.64 2.43ZM196.64-41.84L194.53-39.23L195.20-39.23L196.64-40.99L196.64-41.84ZM196.64-2.00L195.16-0.18L195.16 0.67L196.64-1.16L196.64-2.00ZM196.64-39.66L196.32-39.23L196.64-39.23L196.64-39.66ZM196.64-46.27L195.16-44.44L195.16-43.59L196.64-45.42L196.64-46.27ZM196.64-44.05L195.16-42.22L195.16-41.91L194.88-41.91L192.73-39.23L193.44-39.23L196.64-43.21L196.64-44.05ZM196.64-3.62L196.14-3.62L195.16-2.39L195.16-1.55L196.64-3.38L196.64-3.62ZM196.64 0.21L193.96 3.52L194.67 3.52L196.64 1.05L196.64 0.21ZM227.15-49.92L220.01-49.92L220.01-0.04L244.94-0.04L244.94-7.17L227.15-7.17L227.15-49.92ZM229.57-25.45L229.57-26.30L228.10-24.47L228.10-23.63L229.57-25.45ZM229.57-21.02L229.57-21.87L228.10-20.04L228.10-19.20L229.57-21.02ZM229.57-23.24L229.57-24.08L228.10-22.25L228.10-21.41L229.57-23.24ZM229.57-18.81L229.57-19.65L228.10-17.82L228.10-16.98L229.57-18.81ZM229.57-32.10L229.57-32.94L228.10-31.11L228.10-30.27L229.57-32.10ZM229.57-29.88L229.57-30.73L228.10-28.90L228.10-28.05L229.57-29.88ZM229.57-27.67L229.57-28.51L228.10-26.68L228.10-25.84L229.57-27.67ZM229.57-9.95L229.57-10.83L228.10-8.96L228.10-8.12L229.57-9.95ZM222.47 1.09L222.68 0.84L222.47 0.84L222.47 1.09ZM229.57-14.38L229.57-15.26L228.10-13.39L228.10-12.55L229.57-14.38ZM229.57-12.16L229.57-13.04L228.10-11.18L228.10-10.34L229.57-12.16ZM229.57-16.59L229.57-17.44L228.10-15.61L228.10-14.77L229.57-16.59ZM229.57-36.53L229.57-37.37L228.10-35.54L228.10-34.70L229.57-36.53ZM229.57-43.17L229.57-44.02L228.10-42.19L228.10-41.34L229.57-43.17ZM229.57-40.96L229.57-41.80L228.10-39.97L228.10-39.13L229.57-40.96ZM229.57-38.74L229.57-39.59L228.10-37.76L228.10-36.91L229.57-38.74ZM229.57-8.05L229.57-8.61L229.15-8.05L229.57-8.05ZM228.59-46.37L228.10-46.37L228.10-45.74L228.59-46.37ZM229.57-45.39L229.57-46.23L228.10-44.40L228.10-43.52L229.57-45.39ZM229.57-34.31L229.57-35.16L228.10-33.33L228.10-32.48L229.57-34.31ZM247.40 2.46L246.55 3.52L247.22 3.52L247.40 3.30L247.40 2.46ZM245.82 0.84L245.15 0.84L243.00 3.52L243.67 3.52L245.82 0.84ZM244.06 0.84L243.36 0.84L241.21 3.52L241.88 3.52L244.06 0.84ZM247.40 0.25L244.76 3.52L245.46 3.52L247.40 1.09L247.40 0.25ZM247.40-1.97L245.92-0.14L245.92 0.74L247.40-1.13L247.40-1.97ZM242.27 0.84L241.56 0.84L239.42 3.52L240.12 3.52L242.27 0.84ZM247.40-3.62L246.94-3.62L245.92-2.32L245.92-1.48L247.40-3.30L247.40-3.62ZM236.92 0.84L236.22 0.84L234.07 3.52L234.78 3.52L236.92 0.84ZM233.37 0.84L232.67 0.84L230.52 3.52L231.19 3.52L233.37 0.84ZM240.47 0.84L239.80 0.84L237.66 3.52L238.33 3.52L240.47 0.84ZM229.79 0.84L229.12 0.84L226.97 3.52L227.64 3.52L229.79 0.84ZM235.13 0.84L234.46 0.84L232.32 3.52L232.98 3.52L235.13 0.84ZM238.71 0.84L238.01 0.84L235.87 3.52L236.54 3.52L238.71 0.84ZM228.03 0.84L227.32 0.84L225.18 3.52L225.88 3.52L228.03 0.84ZM226.23 0.84L225.53 0.84L223.39 3.52L224.09 3.52L226.23 0.84ZM224.44 0.84L223.77 0.84L222.47 2.46L222.47 3.30L224.44 0.84ZM231.58 0.84L230.88 0.84L228.73 3.52L229.43 3.52L231.58 0.84ZM259.05-10.72L259.05-39.23L259.05-39.23Q259.05-40.71 260.07-41.77L260.07-41.77L260.07-41.77Q261.13-42.79 262.60-42.79L262.60-42.79L266.15-42.79L266.15-42.79Q267.63-42.79 268.68-41.77L268.68-41.77L268.68-41.77Q269.74-40.71 269.74-39.23L269.74-39.23L269.74-10.72L269.74-10.72Q269.74-9.25 268.68-8.23L268.68-8.23L268.68-8.23Q267.63-7.17 266.15-7.17L266.15-7.17L262.60-7.17L262.60-7.17Q261.13-7.17 260.07-8.23L260.07-8.23L260.07-8.23Q259.05-9.25 259.05-10.72L259.05-10.72ZM262.60-0.04L266.15-0.04L266.15-0.04Q270.58-0.04 273.71-3.16L273.71-3.16L273.71-3.16Q276.84-6.33 276.84-10.72L276.84-10.72L276.84-39.23L276.84-39.23Q276.84-43.66 273.71-46.79L273.71-46.79L273.71-46.79Q270.58-49.92 266.15-49.92L266.15-49.92L262.60-49.92L262.60-49.92Q258.17-49.92 255.04-46.79L255.04-46.79L255.04-46.79Q251.91-43.66 251.91-39.23L251.91-39.23L251.91-10.72L251.91-10.72Q251.91-6.33 255.04-3.16L255.04-3.16L255.04-3.16Q258.17-0.04 262.60-0.04L262.60-0.04ZM277.79-40.18L278.11-40.57L278.11-40.57Q277.96-40.85 277.82-41.06L277.82-41.06L277.68-40.92L277.68-40.92Q277.75-40.57 277.79-40.18L277.79-40.18ZM261.20-8.51L261.48-8.86L261.48-9.70L260.81-8.86L260.81-8.86Q260.98-8.65 261.20-8.51L261.20-8.51ZM277.82-38.85L277.82-38.00L278.74-39.13L278.74-39.13Q278.63-39.45 278.49-39.69L278.49-39.69L277.82-38.85ZM265.66-39.23L266.33-39.23L267.98-41.27L267.98-41.27Q267.77-41.45 267.52-41.55L267.52-41.55L265.66-39.23ZM264.92-41.91L264.25-41.91L260-36.63L260-35.79L264.92-41.91ZM264.54-39.20L266.68-41.87L266.68-41.87Q266.43-41.91 266.26-41.91L266.26-41.91L266.01-41.91L263.62-38.95L263.62-38.95Q264.04-39.13 264.54-39.20L264.54-39.20ZM267.42-39.23L268.12-39.23L268.79-40.04L268.79-40.04Q268.68-40.32 268.54-40.61L268.54-40.61L267.42-39.23ZM260.28-9.56L261.48-11.07L261.48-11.92L260.07-10.16L260.07-10.16Q260.14-9.84 260.28-9.56L260.28-9.56ZM260-14.52L260-13.68L261.48-15.50L261.48-16.35L260-14.52ZM260-12.30L260-11.46L261.48-13.29L261.48-14.13L260-12.30ZM260-34.42L260-33.57L261.48-35.40L261.48-35.68L261.48-35.68Q261.48-36 261.55-36.35L261.55-36.35L260-34.42ZM260-18.95L260-18.07L261.48-19.93L261.48-20.78L260-18.95ZM260-23.38L260-22.50L261.48-24.36L261.48-25.21L260-23.38ZM260-29.99L260-29.14L261.48-30.97L261.48-31.85L260-29.99ZM260-16.73L260-15.86L261.48-17.72L261.48-18.56L260-16.73ZM260-25.59L260-24.71L261.48-26.58L261.48-27.42L260-25.59ZM260-27.81L260-26.93L261.48-28.79L261.48-29.64L260-27.81ZM260-21.16L260-20.29L261.48-22.15L261.48-22.99L260-21.16ZM263.13-41.91L262.67-41.91L262.67-41.91Q262.60-41.91 262.46-41.91L262.46-41.91L260-38.85L260-38.00L263.13-41.91ZM260-32.20L260-31.36L261.48-33.19L261.48-34.07L260-32.20ZM277.82-36.63L277.82-35.79L279.16-37.44L279.16-37.44Q279.09-37.79 279.02-38.11L279.02-38.11L277.82-36.63ZM267.28 0.81L265.10 3.52L265.77 3.52L268.05 0.70L268.05 0.70Q267.70 0.77 267.28 0.81L267.28 0.81ZM271.43 3.13L279.30-6.61L279.30-6.61Q279.30-6.89 279.30-7.17L279.30-7.17L279.30-7.49L270.58 3.34L270.58 3.34Q271.00 3.23 271.43 3.13L271.43 3.13ZM274.17 1.97L278.70-3.69L278.70-3.69Q278.95-4.36 279.09-4.99L279.09-4.99L272.97 2.57L272.97 2.57Q273.61 2.29 274.17 1.97L274.17 1.97ZM269.39 0.42L266.89 3.52L267.56 3.52L270.30 0.11L270.30 0.11Q269.88 0.28 269.39 0.42L269.39 0.42ZM277.82-12.30L277.82-11.46L279.30-13.29L279.30-14.13L277.82-12.30ZM276.52-5.38L279.30-8.86L279.30-9.70L277.26-7.17L277.26-7.17Q276.95-6.26 276.52-5.38L276.52-5.38ZM277.72-9.07L279.30-11.07L279.30-11.92L277.79-10.05L277.79-10.05Q277.79-9.56 277.72-9.07L277.72-9.07ZM261.93 0.81L260.56 2.53L260.56 2.53Q260.81 2.64 261.05 2.74L261.05 2.74L262.60 0.84L262.60 0.84Q262.29 0.84 261.93 0.81L261.93 0.81ZM258.88 0.21L258.21 1.02L258.21 1.02Q258.42 1.20 258.63 1.37L258.63 1.37L259.40 0.39L259.40 0.39Q259.12 0.28 258.88 0.21L258.88 0.21ZM266.15 0.84L265.45 0.84L263.41 3.38L263.41 3.38Q263.69 3.45 264.04 3.48L264.04 3.48L266.15 0.84ZM256.31-1.05L256.31-1.05L256.31-1.05Q256.45-0.81 256.63-0.60L256.63-0.60L256.77-0.77L256.77-0.77Q256.55-0.91 256.31-1.05L256.31-1.05ZM257.54-0.35L257.19 0.07L257.19 0.07Q257.36 0.25 257.57 0.46L257.57 0.46L258.03-0.14L258.03-0.14Q257.79-0.25 257.54-0.35L257.54-0.35ZM264.36 0.84L263.69 0.84L261.90 3.06L261.90 3.06Q262.18 3.13 262.46 3.20L262.46 3.20L264.36 0.84ZM260.32 0.60L259.33 1.83L259.33 1.83Q259.54 2.00 259.79 2.11L259.79 2.11L260.91 0.70L260.91 0.70Q260.63 0.67 260.32 0.60L260.32 0.60ZM277.82-14.52L277.82-13.68L279.30-15.50L279.30-16.35L277.82-14.52ZM272.09-0.74L268.65 3.52L268.65 3.52Q269 3.52 269.35 3.48L269.35 3.48L273.68-1.86L273.68-1.86Q272.94-1.23 272.09-0.74L272.09-0.74ZM279.27-36.25L277.82-34.42L277.82-33.57L279.30-35.40L279.30-35.68L279.30-35.68Q279.30-35.93 279.27-36.25L279.27-36.25ZM277.82-18.95L277.82-18.07L279.30-19.93L279.30-20.78L277.82-18.95ZM277.82-21.16L277.82-20.29L279.30-22.15L279.30-22.99L277.82-21.16ZM277.82-23.38L277.82-22.50L279.30-24.36L279.30-25.21L277.82-23.38ZM277.82-16.73L277.82-15.86L279.30-17.72L279.30-18.56L277.82-16.73ZM277.82-27.81L277.82-26.93L279.30-28.79L279.30-29.64L277.82-27.81ZM277.82-29.99L277.82-29.14L279.30-30.97L279.30-31.85L277.82-29.99ZM277.82-32.20L277.82-31.36L279.30-33.19L279.30-34.07L277.82-32.20ZM277.82-25.59L277.82-24.71L279.30-26.58L279.30-27.42L277.82-25.59ZM294.50-0.04L298.05-0.04L298.05-0.04Q302.48-0.04 305.61-3.16L305.61-3.16L305.61-3.16Q308.74-6.33 308.74-10.72L308.74-10.72L308.74-28.55L296.30-28.55L296.30-21.41L301.64-21.41L301.64-10.72L301.64-10.72Q301.64-9.25 300.59-8.23L300.59-8.23L300.59-8.23Q299.53-7.17 298.05-7.17L298.05-7.17L294.50-7.17L294.50-7.17Q293.03-7.17 291.97-8.23L291.97-8.23L291.97-8.23Q290.95-9.25 290.95-10.72L290.95-10.72L290.95-39.23L290.95-39.23Q290.95-40.71 291.97-41.77L291.97-41.77L291.97-41.77Q293.03-42.79 294.50-42.79L294.50-42.79L298.05-42.79L298.05-42.79Q299.53-42.79 300.59-41.77L300.59-41.77L300.59-41.77Q301.64-40.71 301.64-39.23L301.64-39.23L301.64-35.68L308.74-35.68L308.74-39.23L308.74-39.23Q308.74-43.66 305.61-46.79L305.61-46.79L305.61-46.79Q302.48-49.92 298.05-49.92L298.05-49.92L294.50-49.92L294.50-49.92Q290.07-49.92 286.95-46.79L286.95-46.79L286.95-46.79Q283.82-43.66 283.82-39.23L283.82-39.23L283.82-10.72L283.82-10.72Q283.82-6.33 286.95-3.16L286.95-3.16L286.95-3.16Q290.07-0.04 294.50-0.04L294.50-0.04ZM291.90-39.34L293.91-41.80L293.91-41.80Q292.01-41.31 291.90-39.34L291.90-39.34ZM293.38-27.88L293.38-28.76L291.90-26.89L291.90-26.05L293.38-27.88ZM293.38-8.33L293.38-8.82L293.13-8.51L293.13-8.51Q293.24-8.44 293.38-8.33L293.38-8.33ZM293.38-12.41L293.38-13.25L291.90-11.43L291.90-10.72L291.90-10.72Q291.90-10.72 291.94-10.58L291.94-10.58L293.38-12.41ZM293.38-34.52L293.38-35.37L291.90-33.54L291.90-32.70L293.38-34.52ZM300.83-17.86L300.83-18.07L300.66-17.86L300.83-17.86ZM293.38-30.09L293.38-30.97L291.90-29.11L291.90-28.27L293.38-30.09ZM293.38-32.31L293.38-33.15L291.90-31.32L291.90-30.48L293.38-32.31ZM293.38-10.20L293.38-11.04L292.18-9.56L292.18-9.56Q292.32-9.28 292.50-9.07L292.50-9.07L293.38-10.20ZM304.07-33.15L304.07-32.31L306.07-34.77L305.37-34.77L304.07-33.15ZM305.68-32.10L307.83-34.77L307.16-34.77L305.02-32.10L305.68-32.10ZM309.73-35.75L309.73-34.91L311.17-36.67L311.17-36.67Q311.13-37.05 311.06-37.41L311.06-37.41L309.73-35.75ZM304.07-34.77L304.07-34.52L304.28-34.77L304.07-34.77ZM300.73-39.23L300.80-39.34L300.80-39.34Q300.80-39.69 300.69-40.04L300.69-40.04L300.06-39.23L300.52-39.23L300.52-39.23Q300.55-39.23 300.73-39.23L300.73-39.23ZM298.97-39.23L300.27-40.85L300.27-40.85Q300.09-41.06 299.88-41.24L299.88-41.24L298.27-39.23L298.97-39.23ZM309.97-25.00L309.73-24.68L309.73-23.84L310.64-25.00L309.97-25.00ZM296.96-39.23L297.18-39.23L299.14-41.70L299.14-41.70Q298.90-41.80 298.62-41.87L298.62-41.87L296.47-39.20L296.47-39.20Q296.72-39.23 296.96-39.23L296.96-39.23ZM293.38-14.63L293.38-15.47L291.90-13.64L291.90-12.76L293.38-14.63ZM291.90-37.97L291.90-37.13L295.77-41.91L295.07-41.91L291.90-37.97ZM294.82-38.50L297.53-41.91L296.86-41.91L291.90-35.75L291.90-34.91L293.73-37.16L293.73-37.16Q294.08-37.97 294.82-38.50L294.82-38.50ZM293.38-19.02L293.38-19.90L291.90-18.07L291.90-17.19L293.38-19.02ZM293.38-21.23L293.38-22.11L291.90-20.25L291.90-19.41L293.38-21.23ZM293.38-23.45L293.38-24.33L291.90-22.46L291.90-21.62L293.38-23.45ZM293.38-16.84L293.38-17.68L291.90-15.86L291.90-14.98L293.38-16.84ZM299.25-20.53L298.72-19.90L298.72-19.02L299.92-20.53L299.25-20.53ZM300.83-19.41L300.83-20.25L298.86-17.86L299.57-17.86L300.83-19.41ZM293.38-25.66L293.38-26.54L291.90-24.68L291.90-23.84L293.38-25.66ZM306.77-32.10L307.48-32.10L309.62-34.77L308.92-34.77L306.77-32.10ZM309.73-37.97L309.73-37.13L310.82-38.50L310.82-38.50Q310.75-38.78 310.64-39.09L310.64-39.09L309.73-37.97ZM309.55-41.31L309.55-41.34L309.55-41.34Q309.66-41.24 309.52-41.41L309.52-41.41L309.52-41.41Q309.52-41.48 309.55-41.31L309.55-41.31ZM309.73-39.34L310.29-40.01L310.29-40.01Q310.15-40.29 310.01-40.54L310.01-40.54L309.69-40.15L309.69-40.15Q309.73-39.73 309.73-39.34L309.73-39.34ZM305.65-1.93L301.29 3.48L301.29 3.48Q301.71 3.45 302.06 3.41L302.06 3.41L311.20-7.98L311.20-8.82L308.36-5.31L308.36-5.31Q307.34-3.38 305.65-1.93L305.65-1.93ZM309.38-7.91L311.20-10.20L311.20-11.04L309.59-9.04L309.59-9.04Q309.52-8.47 309.38-7.91L309.38-7.91ZM309.73-11.43L309.73-10.72L309.73-10.72Q309.73-10.86 309.73-10.55L309.73-10.55L311.20-12.41L311.20-13.25L309.73-11.43ZM307.97 0.49L309.59-1.55L309.59-1.55Q310.22-2.53 310.61-3.66L310.61-3.66L306.11 1.93L306.11 1.93Q307.13 1.30 307.97 0.49L307.97 0.49ZM309.73-20.25L309.73-19.41L311.20-21.23L311.20-22.11L309.73-20.25ZM309.73-18.07L309.73-17.19L311.20-19.02L311.20-19.90L309.73-18.07ZM309.73-15.86L309.73-14.98L311.20-16.84L311.20-17.68L309.73-15.86ZM309.73-13.64L309.73-12.76L311.20-14.63L311.20-15.47L309.73-13.64ZM304.31 2.81L311.10-5.63L311.10-5.63Q311.17-6.12 311.17-6.57L311.17-6.57L303.36 3.13L303.36 3.13Q303.86 2.99 304.31 2.81L304.31 2.81ZM292.85 0.70L291.69 2.14L291.69 2.14Q291.94 2.25 292.18 2.39L292.18 2.39L293.48 0.77L293.48 0.77Q293.13 0.77 292.85 0.70L292.85 0.70ZM302.24 0.11L299.50 3.52L300.16 3.52L303.29-0.39L303.29-0.39Q302.80-0.11 302.24 0.11L302.24 0.11ZM295.21 0.84L294.50 0.84L292.99 2.74L292.99 2.74Q293.24 2.85 293.52 2.95L293.52 2.95L295.21 0.84ZM291.34 0.39L290.53 1.37L290.53 1.37Q290.74 1.55 290.95 1.69L290.95 1.69L291.90 0.53L291.90 0.53Q291.62 0.46 291.34 0.39L291.34 0.39ZM297 0.84L296.30 0.84L294.40 3.20L294.40 3.20Q294.68 3.27 295.00 3.34L295.00 3.34L297 0.84ZM299.99 0.70L297.70 3.52L298.41 3.52L300.80 0.53L300.80 0.53Q300.38 0.63 299.99 0.70L299.99 0.70ZM298.16 0.84L298.09 0.84L295.98 3.48L295.98 3.48Q296.26 3.48 296.61 3.52L296.61 3.52L298.79 0.81L298.79 0.81Q298.44 0.84 298.16 0.84L298.16 0.84ZM289.97-0.14L289.48 0.46L289.48 0.46Q289.69 0.63 289.86 0.84L289.86 0.84L290.46 0.07L290.46 0.07Q290.21 0 289.97-0.14L289.97-0.14ZM311.20-35.37L308.57-32.10L309.23-32.10L311.20-34.52L311.20-35.37ZM310.36-32.10L311.03-32.10L311.20-32.31L311.20-33.15L310.36-32.10ZM309.73-22.46L309.73-21.62L311.20-23.45L311.20-24.33L309.73-22.46ZM288.70-0.77L288.53-0.60L288.53-0.60Q288.70-0.39 288.88-0.18L288.88-0.18L289.16-0.49L289.16-0.49Q288.95-0.63 288.70-0.77L288.70-0.77ZM322.86-10.72L322.86-39.23L322.86-39.23Q322.86-40.71 323.88-41.77L323.88-41.77L323.88-41.77Q324.93-42.79 326.41-42.79L326.41-42.79L329.96-42.79L329.96-42.79Q331.43-42.79 332.49-41.77L332.49-41.77L332.49-41.77Q333.54-40.71 333.54-39.23L333.54-39.23L333.54-10.72L333.54-10.72Q333.54-9.25 332.49-8.23L332.49-8.23L332.49-8.23Q331.43-7.17 329.96-7.17L329.96-7.17L326.41-7.17L326.41-7.17Q324.93-7.17 323.88-8.23L323.88-8.23L323.88-8.23Q322.86-9.25 322.86-10.72L322.86-10.72ZM326.41-0.04L329.96-0.04L329.96-0.04Q334.39-0.04 337.52-3.16L337.52-3.16L337.52-3.16Q340.64-6.33 340.64-10.72L340.64-10.72L340.64-39.23L340.64-39.23Q340.64-43.66 337.52-46.79L337.52-46.79L337.52-46.79Q334.39-49.92 329.96-49.92L329.96-49.92L326.41-49.92L326.41-49.92Q321.98-49.92 318.85-46.79L318.85-46.79L318.85-46.79Q315.72-43.66 315.72-39.23L315.72-39.23L315.72-10.72L315.72-10.72Q315.72-6.33 318.85-3.16L318.85-3.16L318.85-3.16Q321.98-0.04 326.41-0.04L326.41-0.04ZM341.59-40.18L341.91-40.57L341.91-40.57Q341.77-40.85 341.63-41.06L341.63-41.06L341.49-40.92L341.49-40.92Q341.56-40.57 341.59-40.18L341.59-40.18ZM325-8.51L325.28-8.86L325.28-9.70L324.61-8.86L324.61-8.86Q324.79-8.65 325-8.51L325-8.51ZM341.63-38.85L341.63-38.00L342.54-39.13L342.54-39.13Q342.44-39.45 342.30-39.69L342.30-39.69L341.63-38.85ZM329.46-39.23L330.13-39.23L331.79-41.27L331.79-41.27Q331.57-41.45 331.33-41.55L331.33-41.55L329.46-39.23ZM328.73-41.91L328.06-41.91L323.80-36.63L323.80-35.79L328.73-41.91ZM328.34-39.20L330.48-41.87L330.48-41.87Q330.24-41.91 330.06-41.91L330.06-41.91L329.82-41.91L327.43-38.95L327.43-38.95Q327.85-39.13 328.34-39.20L328.34-39.20ZM331.22-39.23L331.93-39.23L332.59-40.04L332.59-40.04Q332.49-40.32 332.35-40.61L332.35-40.61L331.22-39.23ZM324.09-9.56L325.28-11.07L325.28-11.92L323.88-10.16L323.88-10.16Q323.95-9.84 324.09-9.56L324.09-9.56ZM323.80-14.52L323.80-13.68L325.28-15.50L325.28-16.35L323.80-14.52ZM323.80-12.30L323.80-11.46L325.28-13.29L325.28-14.13L323.80-12.30ZM323.80-34.42L323.80-33.57L325.28-35.40L325.28-35.68L325.28-35.68Q325.28-36 325.35-36.35L325.35-36.35L323.80-34.42ZM323.80-18.95L323.80-18.07L325.28-19.93L325.28-20.78L323.80-18.95ZM323.80-23.38L323.80-22.50L325.28-24.36L325.28-25.21L323.80-23.38ZM323.80-29.99L323.80-29.14L325.28-30.97L325.28-31.85L323.80-29.99ZM323.80-16.73L323.80-15.86L325.28-17.72L325.28-18.56L323.80-16.73ZM323.80-25.59L323.80-24.71L325.28-26.58L325.28-27.42L323.80-25.59ZM323.80-27.81L323.80-26.93L325.28-28.79L325.28-29.64L323.80-27.81ZM323.80-21.16L323.80-20.29L325.28-22.15L325.28-22.99L323.80-21.16ZM326.93-41.91L326.48-41.91L326.48-41.91Q326.41-41.91 326.27-41.91L326.27-41.91L323.80-38.85L323.80-38.00L326.93-41.91ZM323.80-32.20L323.80-31.36L325.28-33.19L325.28-34.07L323.80-32.20ZM341.63-36.63L341.63-35.79L342.96-37.44L342.96-37.44Q342.89-37.79 342.82-38.11L342.82-38.11L341.63-36.63ZM331.08 0.81L328.90 3.52L329.57 3.52L331.86 0.70L331.86 0.70Q331.50 0.77 331.08 0.81L331.08 0.81ZM335.23 3.13L343.11-6.61L343.11-6.61Q343.11-6.89 343.11-7.17L343.11-7.17L343.11-7.49L334.39 3.34L334.39 3.34Q334.81 3.23 335.23 3.13L335.23 3.13ZM337.97 1.97L342.51-3.69L342.51-3.69Q342.75-4.36 342.89-4.99L342.89-4.99L336.78 2.57L336.78 2.57Q337.41 2.29 337.97 1.97L337.97 1.97ZM333.19 0.42L330.70 3.52L331.36 3.52L334.11 0.11L334.11 0.11Q333.68 0.28 333.19 0.42L333.19 0.42ZM341.63-12.30L341.63-11.46L343.11-13.29L343.11-14.13L341.63-12.30ZM340.33-5.38L343.11-8.86L343.11-9.70L341.07-7.17L341.07-7.17Q340.75-6.26 340.33-5.38L340.33-5.38ZM341.52-9.07L343.11-11.07L343.11-11.92L341.59-10.05L341.59-10.05Q341.59-9.56 341.52-9.07L341.52-9.07ZM325.74 0.81L324.37 2.53L324.37 2.53Q324.61 2.64 324.86 2.74L324.86 2.74L326.41 0.84L326.41 0.84Q326.09 0.84 325.74 0.81L325.74 0.81ZM322.68 0.21L322.01 1.02L322.01 1.02Q322.22 1.20 322.43 1.37L322.43 1.37L323.21 0.39L323.21 0.39Q322.93 0.28 322.68 0.21L322.68 0.21ZM329.96 0.84L329.25 0.84L327.21 3.38L327.21 3.38Q327.50 3.45 327.85 3.48L327.85 3.48L329.96 0.84ZM320.11-1.05L320.11-1.05L320.11-1.05Q320.25-0.81 320.43-0.60L320.43-0.60L320.57-0.77L320.57-0.77Q320.36-0.91 320.11-1.05L320.11-1.05ZM321.34-0.35L320.99 0.07L320.99 0.07Q321.17 0.25 321.38 0.46L321.38 0.46L321.84-0.14L321.84-0.14Q321.59-0.25 321.34-0.35L321.34-0.35ZM328.16 0.84L327.50 0.84L325.70 3.06L325.70 3.06Q325.98 3.13 326.27 3.20L326.27 3.20L328.16 0.84ZM324.12 0.60L323.14 1.83L323.14 1.83Q323.35 2.00 323.59 2.11L323.59 2.11L324.72 0.70L324.72 0.70Q324.44 0.67 324.12 0.60L324.12 0.60ZM341.63-14.52L341.63-13.68L343.11-15.50L343.11-16.35L341.63-14.52ZM335.90-0.74L332.45 3.52L332.45 3.52Q332.80 3.52 333.16 3.48L333.16 3.48L337.48-1.86L337.48-1.86Q336.74-1.23 335.90-0.74L335.90-0.74ZM343.07-36.25L341.63-34.42L341.63-33.57L343.11-35.40L343.11-35.68L343.11-35.68Q343.11-35.93 343.07-36.25L343.07-36.25ZM341.63-18.95L341.63-18.07L343.11-19.93L343.11-20.78L341.63-18.95ZM341.63-21.16L341.63-20.29L343.11-22.15L343.11-22.99L341.63-21.16ZM341.63-23.38L341.63-22.50L343.11-24.36L343.11-25.21L341.63-23.38ZM341.63-16.73L341.63-15.86L343.11-17.72L343.11-18.56L341.63-16.73ZM341.63-27.81L341.63-26.93L343.11-28.79L343.11-29.64L341.63-27.81ZM341.63-29.99L341.63-29.14L343.11-30.97L343.11-31.85L341.63-29.99ZM341.63-32.20L341.63-31.36L343.11-33.19L343.11-34.07L341.63-32.20ZM341.63-25.59L341.63-24.71L343.11-26.58L343.11-27.42L341.63-25.59Z"/></g><g id="" class="logo--name svgSloganText_1 sloganBox" transform="scale(1) translate(198.4,254.4)" fill="#ffffff"><path d=""/></g></g></g></g></svg>