<svg version="1.1" xmlns="http://www.w3.org/2000/svg" xmlns:xlink="http://www.w3.org/1999/xlink" xmlns:i="http://ns.adobe.com/AdobeIllustrator/10.0/" xmlns:sketch="http://www.bohemiancoding.com/sketch/ns" height="100%" width="100%" x="0px" y="0px" viewBox="0 0 640 480" xml:space="preserve" preserveAspectRatio="xMidYMid meet" class=""><rect x="0px" y="0px" width="100%" height="100%" fill="none"/><g class="logo-container-box logoContainerBox" transform="scale(0.75) translate(106.66667429606122,79.99999237060547)"><g class="containerBody" transform="scale(1.12) translate(-34.285714285714334,-30.564146859305254)" ><g class="sampleIconBox" transform="scale(1) translate(0,0)"><g class="sampleIcons_1" transform="scale(1.0949996031762608) translate(241.97442770004272,122.70758113861083)" fill="#000000"><g><path fill-rule="evenodd" clip-rule="evenodd" d="M56.809,28.396c5.314,0,9.66-4.343,9.66-9.661c0-5.392-4.346-9.735-9.66-9.735   c-3.896,0-7.34,2.321-8.838,5.691c-0.599,1.198-0.898,2.621-0.898,4.044c0,1.422,0.299,2.77,0.898,4.043   C49.468,26.074,52.912,28.396,56.809,28.396z M68.439,66.737c1.287-3.343,2.109-6.596,3.402-10.109   c-4.418,0-6.973-0.146-11.33-0.031c-3.445,0-4.902,1.977-6.025,4.374c-2.17,5.69-4.343,11.456-6.516,17.147   c-1.085,2.968-2.278,5.981-3.371,8.952h11.947c2.398-7.02,4.762-13.554,7.562-20.333H68.439z M94.893,53.172   c-0.311-0.77-0.664-1.52-1.037-2.26c-0.223-0.444-1.34-1.927-1.254-2.373c0.9-4.643,1.93-9.307,2.828-13.95   c0.756-3.659-0.803-5.954-2.973-6.853c-2.846-1.198-4.572-1.886-7.342-3.084c-1.199-0.524-2.398-1.049-3.67-1.572   c-3.67-1.798-6.143-2.282-9.811,0.224c-6.891,4.343-14.584,9.294-21.474,13.713c0.9-2.396,2.298-5.325,3.199-7.723   c-1.873-0.672-3.516-1.421-5.389-2.17c-0.299-0.15-0.599-0.225-0.898-0.375l-0.149,0.375c-2.138,4.518-4.911,9.987-6.56,14.479   c-1.092,3.415,2.628,6.088,5.994,4.999c0.075,0,10.525-4.801,14.792-6.673c4.793,5.466,9.51,11.008,14.301,16.475   c-2.395,1.497-2.926,1.913-4.041,5.316c-2.965,8.451-5.93,16.902-8.895,25.352H74.98l7.131-20.083   c0.748,0.075,2.18,0.199,3.004,0.199c2.367,0,4.678,0.065,6.824-1.118C96.557,63.523,96.598,57.445,94.893,53.172z M90.281,54.306   h-7.49l2.324-12.356l0.373-1.871l-0.373-0.524l-5.244-7.49l5.244,1.274l2.77,0.599l-3.508,19.329l5.914,0.008L90.281,54.306z    M43.104,55.879c1.573,0.225,3.22,0.523,4.867,0.824c0.697,0.115,1.35,0.23,2.026,0.348l2.269-7.548   c-1.597-0.353-31.729-6.375-45.482-9.127l-2.183,7.221c2.719,0.642,4.846,1.173,7.575,1.841c-0.824,0.524-1.571,1.124-2.394,1.647   c1.796,2.021,3.518,4.043,5.316,6.066c3.07-3.146,6.665-4.568,10.784-4.195c7.338,1.199,12.729,5.317,12.58,13.854   c0.133,7.967-7.587,13.511-13.479,13.703c-3.71-0.043-7.113-2.171-10.109-4.194c-1.871,1.424-3.744,2.848-5.616,4.194   c3.295,4.345,8.088,7.265,16.249,7.189c13.287-1.344,19.276-9.361,20.519-20.518C46.53,62.438,45.051,59.398,43.104,55.879z"></path></g></g></g><g class="sampleTexts_1" transform="scale(1) translate(0,-0.000006103515630684342)"><g class="logo--name svgLogoName_1 logoNameBox" transform="scale(1) translate(218.53999614715576,301.4400001525879)" fill="#000000"><path d="M23.76-49.39L23.76-49.39Q29.95-49.39 34.56-46.69L34.56-46.69L34.56-46.69Q39.17-43.99 41.69-38.99L41.69-38.99L41.69-38.99Q44.21-33.98 44.21-27.22L44.21-27.22L44.21-22.18L44.21-22.18Q44.21-15.41 41.69-10.40L41.69-10.40L41.69-10.40Q39.17-5.40 34.56-2.70L34.56-2.70L34.56-2.70Q29.95 0 23.76 0L23.76 0L6.62 0L6.62-49.39L23.76-49.39ZM23.76-42.98L13.68-42.98L13.68-6.41L23.76-6.41L23.76-6.41Q30.17-6.41 33.66-10.40L33.66-10.40L33.66-10.40Q37.15-14.40 37.15-22.18L37.15-22.18L37.15-27.22L37.15-27.22Q37.15-34.85 33.73-38.92L33.73-38.92L33.73-38.92Q30.31-42.98 23.76-42.98L23.76-42.98ZM55.43-51.84L62.49-51.84L62.49-45.58L55.43-45.58L55.43-51.84ZM55.58-36.79L62.34-36.79L62.34 0L55.58 0L55.58-36.79ZM108.99-43.42L108.99-43.42Q108.99-39.74 107.05-37.26L107.05-37.26L107.05-37.26Q105.10-34.78 101.65-34.06L101.65-34.06L101.50-33.84L101.50-33.84Q105.10-30.67 105.10-25.92L105.10-25.92L105.10-25.92Q105.10-20.74 101.22-17.57L101.22-17.57L101.22-17.57Q97.33-14.40 90.63-14.40L90.63-14.40L85.74-14.40L85.74-14.40Q83.58-14.40 82.14-13.28L82.14-13.28L82.14-13.28Q80.70-12.17 80.70-10.44L80.70-10.44L80.70-10.44Q80.70-8.71 82.06-7.70L82.06-7.70L82.06-7.70Q83.43-6.70 85.74-6.70L85.74-6.70L99.63-6.70L99.63-6.70Q103.88-6.70 106.44-4.03L106.44-4.03L106.44-4.03Q108.99-1.37 108.99 2.74L108.99 2.74L108.99 2.74Q108.99 7.63 105.28 10.58L105.28 10.58L105.28 10.58Q101.58 13.54 95.31 13.54L95.31 13.54L80.84 13.54L80.84 13.54Q78.39 13.54 76.34 12.24L76.34 12.24L76.34 12.24Q74.29 10.94 73.10 8.96L73.10 8.96L73.10 8.96Q71.91 6.98 71.91 4.90L71.91 4.90L71.91 4.90Q71.91 1.87 73.39-0.36L73.39-0.36L73.39-0.36Q74.86-2.59 77.31-3.67L77.31-3.67L77.31-3.67Q74.00-5.69 74.00-9.65L74.00-9.65L74.00-9.65Q74.00-12.24 75.51-14.11L75.51-14.11L75.51-14.11Q77.02-15.98 79.76-16.92L79.76-16.92L79.76-16.92Q74.94-19.58 74.94-25.92L74.94-25.92L74.94-25.92Q74.94-31.25 78.86-34.38L78.86-34.38L78.86-34.38Q82.78-37.51 89.77-37.51L89.77-37.51L90.06-37.51L90.06-37.51Q94.09-37.51 97.40-36.29L97.40-36.29L97.40-36.29Q102.51-38.81 103.23-43.42L103.23-43.42L108.99-43.42ZM89.98-32.11L89.98-32.11Q86.17-32.11 83.90-30.64L83.90-30.64L83.90-30.64Q81.63-29.16 81.63-25.92L81.63-25.92L81.63-25.92Q81.63-22.68 83.90-21.24L83.90-21.24L83.90-21.24Q86.17-19.80 89.98-19.80L89.98-19.80L89.98-19.80Q93.80-19.80 96.10-21.24L96.10-21.24L96.10-21.24Q98.41-22.68 98.41-25.92L98.41-25.92L98.41-25.92Q98.41-29.16 96.10-30.64L96.10-30.64L96.10-30.64Q93.80-32.11 89.98-32.11L89.98-32.11ZM97.62-0.22L82.78-0.22L82.78-0.22Q81.06-0.22 79.83 1.01L79.83 1.01L79.83 1.01Q78.61 2.23 78.61 3.96L78.61 3.96L78.61 3.96Q78.61 5.69 79.83 6.91L79.83 6.91L79.83 6.91Q81.06 8.14 82.78 8.14L82.78 8.14L96.68 8.14L96.68 8.14Q98.98 8.14 100.64 6.80L100.64 6.80L100.64 6.80Q102.30 5.47 102.30 3.74L102.30 3.74L102.30 3.74Q102.30 1.94 101.07 0.86L101.07 0.86L101.07 0.86Q99.85-0.22 97.62-0.22L97.62-0.22ZM117.48-51.84L124.25-51.84L124.25 0L117.48 0L117.48-51.84ZM152.18-37.51L152.18-37.51Q159.88-37.51 164.49-32.76L164.49-32.76L164.49-32.76Q169.10-28.01 169.10-19.73L169.10-19.73L169.10-17.06L169.10-17.06Q169.10-8.78 164.56-4.03L164.56-4.03L164.56-4.03Q160.02 0.72 152.18 0.72L152.18 0.72L152.18 0.72Q144.33 0.72 139.79-4.03L139.79-4.03L139.79-4.03Q135.26-8.78 135.26-17.06L135.26-17.06L135.26-19.73L135.26-19.73Q135.26-28.01 139.86-32.76L139.86-32.76L139.86-32.76Q144.47-37.51 152.18-37.51L152.18-37.51ZM152.18-32.11L152.18-32.11Q147.35-32.11 144.69-28.80L144.69-28.80L144.69-28.80Q142.02-25.49 142.02-19.08L142.02-19.08L142.02-17.71L142.02-17.71Q142.02-11.45 144.65-8.06L144.65-8.06L144.65-8.06Q147.28-4.68 152.18-4.68L152.18-4.68L152.18-4.68Q156.93-4.68 159.63-8.03L159.63-8.03L159.63-8.03Q162.33-11.38 162.33-17.71L162.33-17.71L162.33-19.08L162.33-19.08Q162.33-25.34 159.70-28.73L159.70-28.73L159.70-28.73Q157.07-32.11 152.18-32.11L152.18-32.11ZM187.74-48.53L187.74-36.79L196.30-36.79L196.30-31.39L187.74-31.39L187.74-9.43L187.74-9.43Q187.74-6.84 188.74-5.69L188.74-5.69L188.74-5.69Q189.75-4.54 191.84-4.54L191.84-4.54L191.84-4.54Q193.71-4.54 196.30-5.62L196.30-5.62L196.30-0.58L196.30-0.58Q193.71 0.72 189.61 0.72L189.61 0.72L189.61 0.72Q185.36 0.72 183.16-1.80L183.16-1.80L183.16-1.80Q180.97-4.32 180.97-9.79L180.97-9.79L180.97-31.39L176.94-31.39L176.94-36.79L181.18-36.79L183.49-48.53L187.74-48.53Z"/></g><g id="" class="logo--name svgSloganText_1 sloganBox" transform="scale(1) translate(223.12999749183655,340.0300001144409)" fill="#000000"><path d="M1.68 0L8.54 0L8.54-2.23L4.10-2.23L4.10-13.63L1.68-13.63ZM15.00-2.02C15.00-0.77 16.01 0.24 17.28 0.24L19.49 0.24C20.76 0.24 21.77-0.77 21.77-2.02L21.77-3.38L19.68-3.38L19.68-2.52C19.68-2.16 19.40-1.80 19.01-1.80L17.86-1.80C17.48-1.80 17.19-2.16 17.19-2.52L17.19-4.56L21.77-4.56L21.77-8.06C21.77-9.31 20.76-10.34 19.49-10.34L17.28-10.34C16.01-10.34 15.00-9.31 15.00-8.06L15.00-2.02ZM17.19-6.02L17.19-7.58C17.19-7.94 17.48-8.28 17.86-8.28L19.01-8.28C19.40-8.28 19.68-7.94 19.68-7.58L19.68-6.02ZM35.79-8.02C35.79-9.29 34.76-10.34 33.46-10.34L31.59-10.34C30.30-10.34 29.26-9.29 29.26-8.02L29.26-6.55L31.35-6.55L31.35-7.61C31.35-7.94 31.69-8.28 32.05-8.28L32.91-8.28C33.30-8.28 33.56-7.94 33.56-7.61L33.56-6.94C33.56-6.62 33.46-6.36 33.15-6.22L30.15-5.04C29.48-4.78 29.07-4.20 29.07-3.38L29.07-2.06C29.07-0.82 30.13 0.24 31.40 0.24L32.07 0.24C32.82 0.24 33.32-0.19 33.63-0.50L33.75 0L35.79 0ZM33.56-2.62C33.56-2.21 33.20-1.80 32.79-1.80L31.88-1.80C31.47-1.80 31.23-2.16 31.23-2.47L31.23-3.14C31.23-3.43 31.30-3.62 31.59-3.77L33.27-4.46C33.44-4.54 33.54-4.66 33.56-4.66ZM45.61 0L45.61-7.27C45.61-7.73 45.97-8.11 46.40-8.11L47.75-8.11L47.75-10.25L47.10-10.25C46.38-10.25 45.80-9.77 45.56-9.43L45.42-10.10L43.33-10.10L43.33 0ZM56.51 0L56.51-7.37C56.51-7.80 56.85-8.21 57.28-8.21L58.22-8.21C58.60-8.21 58.89-7.87 58.89-7.49L58.89 0L61.17 0L61.17-8.04C61.17-9.31 60.16-10.34 58.89-10.34L58-10.34C57.26-10.34 56.70-9.84 56.44-9.50L56.32-10.10L54.21-10.10L54.21 0ZM71.23 0L71.23-10.10L68.95-10.10L68.95 0ZM71.20-11.76L71.20-13.63L68.95-13.63L68.95-11.76ZM81.31 0L81.31-7.37C81.31-7.80 81.65-8.21 82.08-8.21L83.02-8.21C83.40-8.21 83.69-7.87 83.69-7.49L83.69 0L85.97 0L85.97-8.04C85.97-9.31 84.96-10.34 83.69-10.34L82.80-10.34C82.06-10.34 81.50-9.84 81.24-9.50L81.12-10.10L79.01-10.10L79.01 0ZM93.15 3.12C93.15 4.42 94.18 5.45 95.45 5.45L97.64 5.45C98.93 5.45 99.94 4.42 99.94 3.12L99.94 0.89C99.94-0.10 99.39-0.70 98.36-1.08L95.81-2.02C95.50-2.14 95.24-2.26 95.24-2.62C95.24-2.78 95.31-2.93 95.40-3.05C95.48-3.05 95.55-3.02 95.62-3.02L97.04-3.02C98.33-3.02 99.34-4.08 99.34-5.35L99.34-7.75C99.34-8.11 99.17-8.42 99.00-8.54L99.77-8.69L99.77-10.10L95.45-10.10C94.16-10.10 93.15-9.05 93.15-7.78L93.15-5.35C93.15-4.56 93.53-3.89 94.13-3.46C93.87-3.17 93.68-2.78 93.68-2.33C93.68-1.51 94.20-1.15 94.78-0.86L94.18-0.31C93.58 0.26 93.15 0.70 93.15 1.61ZM95.31-7.37C95.31-7.70 95.57-8.04 95.98-8.04L96.51-8.04C96.92-8.04 97.18-7.70 97.18-7.37L97.18-5.54C97.18-5.21 96.92-4.90 96.51-4.90L95.98-4.90C95.57-4.90 95.31-5.21 95.31-5.54ZM95.79 3.38C95.40 3.38 95.09 3.05 95.09 2.66L95.09 1.37C95.09 0.98 95.26 0.82 95.57 0.50L96.17-0.10L97.37 0.55C97.61 0.62 97.78 0.89 97.78 1.13L97.78 2.66C97.78 3.05 97.47 3.38 97.08 3.38ZM116.46 0L118.86 0L118.86-5.93L122.34 0L125.00 0L120.97-6.94L124.91-13.63L122.41-13.63L118.86-7.58L118.86-13.63L116.46-13.63ZM131.46-2.02C131.46-0.77 132.47 0.24 133.72 0.24L136.07 0.24C137.34 0.24 138.35-0.77 138.35-2.02L138.35-8.06C138.35-9.31 137.34-10.34 136.07-10.34L133.72-10.34C132.47-10.34 131.46-9.31 131.46-8.06L131.46-2.02ZM133.65-2.52L133.65-7.58C133.65-7.94 133.94-8.28 134.30-8.28L135.50-8.28C135.88-8.28 136.17-7.94 136.17-7.58L136.17-2.52C136.17-2.16 135.88-1.80 135.50-1.80L134.30-1.80C133.94-1.80 133.65-2.16 133.65-2.52ZM148.17 0L148.17-7.27C148.17-7.73 148.53-8.11 148.96-8.11L150.31-8.11L150.31-10.25L149.66-10.25C148.94-10.25 148.36-9.77 148.12-9.43L147.98-10.10L145.89-10.10L145.89 0ZM156.77-2.02C156.77-0.77 157.78 0.24 159.05 0.24L161.26 0.24C162.53 0.24 163.54-0.77 163.54-2.02L163.54-3.38L161.45-3.38L161.45-2.52C161.45-2.16 161.16-1.80 160.78-1.80L159.62-1.80C159.24-1.80 158.95-2.16 158.95-2.52L158.95-4.56L163.54-4.56L163.54-8.06C163.54-9.31 162.53-10.34 161.26-10.34L159.05-10.34C157.78-10.34 156.77-9.31 156.77-8.06L156.77-2.02ZM158.95-6.02L158.95-7.58C158.95-7.94 159.24-8.28 159.62-8.28L160.78-8.28C161.16-8.28 161.45-7.94 161.45-7.58L161.45-6.02ZM177.56-8.02C177.56-9.29 176.52-10.34 175.23-10.34L173.36-10.34C172.06-10.34 171.03-9.29 171.03-8.02L171.03-6.55L173.12-6.55L173.12-7.61C173.12-7.94 173.45-8.28 173.81-8.28L174.68-8.28C175.06-8.28 175.32-7.94 175.32-7.61L175.32-6.94C175.32-6.62 175.23-6.36 174.92-6.22L171.92-5.04C171.24-4.78 170.84-4.20 170.84-3.38L170.84-2.06C170.84-0.82 171.89 0.24 173.16 0.24L173.84 0.24C174.58 0.24 175.08-0.19 175.40-0.50L175.52 0L177.56 0ZM175.32-2.62C175.32-2.21 174.96-1.80 174.56-1.80L173.64-1.80C173.24-1.80 173.00-2.16 173.00-2.47L173.00-3.14C173.00-3.43 173.07-3.62 173.36-3.77L175.04-4.46C175.20-4.54 175.30-4.66 175.32-4.66ZM187.40 0L187.40-7.37C187.40-7.80 187.74-8.21 188.17-8.21L189.10-8.21C189.49-8.21 189.78-7.87 189.78-7.49L189.78 0L192.06 0L192.06-8.04C192.06-9.31 191.05-10.34 189.78-10.34L188.89-10.34C188.14-10.34 187.59-9.84 187.33-9.50L187.21-10.10L185.10-10.10L185.10 0Z"/></g></g></g></g></svg>