<svg version="1.1" xmlns="http://www.w3.org/2000/svg" xmlns:xlink="http://www.w3.org/1999/xlink" xmlns:i="http://ns.adobe.com/AdobeIllustrator/10.0/" xmlns:sketch="http://www.bohemiancoding.com/sketch/ns" height="100%" width="100%" x="0px" y="0px" viewBox="0 0 640 480" xml:space="preserve" preserveAspectRatio="xMidYMid meet" class=""><defs><linearGradient id="textGradient2221508966"><stop offset="0.05" stop-color="#B68648" /><stop offset="0.95" stop-color="#FBF3A3" /></linearGradient></defs><defs><linearGradient id="iconGradient2221508966"><stop offset="0.05" stop-color="#B68648" /><stop offset="0.95" stop-color="#FBF3A3" /></linearGradient></defs><rect x="0px" y="0px" width="100%" height="100%" fill="#5044b4"/><g class="logo-container-box logoContainerBox" transform="scale(0.75) translate(106.66665140787762,79.99999237060547)"><g class="containerBody" transform="scale(1.0893914530369662) translate(8.226978397964615,-19.693531918079287)" ><g class="sampleIconBox" transform="scale(1) translate(0,0)"><g class="sampleIcons_1" transform="scale(1.0949996031762608) translate(67.72778921127318,170.826434135437)" fill="url(#iconGradient2221508966)"><g><path fill-rule="evenodd" clip-rule="evenodd" d="M56.809,28.396c5.314,0,9.66-4.343,9.66-9.661c0-5.392-4.346-9.735-9.66-9.735   c-3.896,0-7.34,2.321-8.838,5.691c-0.599,1.198-0.898,2.621-0.898,4.044c0,1.422,0.299,2.77,0.898,4.043   C49.468,26.074,52.912,28.396,56.809,28.396z M68.439,66.737c1.287-3.343,2.109-6.596,3.402-10.109   c-4.418,0-6.973-0.146-11.33-0.031c-3.445,0-4.902,1.977-6.025,4.374c-2.17,5.69-4.343,11.456-6.516,17.147   c-1.085,2.968-2.278,5.981-3.371,8.952h11.947c2.398-7.02,4.762-13.554,7.562-20.333H68.439z M94.893,53.172   c-0.311-0.77-0.664-1.52-1.037-2.26c-0.223-0.444-1.34-1.927-1.254-2.373c0.9-4.643,1.93-9.307,2.828-13.95   c0.756-3.659-0.803-5.954-2.973-6.853c-2.846-1.198-4.572-1.886-7.342-3.084c-1.199-0.524-2.398-1.049-3.67-1.572   c-3.67-1.798-6.143-2.282-9.811,0.224c-6.891,4.343-14.584,9.294-21.474,13.713c0.9-2.396,2.298-5.325,3.199-7.723   c-1.873-0.672-3.516-1.421-5.389-2.17c-0.299-0.15-0.599-0.225-0.898-0.375l-0.149,0.375c-2.138,4.518-4.911,9.987-6.56,14.479   c-1.092,3.415,2.628,6.088,5.994,4.999c0.075,0,10.525-4.801,14.792-6.673c4.793,5.466,9.51,11.008,14.301,16.475   c-2.395,1.497-2.926,1.913-4.041,5.316c-2.965,8.451-5.93,16.902-8.895,25.352H74.98l7.131-20.083   c0.748,0.075,2.18,0.199,3.004,0.199c2.367,0,4.678,0.065,6.824-1.118C96.557,63.523,96.598,57.445,94.893,53.172z M90.281,54.306   h-7.49l2.324-12.356l0.373-1.871l-0.373-0.524l-5.244-7.49l5.244,1.274l2.77,0.599l-3.508,19.329l5.914,0.008L90.281,54.306z    M43.104,55.879c1.573,0.225,3.22,0.523,4.867,0.824c0.697,0.115,1.35,0.23,2.026,0.348l2.269-7.548   c-1.597-0.353-31.729-6.375-45.482-9.127l-2.183,7.221c2.719,0.642,4.846,1.173,7.575,1.841c-0.824,0.524-1.571,1.124-2.394,1.647   c1.796,2.021,3.518,4.043,5.316,6.066c3.07-3.146,6.665-4.568,10.784-4.195c7.338,1.199,12.729,5.317,12.58,13.854   c0.133,7.967-7.587,13.511-13.479,13.703c-3.71-0.043-7.113-2.171-10.109-4.194c-1.871,1.424-3.744,2.848-5.616,4.194   c3.295,4.345,8.088,7.265,16.249,7.189c13.287-1.344,19.276-9.361,20.519-20.518C46.53,62.438,45.051,59.398,43.104,55.879z"></path></g></g></g><g class="sampleTexts_1" transform="scale(1) translate(0.000006103515630684342,17.280006408691406)"><g class="logo--name svgLogoName_1 logoNameBox" transform="scale(1) translate(194.22000017166138,225.37999725341797)" fill="url(#textGradient2221508966)"><path d="M37.44-0.14L37.44-0.14L37.44-0.14Q32.62 0.29 23.62 0.29L23.62 0.29L23.62 0.29Q14.62 0.29 11.34 0.04L11.34 0.04L11.34 0.04Q8.06-0.22 6.41-1.15L6.41-1.15L6.41-1.15Q4.75-2.09 4.61-4.10L4.61-4.10L4.61-4.10Q4.18-11.88 4.18-21.85L4.18-21.85L4.18-21.85Q4.18-31.82 4.46-42.98L4.46-42.98L4.46-42.98Q4.61-49.90 10.87-50.33L10.87-50.33L10.87-50.33Q15.26-50.62 24.34-50.62L24.34-50.62L24.34-50.62Q33.41-50.62 38.56-50.36L38.56-50.36L38.56-50.36Q43.70-50.11 48.49-47.99L48.49-47.99L48.49-47.99Q53.28-45.86 56.16-42.48L56.16-42.48L56.16-42.48Q62.14-35.50 62.14-26.28L62.14-26.28L62.14-26.28Q62.14-16.56 55.87-8.93L55.87-8.93L55.87-8.93Q52.85-5.26 48.06-2.88L48.06-2.88L48.06-2.88Q43.27-0.50 37.44-0.14ZM34.20-34.85L34.20-34.85L34.20-17.42L34.20-17.42Q34.20-16.85 34.63-16.34L34.63-16.34L34.63-16.34Q35.06-15.84 35.78-15.84L35.78-15.84L35.78-15.84Q40.39-15.84 42.88-19.01L42.88-19.01L42.88-19.01Q45.36-22.18 45.36-26.50L45.36-26.50L45.36-26.50Q45.36-30.82 43.09-34.02L43.09-34.02L43.09-34.02Q40.82-37.22 37.01-37.22L37.01-37.22L37.01-37.22Q36.07-37.22 35.57-37.15L35.57-37.15L35.57-37.15Q34.20-36.79 34.20-34.85ZM74.66-36.43L74.66-36.43L88.70-36.43L88.70-36.43Q91.14-36.43 91.97-35.35L91.97-35.35L91.97-35.35Q92.80-34.27 93.05-30.56L93.05-30.56L93.05-30.56Q93.30-26.86 93.30-17.03L93.30-17.03L93.30-17.03Q93.30-7.20 92.87-3.17L92.87-3.17L92.87-3.17Q92.66-1.94 91.65-1.01L91.65-1.01L91.65-1.01Q90.64-0.07 88.08 0.11L88.08 0.11L88.08 0.11Q85.53 0.29 82.00 0.29L82.00 0.29L82.00 0.29Q78.47 0.29 75.59 0.11L75.59 0.11L75.59 0.11Q72.71-0.07 71.70-1.01L71.70-1.01L71.70-1.01Q70.70-1.94 70.55-3.17L70.55-3.17L70.55-3.17Q70.05-7.85 70.05-17.53L70.05-17.53L70.05-17.53Q70.05-27.22 70.34-30.74L70.34-30.74L70.34-30.74Q70.62-34.27 71.42-35.35L71.42-35.35L71.42-35.35Q72.21-36.43 74.66-36.43ZM82.43-53.42L82.43-53.42L82.43-53.42Q87.18-53.42 89.60-51.52L89.60-51.52L89.60-51.52Q92.01-49.61 92.01-46.30L92.01-46.30L92.01-46.30Q92.01-38.52 81.64-38.52L81.64-38.52L81.64-38.52Q77.46-38.52 74.51-40.32L74.51-40.32L74.51-40.32Q71.56-42.12 71.56-45.72L71.56-45.72L71.56-45.72Q71.56-53.42 82.43-53.42ZM126.56-25.63L126.56-25.63L126.56-25.63Q122.31-25.63 122.31-19.40L122.31-19.40L122.31-19.40Q122.31-13.18 126.42-13.18L126.42-13.18L126.42-13.18Q128.22-13.18 129.55-14.15L129.55-14.15L129.55-14.15Q130.88-15.12 130.88-16.92L130.88-16.92L130.88-21.89L130.88-21.89Q130.88-23.62 129.55-24.62L129.55-24.62L129.55-24.62Q128.22-25.63 126.56-25.63ZM153.63-33.19L153.63-33.19L153.78-11.09L153.78-11.09Q153.78-3.89 153.70-0.14L153.70-0.14L153.70-0.14Q153.63 3.60 151.54 6.62L151.54 6.62L151.54 6.62Q149.46 9.65 145.86 11.38L145.86 11.38L145.86 11.38Q138.80 14.62 127.06 14.62L127.06 14.62L127.06 14.62Q115.33 14.62 107.84 11.45L107.84 11.45L107.84 11.45Q106.04 10.66 105.21 9.76L105.21 9.76L105.21 9.76Q104.38 8.86 104.38 6.59L104.38 6.59L104.38 6.59Q104.38 4.32 105.28 3.24L105.28 3.24L105.28 3.24Q106.18 2.16 107.41 2.16L107.41 2.16L107.41 2.16Q108.63 2.16 110.43 3.02L110.43 3.02L110.43 3.02Q115.98 5.76 121.52 5.76L121.52 5.76L121.52 5.76Q124.04 5.76 126.06 5.22L126.06 5.22L126.06 5.22Q128.07 4.68 129.62 3.02L129.62 3.02L129.62 3.02Q131.17 1.37 131.17-1.22L131.17-1.22L131.10-5.04L131.10-5.04Q131.10-5.76 130.66-5.76L130.66-5.76L130.66-5.76Q130.45-5.76 130.23-5.54L130.23-5.54L130.23-5.54Q124.47 0 117.56 0L117.56 0L117.56 0Q110.65 0 106.00-4.39L106.00-4.39L106.00-4.39Q101.36-8.78 101.36-18.29L101.36-18.29L101.36-18.29Q101.36-27.79 106.83-32.65L106.83-32.65L106.83-32.65Q112.30-37.51 120.22-37.51L120.22-37.51L120.22-37.51Q128.14-37.51 131.96-32.54L131.96-32.54L131.96-32.54Q132.03-34.42 133.33-35.42L133.33-35.42L133.33-35.42Q134.62-36.43 136.21-36.58L136.21-36.58L136.21-36.58Q137.79-36.72 141.97-36.72L141.97-36.72L149.60-36.58L149.60-36.58Q150.97-36.58 152.30-35.60L152.30-35.60L152.30-35.60Q153.63-34.63 153.63-33.19ZM168.10-52.63L168.10-52.63L181.92-52.63L181.92-52.63Q184.30-52.63 185.09-51.52L185.09-51.52L185.09-51.52Q185.88-50.40 186.10-47.95L186.10-47.95L186.10-47.95Q186.53-39.31 186.53-24.08L186.53-24.08L186.53-24.08Q186.53-8.86 185.95-3.10L185.95-3.10L185.95-3.10Q185.81-1.94 184.80-1.01L184.80-1.01L184.80-1.01Q183.79-0.07 181.24 0.11L181.24 0.11L181.24 0.11Q178.68 0.29 175.22 0.29L175.22 0.29L175.22 0.29Q171.77 0.29 169.03 0.14L169.03 0.14L169.03 0.14Q164.35-0.22 164.14-3.10L164.14-3.10L164.14-3.10Q163.42-9.36 163.42-25.31L163.42-25.31L163.42-25.31Q163.42-41.26 163.99-47.95L163.99-47.95L163.99-47.95Q164.21-50.40 164.96-51.52L164.96-51.52L164.96-51.52Q165.72-52.63 168.10-52.63ZM217.34-18.00L217.34-18.00Q217.34-9.94 221.58-9.94L221.58-9.94L221.58-9.94Q225.83-9.94 225.83-18.00L225.83-18.00L225.83-18.00Q225.83-21.67 224.97-23.65L224.97-23.65L224.97-23.65Q224.10-25.63 221.58-25.63L221.58-25.63L221.58-25.63Q219.06-25.63 218.20-23.65L218.20-23.65L218.20-23.65Q217.34-21.67 217.34-18.00L217.34-18.00ZM248.44-18.00L248.44-18.00Q248.44 1.58 221.58 1.58L221.58 1.58L221.58 1.58Q194.73 1.58 194.73-18.00L194.73-18.00L194.73-18.00Q194.73-27.29 201.57-32.40L201.57-32.40L201.57-32.40Q208.41-37.51 221.58-37.51L221.58-37.51L221.58-37.51Q234.76-37.51 241.60-32.40L241.60-32.40L241.60-32.40Q248.44-27.29 248.44-18.00L248.44-18.00ZM259.66-16.63L259.66-26.21L259.66-26.21Q259.66-27.36 258.08-27.36L258.08-27.36L258.08-27.36Q255.27-27.36 254.77-29.23L254.77-29.23L254.77-29.23Q254.48-30.17 254.48-32.11L254.48-32.11L254.48-32.11Q254.48-34.06 255.02-34.88L255.02-34.88L255.02-34.88Q255.56-35.71 257.11-36.11L257.11-36.11L257.11-36.11Q258.66-36.50 259.92-37.48L259.92-37.48L259.92-37.48Q261.18-38.45 265.10-41.76L265.10-41.76L265.10-41.76Q269.02-45.07 270.57-46.08L270.57-46.08L270.57-46.08Q272.12-47.09 274.42-47.09L274.42-47.09L278.02-47.09L278.02-47.09Q280.54-47.09 281.41-46.48L281.41-46.48L281.41-46.48Q282.27-45.86 282.27-44.57L282.27-44.57L282.27-37.73L282.27-37.73Q282.27-36.22 283.57-36.22L283.57-36.22L291.27-36.22L291.27-36.22Q293.14-36.22 293.97-35.42L293.97-35.42L293.97-35.42Q294.80-34.63 294.80-31.79L294.80-31.79L294.80-31.79Q294.80-28.94 293.94-28.15L293.94-28.15L293.94-28.15Q293.07-27.36 291.34-27.36L291.34-27.36L283.86-27.36L283.86-27.36Q282.85-27.36 282.56-26.86L282.56-26.86L282.56-26.86Q282.27-26.35 282.27-25.42L282.27-25.42L282.27-16.78L282.27-16.78Q282.42-14.33 284.11-12.67L284.11-12.67L284.11-12.67Q285.80-11.02 288.90-11.02L288.90-11.02L288.90-11.02Q290.41-11.02 292.64-11.84L292.64-11.84L292.64-11.84Q294.87-12.67 295.66-12.67L295.66-12.67L295.66-12.67Q297.61-12.67 297.61-6.91L297.61-6.91L297.61-6.91Q297.61-2.74 295.38-1.87L295.38-1.87L295.38-1.87Q293.07-1.08 288.90-0.58L288.90-0.58L288.90-0.58Q284.72-0.07 280.54-0.07L280.54-0.07L280.54-0.07Q276.37-0.07 272.59-0.76L272.59-0.76L272.59-0.76Q268.81-1.44 265.71-3.17L265.71-3.17L265.71-3.17Q259.66-6.70 259.66-16.63L259.66-16.63Z"/></g><g id="" class="logo--name svgSloganText_1 sloganBox" transform="scale(1) translate(196.7199999332428,268.0300001144409)" fill="#ffffff"><path d="M1.68 0L8.54 0L8.54-2.23L4.10-2.23L4.10-13.63L1.68-13.63ZM10.10-2.02C10.10-0.77 11.11 0.24 12.38 0.24L14.59 0.24C15.86 0.24 16.87-0.77 16.87-2.02L16.87-3.38L14.78-3.38L14.78-2.52C14.78-2.16 14.50-1.80 14.11-1.80L12.96-1.80C12.58-1.80 12.29-2.16 12.29-2.52L12.29-4.56L16.87-4.56L16.87-8.06C16.87-9.31 15.86-10.34 14.59-10.34L12.38-10.34C11.11-10.34 10.10-9.31 10.10-8.06L10.10-2.02ZM12.29-6.02L12.29-7.58C12.29-7.94 12.58-8.28 12.96-8.28L14.11-8.28C14.50-8.28 14.78-7.94 14.78-7.58L14.78-6.02ZM25.99-8.02C25.99-9.29 24.96-10.34 23.66-10.34L21.79-10.34C20.50-10.34 19.46-9.29 19.46-8.02L19.46-6.55L21.55-6.55L21.55-7.61C21.55-7.94 21.89-8.28 22.25-8.28L23.11-8.28C23.50-8.28 23.76-7.94 23.76-7.61L23.76-6.94C23.76-6.62 23.66-6.36 23.35-6.22L20.35-5.04C19.68-4.78 19.27-4.20 19.27-3.38L19.27-2.06C19.27-0.82 20.33 0.24 21.60 0.24L22.27 0.24C23.02 0.24 23.52-0.19 23.83-0.50L23.95 0L25.99 0ZM23.76-2.62C23.76-2.21 23.40-1.80 22.99-1.80L22.08-1.80C21.67-1.80 21.43-2.16 21.43-2.47L21.43-3.14C21.43-3.43 21.50-3.62 21.79-3.77L23.47-4.46C23.64-4.54 23.74-4.66 23.76-4.66ZM30.91 0L30.91-7.27C30.91-7.73 31.27-8.11 31.70-8.11L33.05-8.11L33.05-10.25L32.40-10.25C31.68-10.25 31.10-9.77 30.86-9.43L30.72-10.10L28.63-10.10L28.63 0ZM36.91 0L36.91-7.37C36.91-7.80 37.25-8.21 37.68-8.21L38.62-8.21C39-8.21 39.29-7.87 39.29-7.49L39.29 0L41.57 0L41.57-8.04C41.57-9.31 40.56-10.34 39.29-10.34L38.40-10.34C37.66-10.34 37.10-9.84 36.84-9.50L36.72-10.10L34.61-10.10L34.61 0ZM46.73 0L46.73-10.10L44.45-10.10L44.45 0ZM46.70-11.76L46.70-13.63L44.45-13.63L44.45-11.76ZM51.91 0L51.91-7.37C51.91-7.80 52.25-8.21 52.68-8.21L53.62-8.21C54-8.21 54.29-7.87 54.29-7.49L54.29 0L56.57 0L56.57-8.04C56.57-9.31 55.56-10.34 54.29-10.34L53.40-10.34C52.66-10.34 52.10-9.84 51.84-9.50L51.72-10.10L49.61-10.10L49.61 0ZM58.85 3.12C58.85 4.42 59.88 5.45 61.15 5.45L63.34 5.45C64.63 5.45 65.64 4.42 65.64 3.12L65.64 0.89C65.64-0.10 65.09-0.70 64.06-1.08L61.51-2.02C61.20-2.14 60.94-2.26 60.94-2.62C60.94-2.78 61.01-2.93 61.10-3.05C61.18-3.05 61.25-3.02 61.32-3.02L62.74-3.02C64.03-3.02 65.04-4.08 65.04-5.35L65.04-7.75C65.04-8.11 64.87-8.42 64.70-8.54L65.47-8.69L65.47-10.10L61.15-10.10C59.86-10.10 58.85-9.05 58.85-7.78L58.85-5.35C58.85-4.56 59.23-3.89 59.83-3.46C59.57-3.17 59.38-2.78 59.38-2.33C59.38-1.51 59.90-1.15 60.48-0.86L59.88-0.31C59.28 0.26 58.85 0.70 58.85 1.61ZM61.01-7.37C61.01-7.70 61.27-8.04 61.68-8.04L62.21-8.04C62.62-8.04 62.88-7.70 62.88-7.37L62.88-5.54C62.88-5.21 62.62-4.90 62.21-4.90L61.68-4.90C61.27-4.90 61.01-5.21 61.01-5.54ZM61.49 3.38C61.10 3.38 60.79 3.05 60.79 2.66L60.79 1.37C60.79 0.98 60.96 0.82 61.27 0.50L61.87-0.10L63.07 0.55C63.31 0.62 63.48 0.89 63.48 1.13L63.48 2.66C63.48 3.05 63.17 3.38 62.78 3.38ZM72.36 0L74.76 0L74.76-5.93L78.24 0L80.90 0L76.87-6.94L80.81-13.63L78.31-13.63L74.76-7.58L74.76-13.63L72.36-13.63ZM81.98-2.02C81.98-0.77 82.99 0.24 84.24 0.24L86.59 0.24C87.86 0.24 88.87-0.77 88.87-2.02L88.87-8.06C88.87-9.31 87.86-10.34 86.59-10.34L84.24-10.34C82.99-10.34 81.98-9.31 81.98-8.06L81.98-2.02ZM84.17-2.52L84.17-7.58C84.17-7.94 84.46-8.28 84.82-8.28L86.02-8.28C86.40-8.28 86.69-7.94 86.69-7.58L86.69-2.52C86.69-2.16 86.40-1.80 86.02-1.80L84.82-1.80C84.46-1.80 84.17-2.16 84.17-2.52ZM93.79 0L93.79-7.27C93.79-7.73 94.15-8.11 94.58-8.11L95.93-8.11L95.93-10.25L95.28-10.25C94.56-10.25 93.98-9.77 93.74-9.43L93.60-10.10L91.51-10.10L91.51 0ZM97.49-2.02C97.49-0.77 98.50 0.24 99.77 0.24L101.98 0.24C103.25 0.24 104.26-0.77 104.26-2.02L104.26-3.38L102.17-3.38L102.17-2.52C102.17-2.16 101.88-1.80 101.50-1.80L100.34-1.80C99.96-1.80 99.67-2.16 99.67-2.52L99.67-4.56L104.26-4.56L104.26-8.06C104.26-9.31 103.25-10.34 101.98-10.34L99.77-10.34C98.50-10.34 97.49-9.31 97.49-8.06L97.49-2.02ZM99.67-6.02L99.67-7.58C99.67-7.94 99.96-8.28 100.34-8.28L101.50-8.28C101.88-8.28 102.17-7.94 102.17-7.58L102.17-6.02ZM113.38-8.02C113.38-9.29 112.34-10.34 111.05-10.34L109.18-10.34C107.88-10.34 106.85-9.29 106.85-8.02L106.85-6.55L108.94-6.55L108.94-7.61C108.94-7.94 109.27-8.28 109.63-8.28L110.50-8.28C110.88-8.28 111.14-7.94 111.14-7.61L111.14-6.94C111.14-6.62 111.05-6.36 110.74-6.22L107.74-5.04C107.06-4.78 106.66-4.20 106.66-3.38L106.66-2.06C106.66-0.82 107.71 0.24 108.98 0.24L109.66 0.24C110.40 0.24 110.90-0.19 111.22-0.50L111.34 0L113.38 0ZM111.14-2.62C111.14-2.21 110.78-1.80 110.38-1.80L109.46-1.80C109.06-1.80 108.82-2.16 108.82-2.47L108.82-3.14C108.82-3.43 108.89-3.62 109.18-3.77L110.86-4.46C111.02-4.54 111.12-4.66 111.14-4.66ZM118.32 0L118.32-7.37C118.32-7.80 118.66-8.21 119.09-8.21L120.02-8.21C120.41-8.21 120.70-7.87 120.70-7.49L120.70 0L122.98 0L122.98-8.04C122.98-9.31 121.97-10.34 120.70-10.34L119.81-10.34C119.06-10.34 118.51-9.84 118.25-9.50L118.13-10.10L116.02-10.10L116.02 0Z"/></g></g></g></g></svg>