<svg version="1.1" xmlns="http://www.w3.org/2000/svg" xmlns:xlink="http://www.w3.org/1999/xlink" xmlns:i="http://ns.adobe.com/AdobeIllustrator/10.0/" xmlns:sketch="http://www.bohemiancoding.com/sketch/ns" height="100%" width="100%" x="0px" y="0px" viewBox="0 0 640 480" xml:space="preserve" preserveAspectRatio="xMidYMid meet" class=""><rect x="0px" y="0px" width="100%" height="100%" fill="#fefefe"/><g class="logo-container-box logoContainerBox" transform="scale(0.75) translate(106.66665140787762,79.99999237060547)"><g class="containerBody" transform="scale(1.12) translate(52.07428632463723,-25.714285714285722)" ><g class="sampleIconBox" transform="scale(1) translate(0,0)"><g class="sampleIcons_1" transform="scale(1.0949996031762608) translate(67.72778921127318,170.826434135437)" fill="#ffffff"><g><path fill-rule="evenodd" clip-rule="evenodd" d="M56.809,28.396c5.314,0,9.66-4.343,9.66-9.661c0-5.392-4.346-9.735-9.66-9.735   c-3.896,0-7.34,2.321-8.838,5.691c-0.599,1.198-0.898,2.621-0.898,4.044c0,1.422,0.299,2.77,0.898,4.043   C49.468,26.074,52.912,28.396,56.809,28.396z M68.439,66.737c1.287-3.343,2.109-6.596,3.402-10.109   c-4.418,0-6.973-0.146-11.33-0.031c-3.445,0-4.902,1.977-6.025,4.374c-2.17,5.69-4.343,11.456-6.516,17.147   c-1.085,2.968-2.278,5.981-3.371,8.952h11.947c2.398-7.02,4.762-13.554,7.562-20.333H68.439z M94.893,53.172   c-0.311-0.77-0.664-1.52-1.037-2.26c-0.223-0.444-1.34-1.927-1.254-2.373c0.9-4.643,1.93-9.307,2.828-13.95   c0.756-3.659-0.803-5.954-2.973-6.853c-2.846-1.198-4.572-1.886-7.342-3.084c-1.199-0.524-2.398-1.049-3.67-1.572   c-3.67-1.798-6.143-2.282-9.811,0.224c-6.891,4.343-14.584,9.294-21.474,13.713c0.9-2.396,2.298-5.325,3.199-7.723   c-1.873-0.672-3.516-1.421-5.389-2.17c-0.299-0.15-0.599-0.225-0.898-0.375l-0.149,0.375c-2.138,4.518-4.911,9.987-6.56,14.479   c-1.092,3.415,2.628,6.088,5.994,4.999c0.075,0,10.525-4.801,14.792-6.673c4.793,5.466,9.51,11.008,14.301,16.475   c-2.395,1.497-2.926,1.913-4.041,5.316c-2.965,8.451-5.93,16.902-8.895,25.352H74.98l7.131-20.083   c0.748,0.075,2.18,0.199,3.004,0.199c2.367,0,4.678,0.065,6.824-1.118C96.557,63.523,96.598,57.445,94.893,53.172z M90.281,54.306   h-7.49l2.324-12.356l0.373-1.871l-0.373-0.524l-5.244-7.49l5.244,1.274l2.77,0.599l-3.508,19.329l5.914,0.008L90.281,54.306z    M43.104,55.879c1.573,0.225,3.22,0.523,4.867,0.824c0.697,0.115,1.35,0.23,2.026,0.348l2.269-7.548   c-1.597-0.353-31.729-6.375-45.482-9.127l-2.183,7.221c2.719,0.642,4.846,1.173,7.575,1.841c-0.824,0.524-1.571,1.124-2.394,1.647   c1.796,2.021,3.518,4.043,5.316,6.066c3.07-3.146,6.665-4.568,10.784-4.195c7.338,1.199,12.729,5.317,12.58,13.854   c0.133,7.967-7.587,13.511-13.479,13.703c-3.71-0.043-7.113-2.171-10.109-4.194c-1.871,1.424-3.744,2.848-5.616,4.194   c3.295,4.345,8.088,7.265,16.249,7.189c13.287-1.344,19.276-9.361,20.519-20.518C46.53,62.438,45.051,59.398,43.104,55.879z"></path></g></g></g><g class="sampleTexts_1" transform="scale(1) translate(0.000006103515630684342,10.384986877441406)"><g class="logo--name svgLogoName_1 logoNameBox" transform="scale(1) translate(191.78000011444092,226.46000289916992)" fill="#ffffff"><path d="M23.76-49.39L23.76-49.39Q29.95-49.39 34.56-46.69L34.56-46.69L34.56-46.69Q39.17-43.99 41.69-38.99L41.69-38.99L41.69-38.99Q44.21-33.98 44.21-27.22L44.21-27.22L44.21-22.18L44.21-22.18Q44.21-15.41 41.69-10.40L41.69-10.40L41.69-10.40Q39.17-5.40 34.56-2.70L34.56-2.70L34.56-2.70Q29.95 0 23.76 0L23.76 0L6.62 0L6.62-49.39L23.76-49.39ZM23.76-42.98L13.68-42.98L13.68-6.41L23.76-6.41L23.76-6.41Q30.17-6.41 33.66-10.40L33.66-10.40L33.66-10.40Q37.15-14.40 37.15-22.18L37.15-22.18L37.15-27.22L37.15-27.22Q37.15-34.85 33.73-38.92L33.73-38.92L33.73-38.92Q30.31-42.98 23.76-42.98L23.76-42.98ZM55.43-51.84L62.49-51.84L62.49-45.58L55.43-45.58L55.43-51.84ZM55.58-36.79L62.34-36.79L62.34 0L55.58 0L55.58-36.79ZM108.99-43.42L108.99-43.42Q108.99-39.74 107.05-37.26L107.05-37.26L107.05-37.26Q105.10-34.78 101.65-34.06L101.65-34.06L101.50-33.84L101.50-33.84Q105.10-30.67 105.10-25.92L105.10-25.92L105.10-25.92Q105.10-20.74 101.22-17.57L101.22-17.57L101.22-17.57Q97.33-14.40 90.63-14.40L90.63-14.40L85.74-14.40L85.74-14.40Q83.58-14.40 82.14-13.28L82.14-13.28L82.14-13.28Q80.70-12.17 80.70-10.44L80.70-10.44L80.70-10.44Q80.70-8.71 82.06-7.70L82.06-7.70L82.06-7.70Q83.43-6.70 85.74-6.70L85.74-6.70L99.63-6.70L99.63-6.70Q103.88-6.70 106.44-4.03L106.44-4.03L106.44-4.03Q108.99-1.37 108.99 2.74L108.99 2.74L108.99 2.74Q108.99 7.63 105.28 10.58L105.28 10.58L105.28 10.58Q101.58 13.54 95.31 13.54L95.31 13.54L80.84 13.54L80.84 13.54Q78.39 13.54 76.34 12.24L76.34 12.24L76.34 12.24Q74.29 10.94 73.10 8.96L73.10 8.96L73.10 8.96Q71.91 6.98 71.91 4.90L71.91 4.90L71.91 4.90Q71.91 1.87 73.39-0.36L73.39-0.36L73.39-0.36Q74.86-2.59 77.31-3.67L77.31-3.67L77.31-3.67Q74.00-5.69 74.00-9.65L74.00-9.65L74.00-9.65Q74.00-12.24 75.51-14.11L75.51-14.11L75.51-14.11Q77.02-15.98 79.76-16.92L79.76-16.92L79.76-16.92Q74.94-19.58 74.94-25.92L74.94-25.92L74.94-25.92Q74.94-31.25 78.86-34.38L78.86-34.38L78.86-34.38Q82.78-37.51 89.77-37.51L89.77-37.51L90.06-37.51L90.06-37.51Q94.09-37.51 97.40-36.29L97.40-36.29L97.40-36.29Q102.51-38.81 103.23-43.42L103.23-43.42L108.99-43.42ZM89.98-32.11L89.98-32.11Q86.17-32.11 83.90-30.64L83.90-30.64L83.90-30.64Q81.63-29.16 81.63-25.92L81.63-25.92L81.63-25.92Q81.63-22.68 83.90-21.24L83.90-21.24L83.90-21.24Q86.17-19.80 89.98-19.80L89.98-19.80L89.98-19.80Q93.80-19.80 96.10-21.24L96.10-21.24L96.10-21.24Q98.41-22.68 98.41-25.92L98.41-25.92L98.41-25.92Q98.41-29.16 96.10-30.64L96.10-30.64L96.10-30.64Q93.80-32.11 89.98-32.11L89.98-32.11ZM97.62-0.22L82.78-0.22L82.78-0.22Q81.06-0.22 79.83 1.01L79.83 1.01L79.83 1.01Q78.61 2.23 78.61 3.96L78.61 3.96L78.61 3.96Q78.61 5.69 79.83 6.91L79.83 6.91L79.83 6.91Q81.06 8.14 82.78 8.14L82.78 8.14L96.68 8.14L96.68 8.14Q98.98 8.14 100.64 6.80L100.64 6.80L100.64 6.80Q102.30 5.47 102.30 3.74L102.30 3.74L102.30 3.74Q102.30 1.94 101.07 0.86L101.07 0.86L101.07 0.86Q99.85-0.22 97.62-0.22L97.62-0.22ZM117.48-51.84L124.25-51.84L124.25 0L117.48 0L117.48-51.84ZM152.18-37.51L152.18-37.51Q159.88-37.51 164.49-32.76L164.49-32.76L164.49-32.76Q169.10-28.01 169.10-19.73L169.10-19.73L169.10-17.06L169.10-17.06Q169.10-8.78 164.56-4.03L164.56-4.03L164.56-4.03Q160.02 0.72 152.18 0.72L152.18 0.72L152.18 0.72Q144.33 0.72 139.79-4.03L139.79-4.03L139.79-4.03Q135.26-8.78 135.26-17.06L135.26-17.06L135.26-19.73L135.26-19.73Q135.26-28.01 139.86-32.76L139.86-32.76L139.86-32.76Q144.47-37.51 152.18-37.51L152.18-37.51ZM152.18-32.11L152.18-32.11Q147.35-32.11 144.69-28.80L144.69-28.80L144.69-28.80Q142.02-25.49 142.02-19.08L142.02-19.08L142.02-17.71L142.02-17.71Q142.02-11.45 144.65-8.06L144.65-8.06L144.65-8.06Q147.28-4.68 152.18-4.68L152.18-4.68L152.18-4.68Q156.93-4.68 159.63-8.03L159.63-8.03L159.63-8.03Q162.33-11.38 162.33-17.71L162.33-17.71L162.33-19.08L162.33-19.08Q162.33-25.34 159.70-28.73L159.70-28.73L159.70-28.73Q157.07-32.11 152.18-32.11L152.18-32.11ZM187.74-48.53L187.74-36.79L196.30-36.79L196.30-31.39L187.74-31.39L187.74-9.43L187.74-9.43Q187.74-6.84 188.74-5.69L188.74-5.69L188.74-5.69Q189.75-4.54 191.84-4.54L191.84-4.54L191.84-4.54Q193.71-4.54 196.30-5.62L196.30-5.62L196.30-0.58L196.30-0.58Q193.71 0.72 189.61 0.72L189.61 0.72L189.61 0.72Q185.36 0.72 183.16-1.80L183.16-1.80L183.16-1.80Q180.97-4.32 180.97-9.79L180.97-9.79L180.97-31.39L176.94-31.39L176.94-36.79L181.18-36.79L183.49-48.53L187.74-48.53Z"/></g><g id="" class="logo--name svgSloganText_1 sloganBox" transform="scale(1) translate(195.73999991416932,275.97999992370603)" fill="#ffffff"><path d="M2.66 0L13.53 0L13.53-3.53L6.50-3.53L6.50-21.58L2.66-21.58ZM16.00-3.19C16.00-1.22 17.59 0.38 19.61 0.38L23.10 0.38C25.12 0.38 26.71-1.22 26.71-3.19L26.71-5.36L23.41-5.36L23.41-3.99C23.41-3.42 22.95-2.85 22.34-2.85L20.52-2.85C19.91-2.85 19.46-3.42 19.46-3.99L19.46-7.22L26.71-7.22L26.71-12.77C26.71-14.74 25.12-16.38 23.10-16.38L19.61-16.38C17.59-16.38 16.00-14.74 16.00-12.77L16.00-3.19ZM19.46-9.54L19.46-12.01C19.46-12.58 19.91-13.11 20.52-13.11L22.34-13.11C22.95-13.11 23.41-12.58 23.41-12.01L23.41-9.54ZM41.15-12.69C41.15-14.71 39.52-16.38 37.47-16.38L34.50-16.38C32.45-16.38 30.82-14.71 30.82-12.69L30.82-10.37L34.12-10.37L34.12-12.05C34.12-12.58 34.66-13.11 35.23-13.11L36.59-13.11C37.20-13.11 37.62-12.58 37.62-12.05L37.62-10.98C37.62-10.49 37.47-10.07 36.97-9.84L32.22-7.98C31.16-7.56 30.51-6.65 30.51-5.36L30.51-3.27C30.51-1.29 32.19 0.38 34.20 0.38L35.26 0.38C36.44 0.38 37.24-0.30 37.73-0.80L37.92 0L41.15 0ZM37.62-4.14C37.62-3.50 37.05-2.85 36.40-2.85L34.96-2.85C34.31-2.85 33.93-3.42 33.93-3.91L33.93-4.98C33.93-5.43 34.05-5.74 34.50-5.97L37.16-7.07C37.43-7.18 37.58-7.37 37.62-7.37ZM48.94 0L48.94-11.51C48.94-12.24 49.51-12.84 50.20-12.84L52.33-12.84L52.33-16.23L51.30-16.23C50.16-16.23 49.25-15.47 48.87-14.93L48.64-16.00L45.33-16.00L45.33 0ZM58.44 0L58.44-11.67C58.44-12.35 58.98-13.00 59.66-13.00L61.14-13.00C61.75-13.00 62.21-12.46 62.21-11.86L62.21 0L65.82 0L65.82-12.73C65.82-14.74 64.22-16.38 62.21-16.38L60.80-16.38C59.62-16.38 58.75-15.58 58.33-15.05L58.14-16.00L54.80-16.00L54.80 0ZM73.99 0L73.99-16.00L70.38-16.00L70.38 0ZM73.95-18.62L73.95-21.58L70.38-21.58L70.38-18.62ZM82.19 0L82.19-11.67C82.19-12.35 82.73-13.00 83.41-13.00L84.89-13.00C85.50-13.00 85.96-12.46 85.96-11.86L85.96 0L89.57 0L89.57-12.73C89.57-14.74 87.97-16.38 85.96-16.38L84.55-16.38C83.37-16.38 82.50-15.58 82.08-15.05L81.89-16.00L78.55-16.00L78.55 0ZM93.18 4.94C93.18 6.99 94.81 8.63 96.82 8.63L100.28 8.63C102.33 8.63 103.93 6.99 103.93 4.94L103.93 1.41C103.93-0.15 103.06-1.10 101.42-1.71L97.39-3.19C96.90-3.38 96.48-3.57 96.48-4.14C96.48-4.41 96.60-4.64 96.75-4.83C96.86-4.83 96.98-4.79 97.09-4.79L99.33-4.79C101.38-4.79 102.98-6.46 102.98-8.47L102.98-12.27C102.98-12.84 102.71-13.34 102.45-13.53L103.66-13.76L103.66-16.00L96.82-16.00C94.77-16.00 93.18-14.33 93.18-12.31L93.18-8.47C93.18-7.22 93.78-6.16 94.73-5.47C94.32-5.02 94.01-4.41 94.01-3.69C94.01-2.39 94.85-1.82 95.76-1.37L94.81-0.49C93.86 0.42 93.18 1.10 93.18 2.55ZM96.60-11.67C96.60-12.20 97.01-12.73 97.66-12.73L98.50-12.73C99.14-12.73 99.56-12.20 99.56-11.67L99.56-8.78C99.56-8.25 99.14-7.75 98.50-7.75L97.66-7.75C97.01-7.75 96.60-8.25 96.60-8.78ZM97.36 5.36C96.75 5.36 96.25 4.83 96.25 4.22L96.25 2.17C96.25 1.56 96.52 1.29 97.01 0.80L97.96-0.15L99.86 0.87C100.24 0.99 100.51 1.41 100.51 1.79L100.51 4.22C100.51 4.83 100.02 5.36 99.41 5.36ZM114.57 0L118.37 0L118.37-9.39L123.88 0L128.10 0L121.71-10.98L127.95-21.58L123.99-21.58L118.37-12.01L118.37-21.58L114.57-21.58ZM130.57-3.19C130.57-1.22 132.16 0.38 134.14 0.38L137.86 0.38C139.88 0.38 141.47-1.22 141.47-3.19L141.47-12.77C141.47-14.74 139.88-16.38 137.86-16.38L134.14-16.38C132.16-16.38 130.57-14.74 130.57-12.77L130.57-3.19ZM134.03-3.99L134.03-12.01C134.03-12.58 134.48-13.11 135.05-13.11L136.95-13.11C137.56-13.11 138.02-12.58 138.02-12.01L138.02-3.99C138.02-3.42 137.56-2.85 136.95-2.85L135.05-2.85C134.48-2.85 134.03-3.42 134.03-3.99ZM149.26 0L149.26-11.51C149.26-12.24 149.83-12.84 150.52-12.84L152.65-12.84L152.65-16.23L151.62-16.23C150.48-16.23 149.57-15.47 149.19-14.93L148.96-16.00L145.65-16.00L145.65 0ZM155.12-3.19C155.12-1.22 156.71 0.38 158.73 0.38L162.22 0.38C164.24 0.38 165.83-1.22 165.83-3.19L165.83-5.36L162.53-5.36L162.53-3.99C162.53-3.42 162.07-2.85 161.46-2.85L159.64-2.85C159.03-2.85 158.57-3.42 158.57-3.99L158.57-7.22L165.83-7.22L165.83-12.77C165.83-14.74 164.24-16.38 162.22-16.38L158.73-16.38C156.71-16.38 155.12-14.74 155.12-12.77L155.12-3.19ZM158.57-9.54L158.57-12.01C158.57-12.58 159.03-13.11 159.64-13.11L161.46-13.11C162.07-13.11 162.53-12.58 162.53-12.01L162.53-9.54ZM180.27-12.69C180.27-14.71 178.64-16.38 176.59-16.38L173.62-16.38C171.57-16.38 169.94-14.71 169.94-12.69L169.94-10.37L173.24-10.37L173.24-12.05C173.24-12.58 173.77-13.11 174.34-13.11L175.71-13.11C176.32-13.11 176.74-12.58 176.74-12.05L176.74-10.98C176.74-10.49 176.59-10.07 176.09-9.84L171.34-7.98C170.28-7.56 169.63-6.65 169.63-5.36L169.63-3.27C169.63-1.29 171.30 0.38 173.32 0.38L174.38 0.38C175.56 0.38 176.36-0.30 176.85-0.80L177.04 0L180.27 0ZM176.74-4.14C176.74-3.50 176.17-2.85 175.52-2.85L174.08-2.85C173.43-2.85 173.05-3.42 173.05-3.91L173.05-4.98C173.05-5.43 173.17-5.74 173.62-5.97L176.28-7.07C176.55-7.18 176.70-7.37 176.74-7.37ZM188.10 0L188.10-11.67C188.10-12.35 188.63-13.00 189.32-13.00L190.80-13.00C191.41-13.00 191.86-12.46 191.86-11.86L191.86 0L195.47 0L195.47-12.73C195.47-14.74 193.88-16.38 191.86-16.38L190.46-16.38C189.28-16.38 188.40-15.58 187.99-15.05L187.80-16.00L184.45-16.00L184.45 0Z"/></g></g></g></g></svg>