<svg version="1.1" xmlns="http://www.w3.org/2000/svg" xmlns:xlink="http://www.w3.org/1999/xlink" xmlns:i="http://ns.adobe.com/AdobeIllustrator/10.0/" xmlns:sketch="http://www.bohemiancoding.com/sketch/ns" height="100%" width="100%" x="0px" y="0px" viewBox="0 0 640 480" xml:space="preserve" preserveAspectRatio="xMidYMid meet" class=""><defs><linearGradient id="textGradient3852682867"><stop offset="0.05" stop-color="#B68648" /><stop offset="0.95" stop-color="#FBF3A3" /></linearGradient></defs><defs><linearGradient id="iconGradient3852682867"><stop offset="0.05" stop-color="#B68648" /><stop offset="0.95" stop-color="#FBF3A3" /></linearGradient></defs><rect x="0px" y="0px" width="100%" height="100%" fill="none"/><g class="logo-container-box logoContainerBox" transform="scale(0.75) translate(106.66665140787762,79.99999237060547)"><g class="containerBody" transform="scale(1.12) translate(52.07428632463723,-25.714285714285722)" ><g class="sampleIconBox" transform="scale(1) translate(0,0)"><g class="sampleIcons_1" transform="scale(1.0949996031762608) translate(67.72778921127318,170.826434135437)" fill="url(#iconGradient3852682867)"><g><path fill-rule="evenodd" clip-rule="evenodd" d="M56.809,28.396c5.314,0,9.66-4.343,9.66-9.661c0-5.392-4.346-9.735-9.66-9.735   c-3.896,0-7.34,2.321-8.838,5.691c-0.599,1.198-0.898,2.621-0.898,4.044c0,1.422,0.299,2.77,0.898,4.043   C49.468,26.074,52.912,28.396,56.809,28.396z M68.439,66.737c1.287-3.343,2.109-6.596,3.402-10.109   c-4.418,0-6.973-0.146-11.33-0.031c-3.445,0-4.902,1.977-6.025,4.374c-2.17,5.69-4.343,11.456-6.516,17.147   c-1.085,2.968-2.278,5.981-3.371,8.952h11.947c2.398-7.02,4.762-13.554,7.562-20.333H68.439z M94.893,53.172   c-0.311-0.77-0.664-1.52-1.037-2.26c-0.223-0.444-1.34-1.927-1.254-2.373c0.9-4.643,1.93-9.307,2.828-13.95   c0.756-3.659-0.803-5.954-2.973-6.853c-2.846-1.198-4.572-1.886-7.342-3.084c-1.199-0.524-2.398-1.049-3.67-1.572   c-3.67-1.798-6.143-2.282-9.811,0.224c-6.891,4.343-14.584,9.294-21.474,13.713c0.9-2.396,2.298-5.325,3.199-7.723   c-1.873-0.672-3.516-1.421-5.389-2.17c-0.299-0.15-0.599-0.225-0.898-0.375l-0.149,0.375c-2.138,4.518-4.911,9.987-6.56,14.479   c-1.092,3.415,2.628,6.088,5.994,4.999c0.075,0,10.525-4.801,14.792-6.673c4.793,5.466,9.51,11.008,14.301,16.475   c-2.395,1.497-2.926,1.913-4.041,5.316c-2.965,8.451-5.93,16.902-8.895,25.352H74.98l7.131-20.083   c0.748,0.075,2.18,0.199,3.004,0.199c2.367,0,4.678,0.065,6.824-1.118C96.557,63.523,96.598,57.445,94.893,53.172z M90.281,54.306   h-7.49l2.324-12.356l0.373-1.871l-0.373-0.524l-5.244-7.49l5.244,1.274l2.77,0.599l-3.508,19.329l5.914,0.008L90.281,54.306z    M43.104,55.879c1.573,0.225,3.22,0.523,4.867,0.824c0.697,0.115,1.35,0.23,2.026,0.348l2.269-7.548   c-1.597-0.353-31.729-6.375-45.482-9.127l-2.183,7.221c2.719,0.642,4.846,1.173,7.575,1.841c-0.824,0.524-1.571,1.124-2.394,1.647   c1.796,2.021,3.518,4.043,5.316,6.066c3.07-3.146,6.665-4.568,10.784-4.195c7.338,1.199,12.729,5.317,12.58,13.854   c0.133,7.967-7.587,13.511-13.479,13.703c-3.71-0.043-7.113-2.171-10.109-4.194c-1.871,1.424-3.744,2.848-5.616,4.194   c3.295,4.345,8.088,7.265,16.249,7.189c13.287-1.344,19.276-9.361,20.519-20.518C46.53,62.438,45.051,59.398,43.104,55.879z"></path></g></g></g><g class="sampleTexts_1" transform="scale(1) translate(0.000006103515630684342,12.769996643066406)"><g class="logo--name svgLogoName_1 logoNameBox" transform="scale(1) translate(191.78000011444092,226.46000289916992)" fill="url(#textGradient3852682867)"><path d="M23.76-49.39L23.76-49.39Q29.95-49.39 34.56-46.69L34.56-46.69L34.56-46.69Q39.17-43.99 41.69-38.99L41.69-38.99L41.69-38.99Q44.21-33.98 44.21-27.22L44.21-27.22L44.21-22.18L44.21-22.18Q44.21-15.41 41.69-10.40L41.69-10.40L41.69-10.40Q39.17-5.40 34.56-2.70L34.56-2.70L34.56-2.70Q29.95 0 23.76 0L23.76 0L6.62 0L6.62-49.39L23.76-49.39ZM23.76-42.98L13.68-42.98L13.68-6.41L23.76-6.41L23.76-6.41Q30.17-6.41 33.66-10.40L33.66-10.40L33.66-10.40Q37.15-14.40 37.15-22.18L37.15-22.18L37.15-27.22L37.15-27.22Q37.15-34.85 33.73-38.92L33.73-38.92L33.73-38.92Q30.31-42.98 23.76-42.98L23.76-42.98ZM55.43-51.84L62.49-51.84L62.49-45.58L55.43-45.58L55.43-51.84ZM55.58-36.79L62.34-36.79L62.34 0L55.58 0L55.58-36.79ZM108.99-43.42L108.99-43.42Q108.99-39.74 107.05-37.26L107.05-37.26L107.05-37.26Q105.10-34.78 101.65-34.06L101.65-34.06L101.50-33.84L101.50-33.84Q105.10-30.67 105.10-25.92L105.10-25.92L105.10-25.92Q105.10-20.74 101.22-17.57L101.22-17.57L101.22-17.57Q97.33-14.40 90.63-14.40L90.63-14.40L85.74-14.40L85.74-14.40Q83.58-14.40 82.14-13.28L82.14-13.28L82.14-13.28Q80.70-12.17 80.70-10.44L80.70-10.44L80.70-10.44Q80.70-8.71 82.06-7.70L82.06-7.70L82.06-7.70Q83.43-6.70 85.74-6.70L85.74-6.70L99.63-6.70L99.63-6.70Q103.88-6.70 106.44-4.03L106.44-4.03L106.44-4.03Q108.99-1.37 108.99 2.74L108.99 2.74L108.99 2.74Q108.99 7.63 105.28 10.58L105.28 10.58L105.28 10.58Q101.58 13.54 95.31 13.54L95.31 13.54L80.84 13.54L80.84 13.54Q78.39 13.54 76.34 12.24L76.34 12.24L76.34 12.24Q74.29 10.94 73.10 8.96L73.10 8.96L73.10 8.96Q71.91 6.98 71.91 4.90L71.91 4.90L71.91 4.90Q71.91 1.87 73.39-0.36L73.39-0.36L73.39-0.36Q74.86-2.59 77.31-3.67L77.31-3.67L77.31-3.67Q74.00-5.69 74.00-9.65L74.00-9.65L74.00-9.65Q74.00-12.24 75.51-14.11L75.51-14.11L75.51-14.11Q77.02-15.98 79.76-16.92L79.76-16.92L79.76-16.92Q74.94-19.58 74.94-25.92L74.94-25.92L74.94-25.92Q74.94-31.25 78.86-34.38L78.86-34.38L78.86-34.38Q82.78-37.51 89.77-37.51L89.77-37.51L90.06-37.51L90.06-37.51Q94.09-37.51 97.40-36.29L97.40-36.29L97.40-36.29Q102.51-38.81 103.23-43.42L103.23-43.42L108.99-43.42ZM89.98-32.11L89.98-32.11Q86.17-32.11 83.90-30.64L83.90-30.64L83.90-30.64Q81.63-29.16 81.63-25.92L81.63-25.92L81.63-25.92Q81.63-22.68 83.90-21.24L83.90-21.24L83.90-21.24Q86.17-19.80 89.98-19.80L89.98-19.80L89.98-19.80Q93.80-19.80 96.10-21.24L96.10-21.24L96.10-21.24Q98.41-22.68 98.41-25.92L98.41-25.92L98.41-25.92Q98.41-29.16 96.10-30.64L96.10-30.64L96.10-30.64Q93.80-32.11 89.98-32.11L89.98-32.11ZM97.62-0.22L82.78-0.22L82.78-0.22Q81.06-0.22 79.83 1.01L79.83 1.01L79.83 1.01Q78.61 2.23 78.61 3.96L78.61 3.96L78.61 3.96Q78.61 5.69 79.83 6.91L79.83 6.91L79.83 6.91Q81.06 8.14 82.78 8.14L82.78 8.14L96.68 8.14L96.68 8.14Q98.98 8.14 100.64 6.80L100.64 6.80L100.64 6.80Q102.30 5.47 102.30 3.74L102.30 3.74L102.30 3.74Q102.30 1.94 101.07 0.86L101.07 0.86L101.07 0.86Q99.85-0.22 97.62-0.22L97.62-0.22ZM117.48-51.84L124.25-51.84L124.25 0L117.48 0L117.48-51.84ZM152.18-37.51L152.18-37.51Q159.88-37.51 164.49-32.76L164.49-32.76L164.49-32.76Q169.10-28.01 169.10-19.73L169.10-19.73L169.10-17.06L169.10-17.06Q169.10-8.78 164.56-4.03L164.56-4.03L164.56-4.03Q160.02 0.72 152.18 0.72L152.18 0.72L152.18 0.72Q144.33 0.72 139.79-4.03L139.79-4.03L139.79-4.03Q135.26-8.78 135.26-17.06L135.26-17.06L135.26-19.73L135.26-19.73Q135.26-28.01 139.86-32.76L139.86-32.76L139.86-32.76Q144.47-37.51 152.18-37.51L152.18-37.51ZM152.18-32.11L152.18-32.11Q147.35-32.11 144.69-28.80L144.69-28.80L144.69-28.80Q142.02-25.49 142.02-19.08L142.02-19.08L142.02-17.71L142.02-17.71Q142.02-11.45 144.65-8.06L144.65-8.06L144.65-8.06Q147.28-4.68 152.18-4.68L152.18-4.68L152.18-4.68Q156.93-4.68 159.63-8.03L159.63-8.03L159.63-8.03Q162.33-11.38 162.33-17.71L162.33-17.71L162.33-19.08L162.33-19.08Q162.33-25.34 159.70-28.73L159.70-28.73L159.70-28.73Q157.07-32.11 152.18-32.11L152.18-32.11ZM187.74-48.53L187.74-36.79L196.30-36.79L196.30-31.39L187.74-31.39L187.74-9.43L187.74-9.43Q187.74-6.84 188.74-5.69L188.74-5.69L188.74-5.69Q189.75-4.54 191.84-4.54L191.84-4.54L191.84-4.54Q193.71-4.54 196.30-5.62L196.30-5.62L196.30-0.58L196.30-0.58Q193.71 0.72 189.61 0.72L189.61 0.72L189.61 0.72Q185.36 0.72 183.16-1.80L183.16-1.80L183.16-1.80Q180.97-4.32 180.97-9.79L180.97-9.79L180.97-31.39L176.94-31.39L176.94-36.79L181.18-36.79L183.49-48.53L187.74-48.53Z"/></g><g id="" class="logo--name svgSloganText_1 sloganBox" transform="scale(1) translate(196.15999999046326,272.58000030517576)" fill="#ffffff"><path d="M2.24 0L11.39 0L11.39-2.98L5.47-2.98L5.47-18.18L2.24-18.18ZM13.47-2.69C13.47-1.02 14.82 0.32 16.51 0.32L19.46 0.32C21.15 0.32 22.50-1.02 22.50-2.69L22.50-4.51L19.71-4.51L19.71-3.36C19.71-2.88 19.33-2.40 18.82-2.40L17.28-2.40C16.77-2.40 16.38-2.88 16.38-3.36L16.38-6.08L22.50-6.08L22.50-10.75C22.50-12.42 21.15-13.79 19.46-13.79L16.51-13.79C14.82-13.79 13.47-12.42 13.47-10.75L13.47-2.69ZM16.38-8.03L16.38-10.11C16.38-10.59 16.77-11.04 17.28-11.04L18.82-11.04C19.33-11.04 19.71-10.59 19.71-10.11L19.71-8.03ZM34.66-10.69C34.66-12.38 33.28-13.79 31.55-13.79L29.06-13.79C27.33-13.79 25.95-12.38 25.95-10.69L25.95-8.74L28.74-8.74L28.74-10.14C28.74-10.59 29.18-11.04 29.66-11.04L30.82-11.04C31.33-11.04 31.68-10.59 31.68-10.14L31.68-9.25C31.68-8.83 31.55-8.48 31.14-8.29L27.14-6.72C26.24-6.37 25.70-5.60 25.70-4.51L25.70-2.75C25.70-1.09 27.10 0.32 28.80 0.32L29.70 0.32C30.69 0.32 31.36-0.26 31.78-0.67L31.94 0L34.66 0ZM31.68-3.49C31.68-2.94 31.20-2.40 30.66-2.40L29.44-2.40C28.90-2.40 28.58-2.88 28.58-3.30L28.58-4.19C28.58-4.58 28.67-4.83 29.06-5.02L31.30-5.95C31.52-6.05 31.65-6.21 31.68-6.21ZM41.22 0L41.22-9.70C41.22-10.30 41.70-10.82 42.27-10.82L44.06-10.82L44.06-13.66L43.20-13.66C42.24-13.66 41.47-13.02 41.15-12.58L40.96-13.47L38.18-13.47L38.18 0ZM49.22 0L49.22-9.82C49.22-10.40 49.66-10.94 50.24-10.94L51.49-10.94C52-10.94 52.38-10.50 52.38-9.98L52.38 0L55.42 0L55.42-10.72C55.42-12.42 54.08-13.79 52.38-13.79L51.20-13.79C50.21-13.79 49.47-13.12 49.12-12.67L48.96-13.47L46.14-13.47L46.14 0ZM62.30 0L62.30-13.47L59.26-13.47L59.26 0ZM62.27-15.68L62.27-18.18L59.26-18.18L59.26-15.68ZM69.22 0L69.22-9.82C69.22-10.40 69.66-10.94 70.24-10.94L71.49-10.94C72-10.94 72.38-10.50 72.38-9.98L72.38 0L75.42 0L75.42-10.72C75.42-12.42 74.08-13.79 72.38-13.79L71.20-13.79C70.21-13.79 69.47-13.12 69.12-12.67L68.96-13.47L66.14-13.47L66.14 0ZM78.46 4.16C78.46 5.89 79.84 7.26 81.54 7.26L84.45 7.26C86.18 7.26 87.52 5.89 87.52 4.16L87.52 1.18C87.52-0.13 86.78-0.93 85.41-1.44L82.02-2.69C81.60-2.85 81.25-3.01 81.25-3.49C81.25-3.71 81.34-3.90 81.47-4.06C81.57-4.06 81.66-4.03 81.76-4.03L83.65-4.03C85.38-4.03 86.72-5.44 86.72-7.14L86.72-10.34C86.72-10.82 86.50-11.23 86.27-11.39L87.30-11.58L87.30-13.47L81.54-13.47C79.81-13.47 78.46-12.06 78.46-10.37L78.46-7.14C78.46-6.08 78.98-5.18 79.78-4.61C79.42-4.22 79.17-3.71 79.17-3.10C79.17-2.02 79.87-1.54 80.64-1.15L79.84-0.42C79.04 0.35 78.46 0.93 78.46 2.14ZM81.34-9.82C81.34-10.27 81.70-10.72 82.24-10.72L82.94-10.72C83.49-10.72 83.84-10.27 83.84-9.82L83.84-7.39C83.84-6.94 83.49-6.53 82.94-6.53L82.24-6.53C81.70-6.53 81.34-6.94 81.34-7.39ZM81.98 4.51C81.47 4.51 81.06 4.06 81.06 3.55L81.06 1.82C81.06 1.31 81.28 1.09 81.70 0.67L82.50-0.13L84.10 0.74C84.42 0.83 84.64 1.18 84.64 1.50L84.64 3.55C84.64 4.06 84.22 4.51 83.71 4.51ZM95.20-2.98C95.20-1.18 96.70 0.32 98.53 0.32L101.28 0.32C103.10 0.32 104.58-1.18 104.58-2.98L104.58-18.18L101.28-18.18L101.28-3.78C101.28-3.20 100.86-2.69 100.26-2.69L99.42-2.69C98.85-2.69 98.40-3.20 98.40-3.78L98.40-5.76L95.20-5.76L95.20-2.98ZM117.22-10.69C117.22-12.38 115.84-13.79 114.11-13.79L111.62-13.79C109.89-13.79 108.51-12.38 108.51-10.69L108.51-8.74L111.30-8.74L111.30-10.14C111.30-10.59 111.74-11.04 112.22-11.04L113.38-11.04C113.89-11.04 114.24-10.59 114.24-10.14L114.24-9.25C114.24-8.83 114.11-8.48 113.70-8.29L109.70-6.72C108.80-6.37 108.26-5.60 108.26-4.51L108.26-2.75C108.26-1.09 109.66 0.32 111.36 0.32L112.26 0.32C113.25 0.32 113.92-0.26 114.34-0.67L114.50 0L117.22 0ZM114.24-3.49C114.24-2.94 113.76-2.40 113.22-2.40L112.00-2.40C111.46-2.40 111.14-2.88 111.14-3.30L111.14-4.19C111.14-4.58 111.23-4.83 111.62-5.02L113.86-5.95C114.08-6.05 114.21-6.21 114.24-6.21ZM123.78 6.94L123.78-0.70C124.13-0.29 124.80 0.32 125.76 0.32L126.98 0.32C128.67 0.32 130.02-1.02 130.02-2.69L130.02-10.72C130.02-12.42 128.67-13.79 126.98-13.79L125.70-13.79C124.70-13.79 124.03-13.15 123.68-12.74L123.52-13.47L120.74-13.47L120.74 6.94ZM123.78-3.42L123.78-9.82C123.78-10.43 124.22-10.94 124.80-10.94L126.08-10.94C126.59-10.94 126.98-10.50 126.98-10.02L126.98-3.23C126.98-2.75 126.59-2.30 126.08-2.30L124.80-2.30C124.22-2.30 123.78-2.82 123.78-3.42ZM142.34-10.69C142.34-12.38 140.96-13.79 139.23-13.79L136.74-13.79C135.01-13.79 133.63-12.38 133.63-10.69L133.63-8.74L136.42-8.74L136.42-10.14C136.42-10.59 136.86-11.04 137.34-11.04L138.50-11.04C139.01-11.04 139.36-10.59 139.36-10.14L139.36-9.25C139.36-8.83 139.23-8.48 138.82-8.29L134.82-6.72C133.92-6.37 133.38-5.60 133.38-4.51L133.38-2.75C133.38-1.09 134.78 0.32 136.48 0.32L137.38 0.32C138.37 0.32 139.04-0.26 139.46-0.67L139.62 0L142.34 0ZM139.36-3.49C139.36-2.94 138.88-2.40 138.34-2.40L137.12-2.40C136.58-2.40 136.26-2.88 136.26-3.30L136.26-4.19C136.26-4.58 136.35-4.83 136.74-5.02L138.98-5.95C139.20-6.05 139.33-6.21 139.36-6.21ZM148.93 0L148.93-9.82C148.93-10.40 149.38-10.94 149.95-10.94L151.20-10.94C151.71-10.94 152.10-10.50 152.10-9.98L152.10 0L155.14 0L155.14-10.72C155.14-12.42 153.79-13.79 152.10-13.79L150.91-13.79C149.92-13.79 149.18-13.12 148.83-12.67L148.67-13.47L145.86-13.47L145.86 0ZM158.66-2.69C158.66-1.02 160.00 0.32 161.70 0.32L164.64 0.32C166.34 0.32 167.68-1.02 167.68-2.69L167.68-4.51L164.90-4.51L164.90-3.36C164.90-2.88 164.51-2.40 164.00-2.40L162.46-2.40C161.95-2.40 161.57-2.88 161.57-3.36L161.57-6.08L167.68-6.08L167.68-10.75C167.68-12.42 166.34-13.79 164.64-13.79L161.70-13.79C160.00-13.79 158.66-12.42 158.66-10.75L158.66-2.69ZM161.57-8.03L161.57-10.11C161.57-10.59 161.95-11.04 162.46-11.04L164.00-11.04C164.51-11.04 164.90-10.59 164.90-10.11L164.90-8.03ZM170.72-2.75C170.72-1.06 172.13 0.32 173.86 0.32L176.22 0.32C177.92 0.32 179.33-1.06 179.33-2.75L179.33-4.67C179.33-5.79 178.59-6.75 177.50-7.14L174.18-8.35C173.86-8.45 173.63-8.80 173.63-9.12L173.63-10.14C173.63-10.59 173.98-11.01 174.50-11.01L175.65-11.01C176.13-11.01 176.54-10.59 176.54-10.14L176.54-9.02L179.33-9.02L179.33-10.69C179.33-12.38 177.92-13.79 176.22-13.79L173.86-13.79C172.13-13.79 170.72-12.38 170.72-10.69L170.72-8.77C170.72-7.65 171.46-6.69 172.58-6.30L175.90-5.09C176.22-4.99 176.45-4.64 176.45-4.29L176.45-3.30C176.45-2.88 176.06-2.43 175.55-2.43L174.43-2.43C173.95-2.43 173.50-2.88 173.50-3.30L173.50-4.42L170.72-4.42L170.72-2.75ZM182.53-2.69C182.53-1.02 183.87 0.32 185.57 0.32L188.51 0.32C190.21 0.32 191.55-1.02 191.55-2.69L191.55-4.51L188.77-4.51L188.77-3.36C188.77-2.88 188.38-2.40 187.87-2.40L186.34-2.40C185.82-2.40 185.44-2.88 185.44-3.36L185.44-6.08L191.55-6.08L191.55-10.75C191.55-12.42 190.21-13.79 188.51-13.79L185.57-13.79C183.87-13.79 182.53-12.42 182.53-10.75L182.53-2.69ZM185.44-8.03L185.44-10.11C185.44-10.59 185.82-11.04 186.34-11.04L187.87-11.04C188.38-11.04 188.77-10.59 188.77-10.11L188.77-8.03Z"/></g></g></g></g></svg>