<?xml version="1.0" encoding="UTF-8" standalone="no"?>
<svg
   xmlns:dc="http://purl.org/dc/elements/1.1/"
   xmlns:cc="http://creativecommons.org/ns#"
   xmlns:rdf="http://www.w3.org/1999/02/22-rdf-syntax-ns#"
   xmlns:svg="http://www.w3.org/2000/svg"
   xmlns="http://www.w3.org/2000/svg"
   xmlns:xlink="http://www.w3.org/1999/xlink"
   xmlns:sodipodi="http://sodipodi.sourceforge.net/DTD/sodipodi-0.dtd"
   xmlns:inkscape="http://www.inkscape.org/namespaces/inkscape"
   inkscape:export-ydpi="19.674566"
   inkscape:export-xdpi="19.674566"
   inkscape:export-filename="/MacosExt/Users/larpoux/Downloads/download (11)/png/spot-29.png"
   inkscape:version="1.0beta1 (32d4812, 2019-09-19)"
   sodipodi:docname="color_logo6.svg"
   id="svg39"
   class=""
   preserveAspectRatio="xMidYMid meet"
   xml:space="preserve"
   viewBox="0 0 640 480"
   y="0px"
   x="0px"
   width="100%"
   height="100%"
   version="1.1"><metadata
   id="metadata43">
  <rdf:RDF>
    <cc:Work
       rdf:about="">
      <dc:format>image/svg+xml</dc:format>
      <dc:type
         rdf:resource="http://purl.org/dc/dcmitype/StillImage" />
      <dc:title></dc:title>
    </cc:Work>
  </rdf:RDF>
</metadata>
<sodipodi:namedview
   inkscape:document-rotation="0"
   inkscape:current-layer="svg39"
   inkscape:window-maximized="0"
   inkscape:window-y="422"
   inkscape:window-x="1703"
   inkscape:cy="273.22294"
   inkscape:cx="294.27362"
   inkscape:zoom="2.8"
   showgrid="false"
   id="namedview41"
   inkscape:window-height="1209"
   inkscape:window-width="1368"
   inkscape:pageshadow="2"
   inkscape:pageopacity="0"
   guidetolerance="10"
   gridtolerance="10"
   objecttolerance="10"
   borderopacity="1"
   bordercolor="#666666"
   pagecolor="#ffffff" />
<defs
   id="defs7">
  <linearGradient
     id="textGradient3904579687">
    <stop
       id="stop2"
       stop-color="#B68648"
       offset="0.05" />
    <stop
       id="stop4"
       stop-color="#FBF3A3"
       offset="0.95" />
  </linearGradient>
  <linearGradient
     gradientUnits="userSpaceOnUse"
     y2="8.8228048"
     x2="97.851783"
     y1="9.2877102"
     x1="40.414127"
     gradientTransform="matrix(0.90169041,0,0,0.93827283,186.03842,195.52612)"
     id="linearGradient832"
     xlink:href="#iconGradient3904579687"
     inkscape:collect="always" />
  <linearGradient
     gradientUnits="userSpaceOnUse"
     y2="8.8228048"
     x2="97.851783"
     y1="8.8228048"
     x1="-50.534138"
     gradientTransform="scale(0.98031164,1.0200838)"
     id="linearGradient834"
     xlink:href="#iconGradient3904579687"
     inkscape:collect="always" />
  <linearGradient
     gradientUnits="userSpaceOnUse"
     y2="8.8228048"
     x2="97.851783"
     y1="8.8228048"
     x1="-50.534138"
     gradientTransform="scale(0.98031164,1.0200838)"
     id="linearGradient836"
     xlink:href="#iconGradient3904579687"
     inkscape:collect="always" />
</defs>
<defs
   id="defs14">
  <linearGradient
     id="iconGradient3904579687">
    <stop
       id="stop9"
       stop-color="#B68648"
       offset="0.05" />
    <stop
       id="stop11"
       stop-color="#FBF3A3"
       offset="0.95" />
  </linearGradient>
</defs>
<rect
   inkscape:export-ydpi="872.14874"
   inkscape:export-xdpi="872.14874"
   inkscape:export-filename="/Volumes/Macos-Ext/Users/larpoux/projmac/dark_diglot/dark_diglot/macos/Runner/Assets.xcassets/AppIcon.appiconset/app_icon_1024.png"
   style="fill:#4d2d89;stroke-width:0.203373"
   id="rect16"
   height="23.484583%"
   width="17.611675%"
   y="189.04436"
   x="174.60059" />
<g
   transform="matrix(0.84,0,0,0.84,123.74239,38.399994)"
   id="g24"
   class="sampleIconBox">
  <g
     style="fill:url(#linearGradient836)"
     id="g22"
     transform="matrix(1.0949996,0,0,1.0949996,74.161902,187.05488)"
     class="sampleIcons_1">
    <g
       style="fill:url(#linearGradient834)"
       id="g20" />
  </g>
</g>
<g
   transform="translate(3.2142857,2.1428572)"
   id="g929"><path
   inkscape:connector-curvature="0"
   id="path18"
   transform="translate(1.9752525e-6,1.5550824e-6)"
   style="clip-rule:evenodd;fill:url(#linearGradient832);fill-rule:evenodd;stroke-width:0.9198"
   d="m 238.29102,203.80469 c -3.58354,0 -6.75105,2.13465 -8.12891,5.23437 -0.55096,1.10192 -0.82617,2.40988 -0.82617,3.71875 0,1.30796 0.27521,2.54785 0.82617,3.71875 1.37694,3.03166 4.54445,5.16797 8.12891,5.16797 4.88781,0 8.88476,-3.99522 8.88476,-8.88672 0,-4.95956 -3.99695,-8.95312 -8.88476,-8.95312 z m 18.14843,11.56836 c -1.41235,-0.0299 -2.8248,0.43538 -4.51172,1.58789 -6.33834,3.99469 -13.41453,8.54868 -19.75195,12.61328 0.82782,-2.20384 2.11267,-4.89784 2.94141,-7.10352 -1.72279,-0.6181 -3.2323,-1.30716 -4.95508,-1.99609 -0.27502,-0.13797 -0.55115,-0.20773 -0.82617,-0.3457 l -0.13867,0.3457 c -1.96654,4.15565 -4.51646,9.18662 -6.03321,13.31836 -1.00442,3.14111 2.41763,5.59935 5.51367,4.59765 0.069,0 9.68069,-4.4168 13.60547,-6.13867 4.4086,5.02763 8.74754,10.12576 13.1543,15.1543 -2.20292,1.37694 -2.69122,1.76052 -3.7168,4.89063 -2.7272,7.77322 -5.45443,15.54605 -8.18164,23.31835 h 11.4668 l 6.55859,-18.47265 c 0.68801,0.069 2.00381,0.18359 2.76172,0.18359 2.17717,0 4.30346,0.0588 6.27735,-1.02929 4.24763,-2.34276 4.28505,-7.93298 2.71679,-11.86329 -0.28606,-0.70824 -0.61004,-1.39747 -0.95312,-2.07812 -0.20512,-0.40839 -1.2334,-1.77336 -1.1543,-2.18359 0.82782,-4.27066 1.77558,-8.55945 2.60156,-12.83008 0.69537,-3.36555 -0.73841,-5.47779 -2.73437,-6.30469 -2.61775,-1.10192 -4.20606,-1.73402 -6.75391,-2.83594 -1.10284,-0.48197 -2.20501,-0.96426 -3.375,-1.44531 -1.68783,-0.8269 -3.09936,-1.35292 -4.51172,-1.38281 z m 3.06446,9.64648 4.82226,1.17188 2.54883,0.55078 -3.22656,17.77929 5.43945,0.008 -0.01,0.94726 h -6.88867 l 2.13672,-11.36523 0.34375,-1.72071 -0.34375,-0.48242 z m -15.06055,22.52344 c -0.84738,0.002 -1.7442,0.0146 -2.74609,0.041 -3.16871,0 -4.51004,1.81868 -5.54297,4.02344 -1.99597,5.23366 -3.99347,10.53691 -5.99219,15.77149 -0.99798,2.72996 -2.09622,5.50165 -3.10156,8.23437 h 10.98828 c 2.20568,-6.45699 4.38159,-12.4678 6.95703,-18.70312 h 3.98242 c 1.18378,-3.07489 1.93961,-6.06562 3.12891,-9.29688 -3.04776,0 -5.13169,-0.0772 -7.67383,-0.0703 z" />
<text
   xml:space="preserve"
   style="font-style:normal;font-weight:normal;font-size:61.0924px;line-height:1.25;font-family:sans-serif;letter-spacing:0px;word-spacing:0px;fill:#e8d68b;fill-opacity:1;stroke:none;stroke-width:1.52731"
   x="172.30226"
   y="274.68381"
   id="text47"
   transform="scale(1.0071072,0.99294299)"><tspan
     sodipodi:role="line"
     id="tspan45"
     x="172.30226"
     y="274.68381"
     style="stroke-width:1.52731">한</tspan></text>

</g>
<text
   id="text863"
   y="325.14603"
   x="91.167542"
   style="font-style:normal;font-weight:normal;font-size:40px;line-height:1.25;font-family:sans-serif;letter-spacing:0px;word-spacing:0px;fill:#000000;fill-opacity:1;stroke:none"
   xml:space="preserve" />

</svg>
